<svg width="359" height="207" viewBox="0 0 359 207" fill="none" xmlns="http://www.w3.org/2000/svg">
<g clip-path="url(#clip0_290_55442)">
<path d="M49.2789 155.697C49.2538 155.697 49.2323 155.697 49.2073 155.697C48.8137 155.658 48.5275 155.307 48.5669 154.914L62.0843 20.2147C62.4994 16.0858 65.4869 12.7655 69.5193 11.9497C111.374 3.48427 144.363 -0.201004 176.478 0.00293886C208.533 0.206882 240.989 4.28931 281.713 13.2485C285.756 14.1358 288.761 17.6672 289.019 21.8355L297.252 153.268C297.277 153.661 296.976 154.001 296.583 154.026C296.189 154.055 295.849 153.751 295.824 153.357L287.591 21.925C287.37 18.3936 284.826 15.3988 281.405 14.6475C240.781 5.71333 208.419 1.63806 176.468 1.43412C144.456 1.23733 111.557 4.9083 69.8019 13.3522C66.3886 14.0428 63.859 16.8586 63.5083 20.3579L49.9909 155.057C49.9551 155.425 49.6438 155.701 49.2789 155.701V155.697Z" fill="#101828"/>
<path d="M306.837 136.158C305.112 134.577 303.273 132.619 303.477 130.047C303.792 126.1 308.372 124.125 312.018 123.567C322.676 121.943 350.187 121.41 344.602 140.262C337.393 164.61 315.181 143.822 306.833 136.158H306.837Z" fill="#101828"/>
<path d="M317.363 137.338L295.644 153.616L297.643 156.285L319.363 140.007L317.363 137.338Z" fill="#101828"/>
<path d="M38.5054 136.23C40.23 134.648 42.069 132.691 41.8651 130.118C41.5502 126.172 36.9705 124.197 33.3245 123.639C22.6658 122.014 -4.84497 121.481 0.740203 140.333C7.94976 164.681 30.1616 143.893 38.509 136.23H38.5054Z" fill="#101828"/>
<path d="M27.9864 137.371L25.9866 140.039L47.706 156.317L49.7059 153.649L27.9864 137.371Z" fill="#101828"/>
<path d="M258.803 188.711C267.359 188.711 274.295 181.775 274.295 173.218C274.295 164.662 267.359 157.726 258.803 157.726C250.247 157.726 243.31 164.662 243.31 173.218C243.31 181.775 250.247 188.711 258.803 188.711Z" fill="#FFBC00"/>
<path d="M287.126 203.337C291.898 203.337 295.767 199.469 295.767 194.697C295.767 189.925 291.898 186.056 287.126 186.056C282.354 186.056 278.485 189.925 278.485 194.697C278.485 199.469 282.354 203.337 287.126 203.337Z" fill="#98A2B3"/>
<path d="M89.8487 188.464C98.405 188.464 105.341 181.528 105.341 172.971C105.341 164.415 98.405 157.479 89.8487 157.479C81.2924 157.479 74.3562 164.415 74.3562 172.971C74.3562 181.528 81.2924 188.464 89.8487 188.464Z" fill="#FFBC00"/>
<path d="M61.526 203.091C66.2981 203.091 70.1667 199.222 70.1667 194.45C70.1667 189.678 66.2981 185.809 61.526 185.809C56.7538 185.809 52.8853 189.678 52.8853 194.45C52.8853 199.222 56.7538 203.091 61.526 203.091Z" fill="#98A2B3"/>
<path d="M129.324 102.389C126.315 102.389 123.303 102.225 120.336 102.064L119.12 101.999C117.725 101.924 116.311 101.928 114.816 101.931C109.785 101.946 104.583 101.96 100.314 98.8543C100.075 98.679 100.021 98.3391 100.196 98.0994C100.372 97.8597 100.708 97.8024 100.951 97.9813C104.933 100.876 109.957 100.862 114.816 100.851C116.261 100.847 117.753 100.844 119.181 100.919L120.397 100.983C126.898 101.337 133.625 101.702 139.976 100.307C143.303 99.5771 146.284 98.357 148.838 96.6754C149.089 96.5108 149.422 96.5788 149.586 96.8292C149.751 97.0797 149.679 97.4124 149.432 97.577C146.767 99.3302 143.665 100.604 140.208 101.362C136.645 102.146 132.988 102.386 129.324 102.386V102.389Z" fill="#101828"/>
<path d="M124.347 102.536C124.469 102.611 124.612 102.633 124.752 102.6C127.081 102.032 128.763 103.295 129.492 104.547C130.365 106.039 130.38 107.924 130.38 109.592C130.401 116.207 131.278 125.363 132.111 128.09C132.476 128.047 132.841 128.007 133.21 127.968C132.398 125.753 131.485 116.211 131.453 109.588C131.446 107.878 131.435 105.746 130.419 104.007C129.5 102.432 127.396 100.851 124.494 101.559C124.358 101.595 124.24 101.681 124.165 101.803C124.093 101.924 124.068 102.071 124.104 102.207C124.14 102.343 124.226 102.465 124.344 102.536H124.347Z" fill="#101828"/>
<path d="M132.019 128.236L131.986 128.129C131.131 125.342 130.269 116.161 130.248 109.592C130.248 108.035 130.248 106.1 129.378 104.615C128.67 103.402 127.042 102.178 124.784 102.729C124.609 102.772 124.43 102.74 124.276 102.647C124.126 102.554 124.018 102.407 123.975 102.236C123.932 102.064 123.961 101.881 124.051 101.727C124.144 101.574 124.287 101.466 124.462 101.423C127.439 100.697 129.596 102.321 130.537 103.935C131.571 105.706 131.582 107.853 131.589 109.581C131.618 116.132 132.534 125.728 133.339 127.918L133.4 128.079L133.228 128.097C132.863 128.136 132.498 128.179 132.13 128.219L132.019 128.233V128.236ZM125.886 102.325C127.682 102.325 128.985 103.406 129.611 104.479C130.516 106.028 130.516 108.003 130.516 109.592C130.537 116.057 131.375 125.052 132.212 127.943C132.484 127.911 132.756 127.882 133.031 127.85C132.219 125.335 131.353 116.136 131.321 109.588C131.314 107.889 131.303 105.781 130.305 104.071C129.41 102.54 127.36 100.994 124.526 101.685C124.423 101.71 124.337 101.778 124.283 101.867C124.229 101.956 124.212 102.067 124.237 102.171C124.262 102.275 124.326 102.364 124.416 102.418C124.505 102.475 124.612 102.493 124.716 102.468C125.124 102.368 125.514 102.321 125.879 102.321L125.886 102.325Z" fill="#101828"/>
<path d="M126.594 106.411C126.945 106.411 127.231 106.125 127.231 105.774C127.231 105.423 126.945 105.137 126.594 105.137C126.244 105.137 125.957 105.423 125.957 105.774C125.957 106.125 126.244 106.411 126.594 106.411Z" fill="#101828"/>
<path d="M126.598 106.547C126.172 106.547 125.825 106.2 125.825 105.774C125.825 105.348 126.172 105.001 126.598 105.001C127.024 105.001 127.371 105.348 127.371 105.774C127.371 106.2 127.024 106.547 126.598 106.547ZM126.598 105.273C126.322 105.273 126.097 105.499 126.097 105.774C126.097 106.05 126.322 106.275 126.598 106.275C126.873 106.275 127.099 106.05 127.099 105.774C127.099 105.499 126.873 105.273 126.598 105.273Z" fill="#101828"/>
<path d="M126.594 106.948C126.362 106.948 126.133 106.88 125.943 106.751C125.75 106.622 125.6 106.44 125.51 106.225C125.421 106.01 125.399 105.774 125.442 105.545C125.489 105.316 125.6 105.109 125.764 104.944C125.929 104.779 126.14 104.669 126.365 104.622C126.594 104.575 126.83 104.601 127.045 104.69C127.26 104.779 127.442 104.93 127.571 105.123C127.7 105.316 127.768 105.545 127.768 105.778C127.768 106.089 127.643 106.386 127.424 106.608C127.203 106.826 126.906 106.951 126.594 106.951V106.948ZM126.594 105.674C126.573 105.674 126.555 105.681 126.537 105.692C126.519 105.703 126.508 105.717 126.501 105.735C126.494 105.753 126.491 105.774 126.498 105.792C126.498 105.813 126.512 105.831 126.526 105.842C126.541 105.856 126.559 105.864 126.576 105.871C126.598 105.871 126.616 105.871 126.634 105.864C126.652 105.856 126.669 105.842 126.68 105.828C126.691 105.81 126.698 105.792 126.698 105.774C126.698 105.749 126.687 105.72 126.669 105.703C126.652 105.685 126.627 105.674 126.598 105.674H126.594Z" fill="#101828"/>
<path d="M126.598 107.084C126.337 107.084 126.086 107.008 125.868 106.862C125.653 106.719 125.485 106.515 125.385 106.275C125.285 106.035 125.26 105.774 125.31 105.52C125.36 105.266 125.485 105.033 125.668 104.851C125.854 104.668 126.086 104.543 126.34 104.493C126.594 104.443 126.855 104.468 127.099 104.568C127.338 104.668 127.542 104.837 127.685 105.051C127.829 105.266 127.904 105.52 127.904 105.778C127.904 106.128 127.768 106.457 127.521 106.704C127.274 106.951 126.945 107.087 126.594 107.087L126.598 107.084ZM126.598 104.733C126.53 104.733 126.462 104.74 126.397 104.754C126.193 104.794 126.011 104.894 125.864 105.037C125.718 105.184 125.621 105.366 125.582 105.57C125.542 105.774 125.56 105.982 125.642 106.171C125.721 106.361 125.854 106.522 126.025 106.64C126.426 106.908 126.995 106.855 127.338 106.511C127.535 106.314 127.643 106.053 127.643 105.778C127.643 105.57 127.582 105.37 127.467 105.202C127.353 105.03 127.192 104.897 127.002 104.819C126.873 104.765 126.741 104.74 126.605 104.74L126.598 104.733ZM126.594 106.01C126.594 106.01 126.566 106.01 126.551 106.007C126.501 105.996 126.462 105.974 126.43 105.942C126.397 105.914 126.372 105.867 126.365 105.821C126.358 105.781 126.362 105.735 126.376 105.692C126.397 105.645 126.426 105.609 126.462 105.584C126.548 105.524 126.676 105.534 126.759 105.609C126.805 105.656 126.83 105.717 126.83 105.778C126.83 105.821 126.816 105.867 126.795 105.903C126.766 105.946 126.727 105.974 126.687 105.992C126.659 106.003 126.63 106.01 126.598 106.01H126.594ZM126.594 105.781L126.576 105.803H126.591L126.594 105.781ZM126.619 105.792L126.612 105.806C126.612 105.806 126.612 105.806 126.616 105.806L126.619 105.799V105.792Z" fill="#101828"/>
<path d="M127.231 116.905C127.585 116.905 127.868 116.619 127.868 116.268C127.868 115.918 127.582 115.631 127.231 115.631C126.88 115.631 126.594 115.918 126.594 116.268C126.594 116.619 126.88 116.905 127.231 116.905Z" fill="#101828"/>
<path d="M127.231 117.037C126.806 117.037 126.458 116.69 126.458 116.265C126.458 115.839 126.806 115.492 127.231 115.492C127.657 115.492 128.004 115.839 128.004 116.265C128.004 116.69 127.657 117.037 127.231 117.037ZM127.231 115.764C126.956 115.764 126.73 115.989 126.73 116.265C126.73 116.54 126.956 116.766 127.231 116.766C127.507 116.766 127.732 116.54 127.732 116.265C127.732 115.989 127.507 115.764 127.231 115.764Z" fill="#101828"/>
<path d="M127.231 117.445C126.999 117.445 126.773 117.377 126.58 117.249C126.387 117.12 126.237 116.937 126.147 116.723C126.058 116.508 126.036 116.272 126.079 116.043C126.122 115.814 126.237 115.606 126.401 115.442C126.566 115.277 126.773 115.166 127.002 115.12C127.231 115.073 127.467 115.098 127.682 115.188C127.897 115.277 128.079 115.427 128.208 115.621C128.337 115.814 128.405 116.043 128.405 116.275C128.405 116.587 128.28 116.884 128.061 117.105C127.843 117.327 127.543 117.449 127.231 117.452V117.445ZM127.231 116.172C127.21 116.172 127.192 116.175 127.174 116.189C127.156 116.2 127.145 116.215 127.138 116.232C127.131 116.25 127.128 116.272 127.131 116.29C127.135 116.308 127.145 116.325 127.16 116.34C127.174 116.354 127.192 116.361 127.21 116.368C127.231 116.368 127.249 116.368 127.267 116.361C127.285 116.354 127.299 116.34 127.31 116.322C127.321 116.304 127.328 116.286 127.328 116.265C127.328 116.25 127.328 116.24 127.321 116.225C127.317 116.215 127.31 116.204 127.299 116.193C127.292 116.182 127.278 116.175 127.267 116.172C127.256 116.168 127.242 116.164 127.228 116.164L127.231 116.172Z" fill="#101828"/>
<path d="M127.235 117.578C126.977 117.578 126.723 117.503 126.508 117.359C126.294 117.216 126.126 117.012 126.025 116.773C125.925 116.529 125.9 116.268 125.95 116.014C126 115.76 126.122 115.528 126.308 115.341C126.491 115.159 126.723 115.034 126.981 114.984C127.235 114.934 127.496 114.959 127.739 115.059C127.979 115.155 128.183 115.324 128.326 115.542C128.469 115.76 128.548 116.011 128.548 116.272C128.548 116.615 128.408 116.952 128.165 117.195C127.918 117.442 127.589 117.578 127.242 117.581L127.235 117.578ZM127.231 115.231C127.163 115.231 127.095 115.238 127.027 115.252C126.823 115.291 126.641 115.392 126.494 115.538C126.347 115.685 126.251 115.871 126.212 116.071C126.172 116.272 126.19 116.479 126.272 116.672C126.351 116.862 126.483 117.023 126.655 117.138C126.827 117.252 127.027 117.313 127.231 117.313C127.507 117.313 127.768 117.202 127.965 117.005C128.158 116.812 128.269 116.544 128.269 116.272C128.269 116.064 128.208 115.867 128.094 115.696C127.979 115.524 127.818 115.392 127.628 115.313C127.5 115.259 127.367 115.234 127.231 115.234V115.231ZM127.231 116.504C127.231 116.504 127.203 116.504 127.188 116.504C127.138 116.494 127.099 116.472 127.067 116.443C127.031 116.404 127.009 116.365 126.999 116.322C126.988 116.265 126.995 116.218 127.017 116.175C127.031 116.139 127.06 116.104 127.095 116.079V116.036H127.231C127.263 116.036 127.296 116.043 127.324 116.053C127.353 116.064 127.382 116.086 127.403 116.107C127.421 116.125 127.435 116.15 127.449 116.179C127.46 116.211 127.467 116.24 127.467 116.268C127.467 116.318 127.453 116.361 127.428 116.401C127.403 116.44 127.367 116.469 127.324 116.486C127.296 116.497 127.263 116.504 127.231 116.504ZM127.195 116.268V116.275L127.221 116.272V116.247L127.195 116.272V116.268Z" fill="#101828"/>
<path d="M128.505 127.138C128.855 127.138 129.142 126.852 129.142 126.501C129.142 126.15 128.855 125.864 128.505 125.864C128.154 125.864 127.868 126.15 127.868 126.501C127.868 126.852 128.154 127.138 128.505 127.138Z" fill="#101828"/>
<path d="M128.505 127.274C128.079 127.274 127.732 126.927 127.732 126.501C127.732 126.075 128.079 125.728 128.505 125.728C128.931 125.728 129.278 126.075 129.278 126.501C129.278 126.927 128.931 127.274 128.505 127.274ZM128.505 126C128.23 126 128.004 126.226 128.004 126.501C128.004 126.777 128.23 127.002 128.505 127.002C128.781 127.002 129.006 126.777 129.006 126.501C129.006 126.226 128.781 126 128.505 126Z" fill="#101828"/>
<path d="M128.505 127.675C128.272 127.675 128.043 127.607 127.854 127.478C127.661 127.349 127.51 127.167 127.421 126.952C127.331 126.737 127.31 126.501 127.353 126.272C127.399 126.043 127.51 125.836 127.675 125.671C127.839 125.506 128.051 125.396 128.276 125.349C128.505 125.306 128.741 125.328 128.956 125.417C129.17 125.506 129.353 125.657 129.482 125.85C129.611 126.043 129.679 126.272 129.679 126.505C129.679 126.816 129.553 127.113 129.335 127.335C129.117 127.553 128.816 127.678 128.505 127.678V127.675Z" fill="#101828"/>
<path d="M128.505 127.811C128.244 127.811 127.993 127.736 127.779 127.589C127.564 127.446 127.396 127.242 127.296 127.002C127.195 126.762 127.17 126.501 127.22 126.244C127.27 125.989 127.396 125.757 127.578 125.571C127.764 125.388 127.993 125.263 128.247 125.213C128.505 125.163 128.766 125.188 129.006 125.288C129.245 125.388 129.449 125.553 129.593 125.771C129.736 125.986 129.811 126.24 129.811 126.498C129.811 126.841 129.671 127.177 129.428 127.421C129.185 127.664 128.848 127.803 128.505 127.803V127.811ZM128.505 125.46C128.437 125.46 128.369 125.467 128.301 125.478C128.101 125.517 127.914 125.617 127.768 125.764C127.621 125.911 127.524 126.093 127.482 126.297C127.442 126.501 127.464 126.709 127.542 126.898C127.621 127.091 127.753 127.252 127.925 127.363C128.322 127.628 128.895 127.574 129.238 127.235C129.432 127.041 129.542 126.773 129.542 126.501C129.542 126.294 129.482 126.093 129.367 125.921C129.253 125.75 129.092 125.617 128.902 125.539C128.773 125.485 128.641 125.46 128.505 125.46Z" fill="#101828"/>
<path d="M112.258 87.4156C112.258 87.4156 106.705 88.5391 106.232 89.5409C106.028 89.9703 109.953 91.3585 112.136 91.9668L112.258 87.4156Z" fill="#101828"/>
<path d="M112.268 92.1421L112.1 92.0956C110.454 91.6376 106.393 90.2923 106.11 89.6769C106.071 89.5911 106.089 89.5231 106.11 89.4801C106.597 88.4497 111.656 87.3978 112.232 87.2833L112.397 87.2511L112.268 92.1421ZM106.364 89.5767C106.561 89.956 109.628 91.1117 112.007 91.7879L112.118 87.5803C109.932 88.0347 106.733 88.9077 106.364 89.5767Z" fill="#101828"/>
<path d="M112.136 92.4785C112.089 92.4785 112.043 92.4713 111.996 92.4606C110.891 92.1529 109.445 91.677 108.315 91.2477C106.011 90.3675 105.86 90.0347 105.767 89.8344C105.728 89.7521 105.71 89.6662 105.71 89.5767C105.71 89.4873 105.728 89.4014 105.767 89.3191C105.964 88.9077 106.536 88.3781 109.281 87.6089C110.73 87.201 112.097 86.9255 112.154 86.9112C112.229 86.8969 112.308 86.9004 112.383 86.9183C112.458 86.9362 112.526 86.972 112.587 87.0221C112.644 87.0722 112.694 87.133 112.726 87.2046C112.759 87.2761 112.773 87.3513 112.773 87.4264L112.648 91.974C112.648 92.1064 112.59 92.2352 112.494 92.3282C112.397 92.4212 112.272 92.4749 112.136 92.4749V92.4785ZM106.962 89.5481C107.746 89.9739 109.789 90.7396 111.649 91.2906L111.735 88.0526C109.592 88.5213 107.674 89.1224 106.962 89.5481Z" fill="#101828"/>
<path d="M112.129 92.6109C112.072 92.6109 112.018 92.6037 111.961 92.5858C110.855 92.2781 109.402 91.8022 108.268 91.3693C105.914 90.4712 105.753 90.1206 105.646 89.888C105.599 89.7914 105.578 89.6841 105.578 89.5732C105.578 89.4623 105.603 89.3585 105.649 89.2583C105.867 88.7968 106.458 88.2565 109.249 87.4765C110.651 87.0829 111.982 86.8074 112.129 86.7788C112.225 86.7609 112.326 86.7645 112.419 86.7859C112.512 86.811 112.601 86.8539 112.676 86.9183C112.751 86.9827 112.812 87.0615 112.852 87.1473C112.891 87.2368 112.912 87.3334 112.909 87.43L112.784 91.9811C112.78 92.1493 112.712 92.3103 112.59 92.4284C112.465 92.55 112.304 92.6144 112.129 92.6144V92.6109ZM112.254 87.0364C112.229 87.0364 112.204 87.0364 112.183 87.0436C112.036 87.0722 110.716 87.3477 109.32 87.7377C106.608 88.4962 106.064 89.0114 105.892 89.3764C105.864 89.4372 105.85 89.5052 105.85 89.5767C105.85 89.6483 105.864 89.7163 105.892 89.7771C105.971 89.9488 106.114 90.2637 108.368 91.1224C109.495 91.5518 110.937 92.0241 112.039 92.3318C112.075 92.3425 112.107 92.3461 112.14 92.3461C112.24 92.3461 112.333 92.3067 112.401 92.2387C112.472 92.1708 112.512 92.0777 112.515 91.9775L112.64 87.43C112.64 87.3763 112.63 87.3191 112.605 87.2654C112.58 87.2153 112.547 87.1688 112.501 87.1294C112.458 87.0937 112.408 87.065 112.351 87.0543C112.318 87.0471 112.286 87.0436 112.254 87.0436V87.0364ZM111.782 91.4695L111.614 91.4194C109.775 90.872 107.707 90.1027 106.901 89.6662L106.694 89.5517L106.898 89.4301C107.624 88.9971 109.56 88.3924 111.71 87.9202L111.878 87.8844L111.782 91.4695ZM107.256 89.5446C108.132 89.9703 109.896 90.6179 111.521 91.1117L111.596 88.2243C109.732 88.6393 108.061 89.151 107.256 89.5446Z" fill="#101828"/>
<path d="M137.876 87.4872C137.876 87.4872 146.502 88.4067 146.148 89.9095C145.983 90.6072 140.04 91.2512 137.858 91.8595L137.876 87.4872Z" fill="#101828"/>
<path d="M137.722 92.0383L137.743 87.3369L137.894 87.3512C138.194 87.3834 145.239 88.1491 146.177 89.473C146.284 89.6232 146.32 89.7807 146.28 89.9381C146.169 90.414 144.617 90.736 141.346 91.3049C139.98 91.5446 138.692 91.7664 137.894 91.9883L137.722 92.0348V92.0383ZM138.012 87.6375L137.994 91.6841C138.81 91.473 140.023 91.2619 141.3 91.0401C143.146 90.7181 145.933 90.2315 146.016 89.8773C146.033 89.795 146.016 89.7163 145.955 89.6304C145.25 88.6393 140.123 87.8736 138.012 87.6375Z" fill="#101828"/>
<path d="M137.858 92.3747C137.79 92.3747 137.725 92.3604 137.661 92.3353C137.6 92.3103 137.543 92.2709 137.493 92.2244C137.446 92.1779 137.407 92.1206 137.382 92.0562C137.357 91.9954 137.343 91.9274 137.343 91.8595L137.36 87.4872C137.36 87.4157 137.378 87.3441 137.407 87.2797C137.436 87.2153 137.478 87.1545 137.532 87.108C137.586 87.0614 137.647 87.0257 137.715 87.0006C137.783 86.9792 137.854 86.972 137.926 86.9792C139.683 87.1652 145.504 87.8844 146.477 89.2583C146.559 89.3656 146.617 89.4909 146.645 89.6268C146.674 89.7592 146.674 89.8987 146.645 90.0311C146.484 90.7109 145.447 90.9793 141.407 91.6841C140.051 91.9203 138.77 92.1421 137.994 92.3604C137.947 92.3747 137.901 92.3783 137.854 92.3783L137.858 92.3747ZM138.387 88.0633L138.373 91.2047C139.16 91.0294 140.176 90.8505 141.235 90.668C142.699 90.4104 144.842 90.0383 145.543 89.7449C145.278 89.5374 144.416 89.0794 141.668 88.5642C140.369 88.3209 139.096 88.1491 138.387 88.0633Z" fill="#101828"/>
<path d="M137.858 92.5071C137.772 92.5071 137.686 92.4892 137.607 92.457C137.532 92.4248 137.461 92.3783 137.4 92.3175C137.339 92.2531 137.292 92.1815 137.26 92.1028C137.228 92.0241 137.21 91.9418 137.21 91.8559L137.228 87.4837C137.228 87.3942 137.25 87.3048 137.285 87.2225C137.325 87.1366 137.378 87.0614 137.446 87.0042C137.511 86.9434 137.589 86.9004 137.675 86.8718C137.765 86.8432 137.854 86.8325 137.944 86.8432C140.219 87.0865 145.615 87.8021 146.592 89.176C146.681 89.2977 146.749 89.4408 146.781 89.5947C146.813 89.7449 146.813 89.9023 146.781 90.0562C146.599 90.829 145.54 91.0974 141.432 91.813C140.069 92.0491 138.799 92.2709 138.03 92.4856C137.976 92.4999 137.919 92.5107 137.854 92.5107L137.858 92.5071ZM137.876 87.108C137.836 87.108 137.797 87.1151 137.758 87.1259C137.708 87.1438 137.661 87.1688 137.625 87.2046C137.586 87.2403 137.554 87.2833 137.532 87.3334C137.511 87.3799 137.5 87.4336 137.5 87.4872L137.482 91.8595C137.482 91.9096 137.493 91.9597 137.511 92.0026C137.529 92.0491 137.557 92.092 137.593 92.1278C137.629 92.1636 137.668 92.1887 137.715 92.2101C137.793 92.2459 137.886 92.2459 137.958 92.228C138.742 92.0098 140.019 91.7879 141.368 91.5518C145.296 90.8684 146.377 90.5965 146.516 89.9989C146.541 89.8844 146.541 89.7664 146.516 89.6555C146.491 89.541 146.441 89.4336 146.373 89.3406C145.626 88.2851 141.514 87.5015 137.915 87.1151C137.901 87.1151 137.886 87.1151 137.876 87.1151V87.108ZM138.237 91.3729L138.251 87.9094L138.402 87.9273C139.053 88.006 140.344 88.1778 141.69 88.4282C144.43 88.9399 145.332 89.405 145.622 89.634L145.801 89.7771L145.59 89.8666C144.885 90.1599 142.835 90.5213 141.336 90.7825L141.253 90.7968C140.169 90.9865 139.174 91.1582 138.398 91.3335L138.233 91.3693L138.237 91.3729ZM138.52 88.2171L138.509 91.0401C139.264 90.8755 140.198 90.7145 141.182 90.5428L141.293 90.5249C142.552 90.3031 144.384 89.9811 145.236 89.7163C144.82 89.4945 143.854 89.1188 141.64 88.7037C140.398 88.4712 139.203 88.3066 138.52 88.2243V88.2171Z" fill="#101828"/>
<path d="M187.663 117.145C187.988 117.556 188.303 117.964 188.618 118.372C188.697 118.104 188.808 117.839 188.958 117.581C189.008 117.495 189.062 117.42 189.115 117.349C188.897 117.07 188.682 116.791 188.461 116.508C177.247 102.289 167.351 100.565 155.905 98.5573C154.989 98.3999 154.062 98.2353 153.121 98.0672C149.998 97.4983 147.883 95.7594 147.314 93.2942L146.667 89.8057C146.652 89.7341 146.624 89.6661 146.584 89.6053C146.541 89.5445 146.488 89.4944 146.427 89.4586C146.362 89.4229 146.294 89.3978 146.223 89.3907C146.151 89.3835 146.076 89.3907 146.008 89.4121C133.346 93.5912 123.231 93.3765 116.977 92.4641C110.211 91.4766 106.379 89.4765 106.322 89.4479C106.2 89.3835 106.061 89.3692 105.932 89.4121C105.803 89.4515 105.692 89.5409 105.628 89.6626C105.563 89.7807 105.549 89.9238 105.588 90.0526C105.61 90.117 105.642 90.1778 105.681 90.2279C105.724 90.2815 105.778 90.3245 105.835 90.3567C105.996 90.4425 109.828 92.4498 116.766 93.4731C123.049 94.3998 133.146 94.6323 145.765 90.5714L146.309 93.5017V93.5232C146.96 96.3748 149.436 98.4536 152.935 99.0905C153.876 99.2586 154.806 99.4232 155.73 99.5842C166.979 101.548 176.696 103.244 187.666 117.148L187.663 117.145Z" fill="#101828"/>
<path d="M188.672 118.665L188.396 118.311C188.117 117.953 187.842 117.592 187.555 117.231C176.618 103.366 166.925 101.674 155.701 99.7131C154.778 99.5521 153.847 99.3875 152.906 99.2193C149.354 98.5753 146.835 96.4536 146.173 93.5483V93.4982L145.658 90.7432C133.063 94.7719 122.988 94.525 116.744 93.6019C109.964 92.6001 106.179 90.6859 105.771 90.4712C105.696 90.4319 105.631 90.3782 105.574 90.3102C105.52 90.2423 105.481 90.1707 105.456 90.0884C105.406 89.9238 105.424 89.7449 105.502 89.5947C105.585 89.4408 105.721 89.3299 105.885 89.2798C106.046 89.2297 106.225 89.2476 106.379 89.3263C106.536 89.4086 110.333 91.355 116.991 92.3282C123.235 93.2406 133.328 93.4552 145.962 89.2833C146.051 89.2547 146.144 89.2476 146.234 89.2547C146.323 89.2655 146.409 89.2941 146.491 89.3406C146.57 89.3871 146.641 89.4515 146.692 89.5302C146.745 89.6054 146.781 89.6948 146.799 89.7807L147.447 93.2692C148.001 95.6736 150.08 97.3767 153.146 97.9348C154.087 98.103 155.014 98.2676 155.926 98.425L155.962 98.4322C167.429 100.443 177.333 102.182 188.564 116.426C188.722 116.626 188.876 116.823 189.029 117.023L189.283 117.349L189.219 117.431C189.165 117.499 189.115 117.567 189.069 117.646C188.929 117.882 188.825 118.132 188.743 118.408L188.668 118.662L188.672 118.665ZM187.766 117.063C188.038 117.406 188.303 117.749 188.568 118.089C188.643 117.885 188.732 117.692 188.84 117.513C188.872 117.456 188.908 117.402 188.947 117.352L188.822 117.191C188.668 116.995 188.514 116.794 188.357 116.594C177.186 102.432 167.333 100.701 155.919 98.7005L155.883 98.6934C154.967 98.5359 154.041 98.3713 153.1 98.1996C149.922 97.6236 147.765 95.8453 147.182 93.3229L146.534 89.8308C146.523 89.7807 146.502 89.727 146.473 89.6841C146.441 89.6412 146.402 89.6018 146.355 89.5767C146.309 89.5481 146.255 89.5338 146.205 89.5267C146.151 89.5195 146.098 89.5267 146.044 89.541C133.36 93.7272 123.22 93.5125 116.952 92.5965C110.25 91.6162 106.415 89.6519 106.254 89.566C106.164 89.5195 106.06 89.5088 105.964 89.5374C105.867 89.566 105.789 89.6304 105.738 89.7199C105.692 89.8057 105.681 89.9131 105.71 90.0097C105.724 90.0562 105.749 90.0991 105.778 90.1385C105.81 90.1778 105.849 90.21 105.892 90.2315C106.297 90.4426 110.043 92.3389 116.78 93.3336C123.02 94.2531 133.103 94.4964 145.718 90.4355L145.865 90.3889L146.438 93.5161C147.071 96.2818 149.511 98.3248 152.953 98.951C153.894 99.1191 154.824 99.2837 155.747 99.4447C167.025 101.413 176.764 103.116 187.766 117.059V117.063Z" fill="#101828"/>
<path d="M154.76 116.533C154.896 116.54 155.029 116.497 155.132 116.408C157.322 114.483 160.191 115.603 162.725 116.594L163.018 116.712C165.226 117.578 167.38 119.063 169.798 121.399C171.025 122.583 172.181 123.843 173.276 125.156C173.691 125.12 174.106 125.084 174.521 125.045C173.269 123.51 171.938 122.036 170.507 120.655C167.991 118.222 165.73 116.665 163.387 115.757L163.093 115.638C160.428 114.597 157.111 113.295 154.452 115.638C154.349 115.728 154.288 115.857 154.277 115.989C154.266 116.125 154.313 116.257 154.402 116.361C154.492 116.465 154.621 116.526 154.753 116.537L154.76 116.533Z" fill="#101828"/>
<path d="M173.215 125.292L173.168 125.238C171.998 123.839 170.864 122.615 169.701 121.492C167.3 119.173 165.161 117.692 162.968 116.833L162.674 116.715C160.18 115.742 157.35 114.637 155.221 116.508C155.093 116.622 154.928 116.68 154.753 116.669C154.581 116.658 154.42 116.576 154.309 116.451C154.198 116.322 154.137 116.15 154.148 115.982C154.159 115.81 154.241 115.649 154.366 115.538C157.082 113.145 160.434 114.454 163.129 115.51L163.436 115.631C165.787 116.544 168.063 118.107 170.599 120.558C171.97 121.878 173.283 123.32 174.625 124.959L174.786 125.156L174.531 125.177C174.109 125.217 173.698 125.252 173.283 125.288L173.211 125.295L173.215 125.292ZM158.009 115.22C159.576 115.22 161.232 115.867 162.771 116.469L163.064 116.587C165.293 117.46 167.461 118.959 169.887 121.302C171.043 122.415 172.17 123.632 173.329 125.013C173.637 124.988 173.945 124.959 174.252 124.93C172.975 123.381 171.716 122.011 170.41 120.751C167.902 118.329 165.655 116.78 163.336 115.882L163.043 115.764C160.402 114.733 157.136 113.456 154.542 115.739C154.466 115.803 154.42 115.9 154.413 116C154.406 116.1 154.441 116.197 154.506 116.272C154.57 116.347 154.667 116.393 154.763 116.401C154.864 116.408 154.96 116.372 155.035 116.308C155.94 115.513 156.953 115.22 158.005 115.22H158.009Z" fill="#101828"/>
<path d="M106.526 89.5194C106.468 89.3978 106.365 89.3012 106.236 89.2547C106.107 89.2082 105.967 89.2153 105.842 89.2726C105.721 89.3298 105.624 89.4336 105.577 89.5624C105.556 89.6304 103.363 95.6055 101.499 97.1798C100.15 98.3212 97.4626 98.7291 94.0636 99.2443C84.192 100.74 67.365 103.291 51.6506 127.839V129.771C67.3793 104.321 84.3387 101.745 94.2174 100.25C97.9134 99.6915 100.586 99.2837 102.16 97.9562C104.229 96.2138 106.447 90.1706 106.54 89.913C106.586 89.7842 106.579 89.6447 106.522 89.5194H106.526Z" fill="#101828"/>
<path d="M51.5148 130.244V127.796L51.5363 127.764C67.2864 103.159 84.0383 100.625 94.0423 99.1084C97.4198 98.5967 100.089 98.1924 101.409 97.0761C103.241 95.5304 105.427 89.5767 105.449 89.5195C105.51 89.3549 105.628 89.2261 105.785 89.1509C105.942 89.0758 106.121 89.0687 106.282 89.1295C106.443 89.1867 106.572 89.3084 106.647 89.4622C106.722 89.6197 106.73 89.795 106.669 89.9596C106.576 90.2172 104.332 96.2997 102.246 98.06C100.64 99.4125 97.9529 99.8204 94.2355 100.382C84.2208 101.899 67.4617 104.436 51.7617 129.843L51.5112 130.247L51.5148 130.244ZM51.7867 127.875V129.295C67.4796 104.16 84.1922 101.627 94.1997 100.114C97.8742 99.5592 100.529 99.1549 102.075 97.8525C104.107 96.1387 106.322 90.1206 106.415 89.8665C106.451 89.7699 106.443 89.6697 106.4 89.5767C106.358 89.4837 106.282 89.4157 106.189 89.3799C106.093 89.3442 105.993 89.3477 105.9 89.3907C105.81 89.4336 105.739 89.5087 105.706 89.6018C105.688 89.6554 103.481 95.6771 101.588 97.2765C100.207 98.4429 97.5057 98.8507 94.0852 99.3695C84.1278 100.876 67.4653 103.398 51.7867 127.871V127.875Z" fill="#101828"/>
<path d="M58.8136 138.684C58.7278 138.684 58.6419 138.663 58.5632 138.623C58.4881 138.58 58.4236 138.519 58.3771 138.448C58.3306 138.376 58.302 138.29 58.2984 138.205C58.2913 138.119 58.3092 138.029 58.3485 137.954C60.8495 132.437 63.88 126.1 68.2379 120.744C70.4455 118.025 72.5064 116.204 74.7176 115.03C77.5012 113.542 81.4835 112.887 84.0918 114.78C84.1491 114.819 84.1992 114.869 84.2349 114.926C84.2743 114.984 84.2993 115.048 84.3101 115.116C84.3208 115.184 84.3208 115.256 84.3065 115.32C84.2922 115.388 84.2636 115.449 84.2206 115.506C84.1813 115.563 84.1276 115.61 84.0703 115.646C84.0095 115.681 83.9451 115.703 83.8771 115.714C83.8092 115.724 83.7376 115.717 83.6732 115.699C83.6052 115.681 83.5444 115.649 83.4907 115.606C81.2366 113.975 77.7088 114.597 75.2042 115.935C73.1147 117.052 71.154 118.787 69.0358 121.395C64.7566 126.659 61.7583 132.923 59.2859 138.387C59.243 138.476 59.1786 138.552 59.0963 138.605C59.014 138.659 58.9174 138.688 58.8208 138.684H58.8136Z" fill="#101828"/>
<path d="M58.8104 138.82C58.7031 138.82 58.5957 138.791 58.5027 138.741C58.4061 138.688 58.3238 138.612 58.2666 138.519C58.2057 138.426 58.1735 138.319 58.1664 138.212C58.1592 138.104 58.1807 137.993 58.2272 137.893C60.7318 132.365 63.773 126.018 68.1345 120.655C70.3672 117.907 72.4388 116.082 74.6571 114.909C77.4765 113.399 81.516 112.737 84.1745 114.669C84.2424 114.715 84.3033 114.776 84.3534 114.848C84.3999 114.923 84.4321 115.002 84.45 115.087C84.4643 115.173 84.4643 115.263 84.4428 115.345C84.4213 115.431 84.3856 115.51 84.3355 115.581C84.2854 115.653 84.221 115.71 84.1458 115.757C84.0707 115.803 83.9848 115.832 83.899 115.842C83.8095 115.853 83.7236 115.85 83.6413 115.825C83.559 115.803 83.4803 115.764 83.4124 115.71C81.2119 114.118 77.7377 114.733 75.2725 116.05C73.2009 117.159 71.2509 118.884 69.1435 121.474C64.8679 126.734 61.8767 132.988 59.4115 138.437C59.3578 138.552 59.2755 138.645 59.1718 138.713C59.0645 138.781 58.9428 138.816 58.8212 138.813H58.814L58.8104 138.82ZM80.1135 113.746C78.2673 113.746 76.3352 114.315 74.7824 115.148C72.5962 116.308 70.5496 118.111 68.3421 120.826C63.9984 126.165 60.9679 132.494 58.4705 138.008C58.4419 138.069 58.4312 138.133 58.4347 138.194C58.4383 138.258 58.4598 138.319 58.492 138.373C58.5278 138.426 58.5743 138.469 58.6315 138.502C58.6852 138.53 58.746 138.548 58.814 138.548C58.8927 138.548 58.9571 138.527 59.0179 138.491C59.0788 138.451 59.1289 138.398 59.1575 138.33C61.6298 132.866 64.6317 126.591 68.9253 121.31C71.0541 118.69 73.0292 116.944 75.1366 115.817C77.6769 114.461 81.2692 113.835 83.5662 115.499C83.6127 115.535 83.6557 115.556 83.7057 115.57C83.7558 115.585 83.8059 115.588 83.8596 115.581C83.9097 115.574 83.9562 115.556 83.9991 115.531C84.0421 115.506 84.0814 115.47 84.1101 115.427C84.1387 115.388 84.1601 115.341 84.1709 115.291C84.1816 115.241 84.1852 115.191 84.1745 115.141C84.1673 115.091 84.1458 115.045 84.1172 115.002C84.0886 114.959 84.0528 114.923 84.0099 114.894C82.8936 114.086 81.5268 113.749 80.1063 113.749L80.1135 113.746Z" fill="#101828"/>
<path d="M87.8129 126.956C87.6841 126.956 87.5625 126.909 87.4694 126.82C87.3764 126.734 87.3156 126.616 87.3048 126.487C87.2941 126.358 87.3299 126.233 87.405 126.133C87.4802 126.029 87.5947 125.961 87.7199 125.936C87.7843 125.925 87.9954 125.868 88.2172 125.807C88.779 125.66 89.6305 125.428 90.3318 125.306C90.3998 125.295 90.4678 125.295 90.5322 125.313C90.5966 125.328 90.661 125.356 90.7146 125.396C90.7683 125.435 90.8148 125.485 90.8506 125.542C90.8864 125.599 90.9114 125.664 90.9222 125.728C90.9329 125.796 90.9329 125.861 90.915 125.929C90.9007 125.993 90.8721 126.057 90.8327 126.111C90.7933 126.165 90.7433 126.215 90.686 126.251C90.6288 126.286 90.5644 126.311 90.5 126.322C89.8452 126.437 89.0223 126.659 88.4784 126.805C88.1671 126.888 88.0026 126.934 87.9024 126.952C87.8702 126.959 87.838 126.963 87.8058 126.963L87.8129 126.956Z" fill="#101828"/>
<path d="M87.8131 127.091C87.6521 127.091 87.4982 127.031 87.3766 126.92C87.2585 126.812 87.1834 126.662 87.169 126.501C87.1547 126.34 87.2013 126.183 87.2979 126.054C87.3945 125.925 87.534 125.839 87.695 125.807C87.7523 125.796 87.9276 125.75 88.1208 125.696L88.4321 125.614C88.9652 125.474 89.6987 125.281 90.3105 125.174C90.3964 125.159 90.4822 125.163 90.5645 125.181C90.6504 125.199 90.7255 125.235 90.7971 125.285C90.8686 125.335 90.9259 125.396 90.9724 125.467C91.0153 125.539 91.0475 125.617 91.0619 125.703C91.0762 125.786 91.0726 125.871 91.0547 125.954C91.0368 126.036 91.001 126.115 90.9509 126.186C90.9008 126.254 90.84 126.315 90.7685 126.362C90.6969 126.408 90.6182 126.437 90.5323 126.451C89.9062 126.558 89.1047 126.773 88.5752 126.916L88.5215 126.93C88.2067 127.016 88.0385 127.059 87.9383 127.081C87.8954 127.088 87.856 127.091 87.8167 127.091H87.8131ZM90.4178 125.435C90.3964 125.435 90.3749 125.435 90.3534 125.438C89.7559 125.542 89.0296 125.732 88.5 125.871L88.1888 125.954C87.9848 126.007 87.8023 126.057 87.7415 126.068C87.6485 126.086 87.5662 126.136 87.5125 126.211C87.4553 126.286 87.4302 126.379 87.4374 126.472C87.4445 126.566 87.4875 126.651 87.5591 126.716C87.6485 126.798 87.7701 126.83 87.8846 126.809C87.9812 126.791 88.1423 126.748 88.45 126.666L88.5036 126.651C89.0367 126.508 89.8454 126.294 90.4822 126.183C90.5323 126.176 90.5788 126.158 90.6182 126.129C90.6611 126.104 90.6969 126.068 90.7255 126.029C90.7541 125.989 90.7756 125.943 90.7864 125.893C90.7971 125.843 90.7971 125.796 90.7899 125.746C90.7828 125.696 90.7649 125.65 90.7363 125.61C90.7112 125.567 90.6754 125.531 90.6361 125.503C90.5967 125.474 90.5502 125.453 90.5001 125.442C90.4715 125.435 90.4429 125.431 90.4142 125.431L90.4178 125.435Z" fill="#101828"/>
<path d="M90.0242 136.09C89.8882 136.101 89.7523 136.058 89.6485 135.968C89.5448 135.879 89.4804 135.754 89.4696 135.618C89.4589 135.482 89.5018 135.346 89.5913 135.242C89.6807 135.138 89.806 135.074 89.9419 135.063L92.2855 134.673C92.3535 134.662 92.4214 134.662 92.4858 134.68C92.5502 134.695 92.6146 134.723 92.6683 134.763C92.722 134.802 92.7685 134.852 92.8043 134.909C92.84 134.967 92.8651 135.031 92.8758 135.095C92.8866 135.163 92.883 135.231 92.8687 135.296C92.8544 135.36 92.8257 135.425 92.7864 135.478C92.747 135.532 92.6969 135.578 92.6397 135.614C92.5824 135.65 92.518 135.675 92.4536 135.686L90.1101 136.076C90.0815 136.083 90.0528 136.09 90.0242 136.09Z" fill="#101828"/>
<path d="M89.9814 136.226C89.8276 136.226 89.6809 136.172 89.5592 136.072C89.4268 135.958 89.3445 135.8 89.3338 135.628C89.3195 135.457 89.3732 135.289 89.4877 135.156C89.5986 135.027 89.7596 134.941 89.9313 134.931L92.2641 134.541C92.35 134.526 92.4359 134.53 92.5182 134.548C92.6005 134.566 92.6756 134.602 92.7472 134.652C92.8152 134.698 92.876 134.763 92.9189 134.834C92.9654 134.906 92.994 134.988 93.0084 135.07C93.0227 135.156 93.0191 135.238 93.0012 135.324C92.9833 135.407 92.9475 135.485 92.8974 135.553C92.8473 135.621 92.7865 135.682 92.7114 135.725C92.6398 135.772 92.5575 135.8 92.4752 135.814L90.1317 136.204C90.1102 136.212 90.0744 136.219 90.0351 136.222C90.0172 136.222 90.0029 136.222 89.985 136.222L89.9814 136.226ZM92.3679 134.802C92.3464 134.802 92.325 134.802 92.3071 134.805L89.9635 135.195C89.8526 135.206 89.7596 135.253 89.6952 135.328C89.6308 135.407 89.5986 135.503 89.6057 135.603C89.6129 135.704 89.6594 135.797 89.7381 135.861C89.8133 135.925 89.9099 135.961 90.0136 135.95C90.0315 135.95 90.0494 135.947 90.0673 135.94L92.4287 135.546C92.4788 135.539 92.5253 135.521 92.5647 135.492C92.6076 135.464 92.6434 135.432 92.672 135.392C92.7007 135.353 92.7221 135.306 92.7329 135.26C92.7436 135.21 92.7472 135.16 92.7364 135.113C92.7293 135.063 92.7114 135.017 92.6828 134.974C92.6577 134.931 92.6219 134.895 92.5826 134.866C92.5396 134.838 92.4967 134.816 92.4466 134.805C92.418 134.798 92.3894 134.795 92.3607 134.795L92.3679 134.802Z" fill="#101828"/>
<path d="M90.6611 125.567C90.6146 125.664 90.5967 125.775 90.611 125.886C90.6289 125.993 90.6754 126.093 90.7505 126.172C90.8257 126.251 90.9223 126.304 91.0296 126.322C91.2443 126.362 91.4518 126.419 91.6593 126.487C91.391 126.111 91.1727 125.7 90.9974 125.27C90.9581 125.295 90.9223 125.32 90.8829 125.342C90.7863 125.392 90.7112 125.471 90.6647 125.567H90.6611Z" fill="#667085"/>
<path d="M86.872 118.329C88.2316 118.315 89.9312 118.723 91.1011 119.839C92.7327 115.692 97.359 111.842 100.511 109.613C105.302 106.221 112.34 104.286 118.415 103.981C118.701 103.964 118.984 103.953 119.263 103.946C119.542 103.953 119.821 103.964 120.108 103.981C126.183 104.286 133.221 106.221 138.015 109.613C141.851 112.325 147.876 117.442 148.015 122.572C149.057 121.349 150.717 120.766 152.08 120.637C153.332 120.519 154.588 120.676 155.898 120.955C149.958 106.626 135.836 96.543 119.36 96.543C102.883 96.543 90.1709 105.649 83.7664 118.851C84.8075 118.544 85.8273 118.336 86.872 118.329Z" fill="#667085"/>
<path d="M92.3714 136.154C92.6934 136.48 92.9081 136.873 93.0369 137.299C97.3053 135.65 101.653 134.211 106.086 133.074C116.029 130.519 126.072 128.938 136.223 127.943C133.435 127.149 130.663 126.175 127.793 125.739C125.249 125.353 122.677 124.959 120.108 124.909C119.964 124.902 119.825 124.902 119.682 124.902C119.542 124.902 119.399 124.902 119.26 124.902C119.12 124.902 118.977 124.902 118.837 124.902C118.694 124.902 118.551 124.902 118.408 124.909C115.839 124.959 113.27 125.356 110.723 125.739C106.279 126.412 102.068 128.376 97.681 128.973C96.4538 129.142 95.1586 129.049 94.0136 128.605C94.3822 129.163 94.6362 129.793 94.7471 130.462C94.9045 131.417 94.7722 132.397 94.3643 133.267C93.9564 134.136 93.2945 134.859 92.4715 135.328C92.4036 135.367 92.3427 135.424 92.2998 135.489C92.2569 135.557 92.2247 135.632 92.2139 135.711C92.2032 135.793 92.2139 135.872 92.2354 135.95C92.2604 136.026 92.3034 136.097 92.3606 136.154H92.3714Z" fill="#667085"/>
<path d="M146.906 126.805C147.275 126.784 147.643 126.762 148.008 126.737C147.926 126.591 147.847 126.437 147.787 126.269C147.611 125.807 147.529 125.313 147.55 124.816C147.572 124.322 147.69 123.835 147.901 123.388C148.806 121.596 150.878 120.791 152.513 120.633C154.399 120.454 156.284 120.898 158.37 121.449L158.553 121.496C160.488 122.007 162.492 122.537 164.546 122.444C164.682 122.437 164.81 122.376 164.9 122.276C164.993 122.175 165.039 122.043 165.036 121.907C165.029 121.771 164.968 121.642 164.871 121.553C164.771 121.46 164.639 121.413 164.503 121.417C162.603 121.503 160.681 120.991 158.817 120.501L158.635 120.451C156.449 119.875 154.47 119.413 152.42 119.606C149.983 119.843 147.905 121.106 146.989 122.92C146.71 123.492 146.552 124.118 146.527 124.755C146.498 125.392 146.602 126.029 146.831 126.623C146.853 126.68 146.881 126.737 146.906 126.794V126.805Z" fill="#101828"/>
<path d="M146.821 126.945L146.756 126.791C146.738 126.755 146.721 126.716 146.706 126.68C146.47 126.065 146.366 125.417 146.391 124.759C146.42 124.1 146.577 123.463 146.867 122.87C147.801 121.02 149.923 119.721 152.409 119.481C154.481 119.284 156.47 119.75 158.671 120.329L158.853 120.379C160.714 120.869 162.624 121.374 164.496 121.292C164.671 121.284 164.836 121.345 164.964 121.463C165.09 121.578 165.165 121.739 165.176 121.911C165.183 122.082 165.122 122.254 165.004 122.379C164.889 122.505 164.728 122.58 164.557 122.59C162.492 122.683 160.488 122.154 158.549 121.642L158.342 121.589C156.263 121.041 154.392 120.601 152.531 120.776C150.932 120.927 148.907 121.71 148.026 123.456C147.823 123.889 147.708 124.351 147.69 124.83C147.672 125.31 147.747 125.782 147.919 126.229C147.976 126.379 148.044 126.526 148.134 126.676L148.241 126.866L146.824 126.952L146.821 126.945ZM153.397 119.707C153.079 119.707 152.757 119.721 152.434 119.753C150.041 119.986 148.001 121.227 147.111 122.991C146.839 123.549 146.688 124.15 146.663 124.773C146.635 125.396 146.735 126.007 146.96 126.587C146.971 126.616 146.982 126.641 146.992 126.666L147.794 126.616C147.744 126.515 147.701 126.419 147.665 126.319C147.483 125.836 147.4 125.331 147.422 124.812C147.443 124.297 147.565 123.8 147.787 123.331C148.717 121.485 150.835 120.658 152.51 120.501C154.417 120.318 156.309 120.766 158.413 121.32L158.596 121.367C160.539 121.878 162.528 122.401 164.546 122.311C164.646 122.308 164.743 122.261 164.807 122.19C164.875 122.115 164.911 122.018 164.907 121.918C164.904 121.818 164.857 121.725 164.786 121.657C164.71 121.589 164.614 121.553 164.514 121.556C162.599 121.642 160.671 121.134 158.803 120.64L158.603 120.587C156.775 120.104 155.093 119.703 153.397 119.703V119.707Z" fill="#101828"/>
<path d="M91.0011 120.751C91.2659 121.17 91.4412 121.639 91.5199 122.129C91.5986 122.619 91.5771 123.116 91.4591 123.599C91.2587 124.401 90.8043 125.027 90.1746 125.367C90.0816 125.417 90.0028 125.496 89.9563 125.592C89.9098 125.689 89.8919 125.796 89.9098 125.904C89.9277 126.007 89.9778 126.107 90.0529 126.183C90.1281 126.258 90.2283 126.308 90.332 126.326C91.2659 126.48 92.1281 126.92 92.8008 127.582C93.4734 128.244 93.9278 129.099 94.096 130.032C94.2642 130.963 94.1425 131.922 93.7454 132.78C93.3482 133.639 92.6935 134.351 91.8741 134.823C91.8061 134.863 91.7489 134.92 91.7024 134.984C91.6594 135.049 91.6308 135.124 91.6201 135.206C91.6093 135.288 91.6201 135.364 91.6451 135.439C91.6702 135.514 91.7131 135.582 91.7703 135.636C92.2069 136.061 92.4573 136.609 92.5611 137.192C92.8867 137.063 93.2194 136.945 93.545 136.82C93.4305 136.301 93.223 135.807 92.901 135.367C94.5647 134.122 95.4771 131.893 95.105 129.843C94.7615 127.939 93.3267 126.29 91.5306 125.596C91.9814 125.102 92.2999 124.497 92.4537 123.846C92.6112 123.227 92.6362 122.583 92.5324 121.954C92.4287 121.324 92.1961 120.723 91.8526 120.186C90.7256 118.497 88.5073 117.488 86.0635 117.549C83.999 117.603 82.0956 118.297 79.9953 119.134L79.82 119.202C78.031 119.914 76.1812 120.648 74.2885 120.794C74.2205 120.798 74.1561 120.819 74.0953 120.848C74.0345 120.88 73.9808 120.919 73.9379 120.973C73.8949 121.023 73.8592 121.084 73.8377 121.148C73.8162 121.213 73.8091 121.281 73.8126 121.345C73.8162 121.41 73.8377 121.478 73.8663 121.538C73.8949 121.599 73.9379 121.653 73.9915 121.696C74.0416 121.739 74.1025 121.775 74.1669 121.796C74.2313 121.818 74.2992 121.825 74.3672 121.821C76.4174 121.667 78.3423 120.898 80.2029 120.161L80.3782 120.089C82.3818 119.292 84.1958 118.626 86.0886 118.579C87.7308 118.537 89.8848 119.088 90.9975 120.762L91.0011 120.751Z" fill="#101828"/>
<path d="M92.4643 137.374L92.4357 137.213C92.3319 136.609 92.0779 136.111 91.6843 135.732C91.6128 135.661 91.5591 135.575 91.5233 135.482C91.4911 135.385 91.4804 135.285 91.4911 135.185C91.5019 135.085 91.5376 134.988 91.5949 134.906C91.6486 134.823 91.7237 134.752 91.8096 134.702C92.611 134.24 93.2372 133.553 93.6236 132.716C94.0136 131.879 94.1317 130.956 93.9635 130.05C93.7989 129.142 93.366 128.319 92.7076 127.675C92.0493 127.027 91.2228 126.605 90.3104 126.455C90.178 126.433 90.0564 126.372 89.9562 126.276C89.8596 126.183 89.7952 126.057 89.7737 125.921C89.7522 125.789 89.7737 125.65 89.831 125.528C89.8918 125.406 89.9848 125.306 90.1065 125.242C90.704 124.92 91.1333 124.322 91.3265 123.56C91.441 123.095 91.4625 122.619 91.3838 122.147C91.3086 121.674 91.1405 121.227 90.8829 120.823C89.7988 119.199 87.6985 118.662 86.092 118.705C84.2136 118.751 82.4139 119.413 80.4281 120.204L80.2528 120.275C78.378 121.02 76.4495 121.789 74.3778 121.946C74.292 121.954 74.2097 121.943 74.1274 121.918C74.0451 121.889 73.9699 121.846 73.9055 121.793C73.8411 121.735 73.7875 121.671 73.7481 121.592C73.7087 121.513 73.6873 121.431 73.6801 121.349C73.673 121.263 73.6837 121.177 73.7123 121.098C73.7374 121.016 73.7803 120.945 73.8376 120.877C73.8948 120.812 73.9628 120.759 74.0379 120.719C74.1166 120.68 74.1989 120.658 74.2812 120.651C76.1739 120.504 78.0059 119.775 79.7734 119.066L79.9487 118.998C82.0597 118.157 83.9774 117.46 86.0634 117.406C88.5536 117.345 90.8185 118.376 91.967 120.104C92.3248 120.662 92.5609 121.274 92.6683 121.925C92.7756 122.576 92.747 123.234 92.586 123.875C92.4429 124.483 92.1566 125.056 91.7595 125.535C93.5484 126.297 94.9045 127.957 95.2408 129.814C95.6129 131.861 94.7506 134.083 93.0905 135.392C93.3695 135.804 93.5663 136.272 93.6808 136.788L93.7059 136.902L93.2085 137.088C93.0082 137.163 92.8114 137.239 92.611 137.314L92.4572 137.374H92.4643ZM86.2673 118.433C87.9203 118.433 90.0099 119.016 91.1154 120.676C91.3909 121.116 91.5734 121.596 91.6557 122.104C91.738 122.612 91.7165 123.127 91.5913 123.628C91.3838 124.465 90.9008 125.124 90.2388 125.481C90.1673 125.521 90.1136 125.578 90.0778 125.65C90.0421 125.721 90.0313 125.8 90.0456 125.879C90.0599 125.957 90.0957 126.029 90.153 126.086C90.2102 126.143 90.2818 126.179 90.3569 126.19C91.323 126.351 92.2031 126.798 92.9008 127.481C93.5985 128.168 94.0601 129.041 94.2318 130.004C94.4072 130.966 94.2819 131.943 93.8705 132.834C93.459 133.721 92.7935 134.448 91.9455 134.938C91.8954 134.967 91.8525 135.009 91.8203 135.056C91.7881 135.102 91.7666 135.16 91.7595 135.217C91.7523 135.274 91.7595 135.335 91.7774 135.392C91.7952 135.446 91.8275 135.496 91.8704 135.539C92.264 135.918 92.5359 136.423 92.6683 137.006C92.8185 136.949 92.9688 136.891 93.1191 136.838L93.3946 136.734C93.2729 136.255 93.0762 135.822 92.8007 135.446L92.7219 135.339L92.8293 135.26C94.4787 134.026 95.3446 131.857 94.9796 129.868C94.6505 128.04 93.2801 126.415 91.4875 125.721L91.3051 125.65L91.4375 125.503C91.874 125.027 92.1817 124.444 92.3284 123.814C92.4822 123.206 92.5073 122.59 92.4071 121.975C92.3069 121.36 92.0851 120.784 91.7452 120.258C90.6467 118.608 88.4749 117.621 86.0741 117.681C84.0347 117.735 82.1384 118.426 80.0524 119.256L79.8771 119.324C78.174 120.004 76.2419 120.776 74.3063 120.927C74.2562 120.93 74.2097 120.945 74.1631 120.966C74.1202 120.987 74.0809 121.02 74.0487 121.059C74.0165 121.095 73.9914 121.141 73.9771 121.188C73.9628 121.234 73.9556 121.284 73.9592 121.335C73.9628 121.385 73.9771 121.431 73.9986 121.478C74.02 121.521 74.0522 121.56 74.088 121.592C74.1238 121.624 74.1703 121.649 74.2168 121.664C74.2633 121.678 74.3134 121.685 74.3635 121.682C76.3922 121.528 78.3028 120.766 80.1526 120.032L80.3351 119.961C82.3459 119.159 84.1707 118.49 86.092 118.44C86.1493 118.44 86.2101 118.44 86.2709 118.44L86.2673 118.433Z" fill="#101828"/>
<path d="M57.186 140.852C57.2969 141.049 57.4471 141.217 57.6296 141.353C60.9535 143.657 64.7783 145.432 67.8804 146.616C70.1095 145.636 72.3672 144.709 74.6392 143.829C74.5569 143.793 74.4746 143.765 74.3887 143.74C67.5405 141.958 62.052 138.917 59.9302 137.639C59.6011 137.439 59.2182 137.353 58.8354 137.396C58.4525 137.439 58.0983 137.607 57.8228 137.879C57.508 138.172 57.2647 138.537 57.1216 138.945C56.9749 139.353 56.9283 139.786 56.982 140.215C57.0035 140.441 57.075 140.655 57.186 140.852Z" fill="#FFBC00"/>
<path d="M56.7349 141.128C56.8851 141.385 57.0891 141.611 57.3288 141.79C60.5024 143.994 64.1412 145.722 67.1932 146.92C67.6476 146.72 68.0984 146.513 68.5564 146.316C65.4007 145.146 61.3862 143.321 57.9227 140.92C57.8011 140.827 57.7045 140.709 57.6294 140.577C57.5578 140.444 57.5149 140.298 57.5006 140.144C57.454 139.797 57.4934 139.443 57.615 139.113C57.7331 138.784 57.9335 138.487 58.1911 138.251C58.3449 138.097 58.5417 137.99 58.7528 137.943C58.9639 137.897 59.1893 137.908 59.3933 137.976C59.4827 138.008 59.565 138.047 59.6437 138.097C61.676 139.321 67.0715 142.323 73.816 144.14C74.299 143.951 74.7856 143.765 75.2686 143.579C75.0432 143.418 74.7892 143.296 74.5173 143.224C67.7084 141.453 62.2342 138.408 60.1983 137.181C59.769 136.916 59.2645 136.806 58.7671 136.863C58.2662 136.92 57.8011 137.145 57.4433 137.5C57.0712 137.85 56.785 138.287 56.6132 138.77C56.4415 139.253 56.3842 139.768 56.4522 140.28C56.4844 140.577 56.5774 140.867 56.7277 141.124L56.7349 141.128Z" fill="#FFBC00"/>
<path d="M53.6545 146.577C53.7654 146.774 53.9157 146.942 54.0981 147.078C55.8299 148.28 57.8407 149.411 59.8765 150.42C61.6512 149.511 63.4401 148.634 65.2506 147.801C61.1717 146.08 57.7584 144.187 56.3987 143.368C56.0696 143.167 55.6867 143.081 55.3039 143.124C54.9211 143.167 54.5668 143.335 54.2913 143.607C53.9765 143.901 53.7368 144.269 53.5901 144.673C53.4434 145.081 53.3968 145.514 53.4505 145.944C53.472 146.169 53.5435 146.384 53.6545 146.58V146.577Z" fill="#FFBC00"/>
<path d="M53.1964 146.86C53.3467 147.117 53.5506 147.343 53.7903 147.522C55.4433 148.666 57.3468 149.751 59.2789 150.727C59.6689 150.523 60.0625 150.323 60.456 150.123C58.3128 149.074 56.1875 147.894 54.395 146.649C54.2733 146.555 54.1732 146.441 54.1016 146.305C54.03 146.173 53.9835 146.026 53.9728 145.872C53.9263 145.525 53.9656 145.171 54.0873 144.842C54.2089 144.512 54.4057 144.216 54.6633 143.979C54.8172 143.829 55.0104 143.722 55.2215 143.672C55.4326 143.622 55.6544 143.632 55.8584 143.704C55.9478 143.736 56.0337 143.775 56.116 143.826C56.3378 143.958 59.8907 146.087 64.5886 148.108C65.0251 147.904 65.458 147.697 65.8945 147.5C61.9516 145.869 58.4488 143.994 56.6634 142.917C56.2341 142.656 55.7296 142.541 55.2322 142.602C54.7349 142.663 54.2662 142.885 53.9084 143.235C53.5363 143.586 53.25 144.022 53.0783 144.505C52.9066 144.988 52.8493 145.507 52.9173 146.015C52.9495 146.312 53.0425 146.602 53.1928 146.86H53.1964Z" fill="#FFBC00"/>
<path d="M135.736 38.3406C131.875 30.6158 126.719 25.9788 118.082 25.9394C110.551 25.9036 103.341 30.4083 99.1228 39.1349C97.7417 41.9901 96.2247 46.5949 92.4142 47.0135C87.4086 47.5609 83.5409 41.5643 75.766 44.3444C71.8696 45.7326 68.7819 49.2533 67.7264 53.257C66.6673 57.2572 68.077 61.955 71.5118 64.2628C74.918 66.5527 79.5014 66.1913 83.3512 64.7637C80.5354 67.8157 81.0506 73.1432 84.1098 75.9483C87.1689 78.7535 92.1172 78.986 95.7023 76.8893C97.7131 75.7158 99.842 73.8266 102.028 74.6281C103.381 75.1254 104.157 76.4993 105.148 77.5513C106.111 78.5853 107.402 79.2579 108.801 79.4476C110.748 79.6909 112.068 78.6855 112.74 77.4547C112.74 77.4547 113.134 70.7174 112.297 69.6011C110.311 66.9462 106.236 68.771 104.386 65.2896C103.409 63.4577 103.513 62.345 104.665 60.4773C106.583 58.4343 109.195 59.8869 106.407 52.0584C106.701 51.8437 124.422 36.0221 124.422 36.0221C124.422 36.0221 134.226 38.1044 135.743 38.3442L135.736 38.3406Z" fill="#101828"/>
<path d="M109.349 79.9699C109.145 79.9699 108.937 79.9556 108.733 79.9306C107.22 79.7266 105.824 79.0039 104.783 77.884C104.504 77.587 104.243 77.2686 103.989 76.9609C103.334 76.1594 102.715 75.4045 101.853 75.0896C100.307 74.5243 98.6865 75.5691 97.1158 76.5816C96.7294 76.8285 96.3322 77.0861 95.9422 77.3115C94.2749 78.2776 92.3822 78.7856 90.4572 78.7856C87.9741 78.7856 85.5519 77.9484 83.7736 76.3097C82.117 74.7927 81.1116 72.5493 81.015 70.1628C80.9292 68.61 81.2905 67.0643 82.0526 65.7118C77.9022 66.9069 74.0202 66.5491 71.2365 64.6742C67.7802 62.3486 66.1022 57.4969 67.2507 53.139C68.3599 48.9349 71.6373 45.3033 75.598 43.89C80.4426 42.1618 83.8273 43.7075 86.8185 45.0707C88.7863 45.9688 90.4859 46.7452 92.3571 46.5376C95.3769 46.2013 96.894 42.8631 98.1033 40.1796C98.3037 39.7396 98.4933 39.3209 98.6829 38.9238C100.747 34.6553 103.653 31.1704 107.088 28.8483C110.326 26.63 114.161 25.4492 118.086 25.4528C122.376 25.4743 125.943 26.5906 128.992 28.8698C131.732 30.9163 134.083 33.9469 136.173 38.1223C136.212 38.2046 136.23 38.2941 136.223 38.3835C136.216 38.473 136.183 38.5588 136.13 38.6304C136.076 38.7019 136.004 38.7592 135.922 38.7914C135.84 38.8272 135.747 38.8343 135.661 38.82C134.266 38.5982 126.111 36.8736 124.559 36.5445C121.464 39.3066 109.027 50.409 106.973 52.2015C108.977 57.9549 108.025 58.8637 106.318 59.8512C105.853 60.0945 105.427 60.4022 105.052 60.7671C103.996 62.4917 103.946 63.422 104.816 65.0499C105.706 66.7244 107.188 67.0285 108.751 67.3434C110.182 67.6332 111.664 67.9337 112.687 69.2969C113.589 70.4955 113.295 76.3169 113.227 77.4725C113.224 77.5441 113.202 77.6157 113.17 77.6801C112.809 78.3778 112.258 78.9574 111.585 79.3653C110.912 79.7696 110.139 79.9771 109.352 79.9699H109.349ZM100.944 73.9483C101.37 73.9483 101.792 74.0234 102.193 74.1701C103.309 74.578 104.039 75.476 104.751 76.3419C105.005 76.6532 105.245 76.9466 105.499 77.2149C106.383 78.1702 107.571 78.7856 108.859 78.961C110.866 79.2114 111.875 77.9591 112.258 77.3115C112.437 74.1164 112.358 70.4956 111.903 69.8945C111.102 68.8247 109.864 68.5742 108.551 68.3094C106.912 67.9803 105.059 67.601 103.942 65.5151C102.898 63.5579 102.966 62.2663 104.236 60.2161C104.254 60.1875 104.275 60.1625 104.297 60.1374C104.744 59.6866 105.256 59.3037 105.817 59.0104C106.504 58.6132 106.955 58.352 107.084 57.5828C107.249 56.5952 106.884 54.8886 105.932 52.2158C105.896 52.1157 105.896 52.0083 105.925 51.9081C105.957 51.808 106.018 51.7185 106.104 51.6577C106.483 51.3536 118.032 41.0527 124.083 35.65C124.14 35.5999 124.208 35.5605 124.283 35.5426C124.358 35.5247 124.437 35.5212 124.512 35.5355C124.594 35.5534 131.94 37.1133 134.838 37.6751C130.734 29.9396 125.528 26.4582 118.079 26.4224C110.397 26.3867 103.488 31.2133 99.5595 39.3424C99.3735 39.7252 99.191 40.1367 98.9906 40.5732C97.6739 43.4821 96.0352 47.1065 92.4609 47.4965C90.3213 47.7327 88.4178 46.8668 86.407 45.9473C83.4516 44.5984 80.3925 43.2066 75.9236 44.7988C72.2562 46.1047 69.2221 49.4716 68.1917 53.3751C67.1469 57.3466 68.6532 61.7475 71.7768 63.8513C74.6248 65.7655 78.7788 65.9301 83.1725 64.3021C83.2763 64.2628 83.3872 64.2628 83.491 64.295C83.5947 64.3272 83.6842 64.3952 83.745 64.4882C83.8058 64.5776 83.8345 64.6886 83.8273 64.7959C83.8201 64.9068 83.7736 65.007 83.6985 65.0893C82.5142 66.3738 81.9024 68.1627 81.9847 70.1127C82.0741 72.2452 82.9614 74.2417 84.4284 75.5834C87.2049 78.1345 91.9421 78.5173 95.4449 76.4636C95.817 76.2453 96.1891 76.0056 96.5827 75.7515C97.9172 74.8928 99.3914 73.9411 100.937 73.9411L100.944 73.9483Z" fill="#101828"/>
<path d="M112.336 89.7127C112.301 89.7127 112.265 89.7091 112.229 89.702C112.165 89.6876 112.107 89.6626 112.054 89.6232C112 89.5875 111.957 89.541 111.921 89.4837C111.886 89.43 111.864 89.3692 111.853 89.3048C111.843 89.2404 111.846 89.176 111.86 89.1152C112.014 88.3316 112.34 74.6424 112.343 71.9482C112.343 69.8408 111.975 69.5045 111.063 68.8926C110.44 68.474 109.656 68.3345 108.83 68.1949C108.372 68.127 107.918 68.0339 107.47 67.9159C105.649 67.3935 104.189 66.0446 103.671 64.3952C103.095 62.574 103.796 60.463 105.306 59.4898C105.52 59.3574 105.742 59.2322 105.968 59.1248C106.336 58.9388 106.683 58.7599 106.916 58.4987C107.51 57.8261 107.313 56.7133 107.009 55.6113C106.755 54.6846 106.433 53.7794 106.046 52.9028C105.646 51.9833 105.313 51.0387 105.044 50.0727C105.009 49.9474 105.027 49.815 105.091 49.7005C105.155 49.5861 105.263 49.5038 105.384 49.4716C105.51 49.4358 105.642 49.4537 105.756 49.5181C105.867 49.5825 105.953 49.6898 105.985 49.815C106.243 50.7382 106.569 51.6434 106.955 52.5236C107.356 53.4431 107.692 54.3877 107.961 55.3537C108.318 56.6525 108.562 58.1194 107.656 59.1463C107.302 59.5506 106.851 59.776 106.418 59.9979C106.211 60.1016 106.018 60.2018 105.842 60.3127C104.69 61.0534 104.168 62.6885 104.612 64.1018C105.03 65.4435 106.24 66.5455 107.749 66.9784C108.164 67.0894 108.583 67.1752 109.005 67.2396C109.896 67.3935 110.819 67.5509 111.614 68.0876C112.884 68.9392 113.331 69.6512 113.327 71.9554C113.327 74.1737 113.009 88.4998 112.819 89.337C112.794 89.4443 112.733 89.5445 112.648 89.6125C112.558 89.6841 112.451 89.7198 112.34 89.7198L112.336 89.7127Z" fill="#101828"/>
<path d="M125.621 70.9571C125.492 70.9571 125.367 70.907 125.274 70.8176C125.181 70.7245 125.127 70.6029 125.127 70.4741C125.127 70.3453 125.178 70.2201 125.267 70.127C125.356 70.034 125.482 69.9839 125.61 69.9803C129.124 69.9159 132.541 68.8139 135.435 66.8139C136.86 65.8228 137.886 64.7887 138.573 63.6474C139.525 62.0695 139.969 59.9907 139.915 57.4683C139.776 51.833 136.423 42.3157 135.579 40.3908C135.55 40.3335 135.536 40.2691 135.536 40.2047C135.536 40.1403 135.543 40.0759 135.568 40.0151C135.593 39.9542 135.625 39.9006 135.672 39.8505C135.715 39.804 135.772 39.7646 135.829 39.7396C135.89 39.7145 135.951 39.7002 136.019 39.7002C136.083 39.7002 136.148 39.7109 136.208 39.736C136.269 39.761 136.323 39.7968 136.369 39.8433C136.416 39.8898 136.452 39.9435 136.477 40.0043C137.335 41.9615 140.752 51.672 140.895 57.4504C140.963 60.1625 140.466 62.4201 139.418 64.1554C138.659 65.4113 137.539 66.5491 135.997 67.6189C132.945 69.7263 129.342 70.8891 125.632 70.9571H125.621Z" fill="#101828"/>
<path d="M137.683 88.5463C137.557 88.5463 137.436 88.4962 137.343 88.4103C137.253 88.3209 137.2 88.2028 137.192 88.0776C137.078 84.997 136.946 78.6962 136.946 66.1913C136.946 66.0625 136.996 65.9373 137.089 65.8442C137.182 65.7512 137.307 65.7011 137.436 65.7011C137.565 65.7011 137.69 65.7512 137.783 65.8442C137.876 65.9373 137.926 66.0625 137.926 66.1913C137.926 78.6819 138.065 84.9683 138.173 88.0418C138.173 88.1062 138.166 88.1706 138.144 88.2314C138.123 88.2923 138.087 88.3459 138.044 88.3924C138.001 88.4389 137.947 88.4783 137.89 88.5033C137.833 88.532 137.768 88.5463 137.704 88.5463H137.686H137.683Z" fill="#101828"/>
<path d="M109.531 65.0893C108.436 65.0893 107.17 64.4524 106.633 63.5507C106.579 63.4398 106.569 63.3146 106.604 63.1965C106.64 63.0785 106.719 62.9783 106.823 62.9175C106.93 62.8566 107.055 62.8352 107.173 62.8602C107.295 62.8852 107.399 62.9568 107.47 63.057C107.925 63.8227 109.238 64.2735 109.928 64.0624C109.993 64.0409 110.057 64.0302 110.121 64.0374C110.186 64.0409 110.25 64.0588 110.311 64.091C110.368 64.1196 110.422 64.1626 110.465 64.2127C110.508 64.2628 110.54 64.3236 110.558 64.3844C110.576 64.4488 110.583 64.5132 110.576 64.5812C110.569 64.6456 110.547 64.71 110.515 64.7673C110.483 64.8245 110.44 64.8746 110.386 64.9139C110.333 64.9533 110.275 64.9819 110.211 64.9998C109.989 65.0642 109.764 65.0928 109.535 65.0893H109.531Z" fill="#101828"/>
<path d="M128.784 56.2696C128.669 56.2696 128.562 56.2303 128.473 56.1587C128.387 56.0872 128.326 55.987 128.305 55.8725C128.283 55.7616 128.305 55.6471 128.355 55.5469C128.408 55.4467 128.498 55.368 128.601 55.3286C129.185 55.0961 129.922 54.6775 130.136 53.9941C130.176 53.8366 130.179 53.6685 130.147 53.511C130.111 53.35 130.043 53.1998 129.94 53.071C129.886 52.9958 129.814 52.9314 129.732 52.8885C129.65 52.8456 129.557 52.8241 129.464 52.8277C129.335 52.8455 129.21 52.8778 129.092 52.9207C128.813 53.0101 128.462 53.1246 128.076 53.0173C127.353 52.8169 127.113 52.0155 127.009 51.6756L125.521 46.7416C125.492 46.6199 125.51 46.4911 125.571 46.3802C125.632 46.2729 125.736 46.1906 125.854 46.1548C125.975 46.119 126.104 46.1298 126.215 46.187C126.326 46.2442 126.412 46.3409 126.455 46.4589L127.94 51.3822C127.986 51.536 128.129 52.0083 128.333 52.0656C128.491 52.0727 128.644 52.0441 128.788 51.9833C128.981 51.9153 129.178 51.8652 129.381 51.8437C129.636 51.8294 129.886 51.8759 130.115 51.9833C130.344 52.0906 130.544 52.2516 130.698 52.452C130.899 52.706 131.038 53.003 131.102 53.3214C131.167 53.6399 131.153 53.9655 131.067 54.2767C130.809 55.1068 130.079 55.783 128.963 56.2339C128.906 56.2589 128.845 56.2732 128.784 56.2768V56.2696Z" fill="#101828"/>
<path d="M120.476 55.6077C120.369 55.6077 120.261 55.572 120.175 55.5076C120.09 55.4431 120.029 55.3501 120 55.2428C119.971 55.139 119.982 55.0281 120.025 54.9279C120.068 54.8277 120.143 54.7454 120.236 54.6918L122.576 53.3894C122.691 53.325 122.823 53.3107 122.948 53.3465C123.074 53.3822 123.177 53.4645 123.242 53.579C123.306 53.6935 123.32 53.8259 123.285 53.9511C123.249 54.0764 123.167 54.1801 123.052 54.2445L120.712 55.5469C120.641 55.5863 120.558 55.6077 120.476 55.6077Z" fill="#FFBC00"/>
<path d="M125.074 62.5919C124.179 62.5919 123.349 62.4202 122.859 62.116C122.805 62.0838 122.755 62.0373 122.719 61.9872C122.68 61.9335 122.655 61.8763 122.637 61.8119C122.623 61.7475 122.619 61.6831 122.63 61.6223C122.641 61.5579 122.662 61.497 122.694 61.4434C122.727 61.3897 122.773 61.3396 122.823 61.3038C122.877 61.2645 122.934 61.2394 122.995 61.2215C123.059 61.2072 123.124 61.2036 123.188 61.2144C123.253 61.2251 123.313 61.2466 123.367 61.2788C124.015 61.6759 125.99 61.7833 127.203 61.1643C127.26 61.1357 127.324 61.1142 127.389 61.1106C127.453 61.1035 127.517 61.1106 127.582 61.1321C127.643 61.15 127.7 61.1822 127.75 61.2251C127.8 61.268 127.84 61.3181 127.868 61.3754C127.897 61.4326 127.915 61.497 127.918 61.5614C127.922 61.6258 127.918 61.6902 127.893 61.7511C127.872 61.8119 127.84 61.8691 127.797 61.9192C127.754 61.9693 127.704 62.0087 127.643 62.0373C126.891 62.4237 125.95 62.5919 125.067 62.5919H125.074Z" fill="#101828"/>
<path d="M140.709 58.3842C140.602 58.3842 140.495 58.3484 140.409 58.284C140.323 58.2196 140.262 58.1266 140.233 58.0193C140.205 57.9155 140.215 57.8046 140.258 57.7044C140.301 57.6042 140.373 57.5219 140.469 57.4683C141.539 56.8636 143.543 54.2445 142.137 51.3428C141.546 50.1263 140.094 49.9582 139.446 50.205C139.385 50.2301 139.321 50.2444 139.253 50.2444C139.185 50.2444 139.121 50.2337 139.06 50.205C138.999 50.18 138.942 50.1406 138.899 50.0941C138.852 50.0476 138.816 49.9904 138.791 49.9295C138.766 49.8687 138.756 49.8007 138.759 49.7363C138.759 49.6719 138.777 49.604 138.806 49.5467C138.834 49.4859 138.874 49.4322 138.924 49.3893C138.974 49.3463 139.031 49.3106 139.096 49.2927C140.208 48.8741 142.183 49.1961 143.017 50.9171C144.674 54.3411 142.452 57.4826 140.949 58.3198C140.877 58.3628 140.791 58.3842 140.709 58.3842Z" fill="#101828"/>
<path d="M120.125 48.6272H120.107C119.989 48.6701 119.921 48.7954 119.957 48.9134L120.626 51.1103C120.662 51.2284 120.787 51.2963 120.905 51.2606H120.923C121.041 51.2176 121.109 51.0924 121.073 50.9743L120.408 48.7775C120.372 48.6594 120.247 48.5914 120.129 48.6272H120.125Z" fill="#101828"/>
<path d="M120.841 52.1049C120.612 52.1049 120.39 52.0298 120.208 51.8939C120.025 51.7579 119.889 51.5683 119.825 51.35L119.156 49.146C119.073 48.8776 119.102 48.5843 119.238 48.3374C119.37 48.0905 119.596 47.9044 119.864 47.8221H119.882C120.15 47.7399 120.444 47.7685 120.691 47.9009C120.941 48.0332 121.127 48.2587 121.206 48.5306L121.875 50.7274C121.957 50.9958 121.929 51.2892 121.793 51.5361C121.66 51.7829 121.435 51.969 121.166 52.0513H121.149C121.048 52.0835 120.945 52.1014 120.841 52.1014V52.1049Z" fill="#101828"/>
<path d="M132.387 51.4001C132.258 51.4036 132.133 51.3607 132.036 51.2713C131.94 51.1818 131.882 51.0602 131.879 50.9314C131.872 50.8026 131.922 50.6737 132.008 50.5807C132.097 50.4841 132.219 50.4269 132.348 50.4233L135.024 50.205C135.088 50.2015 135.153 50.205 135.213 50.2265C135.274 50.2444 135.332 50.2766 135.382 50.3195C135.432 50.3625 135.471 50.4126 135.5 50.4698C135.528 50.527 135.546 50.5879 135.553 50.6523C135.561 50.7167 135.553 50.7811 135.532 50.8419C135.51 50.9027 135.482 50.96 135.439 51.0101C135.396 51.0602 135.346 51.0995 135.289 51.1281C135.231 51.1568 135.171 51.1747 135.106 51.1818L132.437 51.4001H132.39H132.387Z" fill="#FFBC00"/>
<path d="M132.534 47.722H132.552C132.67 47.679 132.738 47.5538 132.702 47.4357L132.036 45.2389C132.001 45.1208 131.875 45.0528 131.754 45.0886H131.736C131.618 45.1315 131.55 45.2567 131.585 45.3748L132.251 47.5717C132.287 47.6898 132.412 47.7577 132.53 47.722H132.534Z" fill="#101828"/>
<path d="M132.469 48.5735C132.241 48.5735 132.019 48.4983 131.836 48.366C131.654 48.23 131.518 48.0404 131.453 47.8221L130.784 45.6217C130.745 45.4893 130.731 45.3498 130.745 45.2102C130.759 45.0707 130.799 44.9383 130.867 44.8131C130.931 44.6914 131.02 44.5805 131.131 44.4911C131.239 44.4016 131.364 44.3372 131.496 44.2943H131.514C131.786 44.212 132.076 44.2442 132.323 44.3766C132.57 44.5089 132.756 44.7344 132.838 45.0063L133.507 47.1924C133.546 47.3248 133.561 47.4679 133.55 47.6039C133.536 47.7434 133.496 47.8794 133.428 48.001C133.364 48.1227 133.275 48.2336 133.164 48.323C133.056 48.4125 132.931 48.4769 132.799 48.5198H132.781C132.681 48.552 132.577 48.5735 132.473 48.5771L132.469 48.5735Z" fill="#101828"/>
<path d="M119.041 62.76C118.923 62.76 118.809 62.7171 118.719 62.642C118.63 62.5633 118.573 62.4595 118.555 62.3414C118.512 61.9801 118.562 61.6151 118.698 61.2788C118.837 60.9425 119.059 60.6491 119.345 60.4236C119.396 60.3807 119.453 60.3521 119.517 60.3342C119.582 60.3163 119.646 60.3092 119.71 60.3163C119.775 60.3235 119.839 60.3449 119.896 60.3771C119.954 60.4093 120.004 60.4523 120.043 60.5059C120.083 60.5596 120.111 60.6169 120.129 60.6813C120.147 60.7457 120.151 60.8101 120.14 60.8745C120.129 60.9389 120.108 61.0033 120.072 61.0569C120.036 61.1142 119.993 61.1607 119.939 61.2001C119.789 61.3181 119.671 61.4756 119.6 61.6545C119.528 61.8334 119.499 62.0266 119.521 62.2162C119.532 62.2806 119.524 62.345 119.51 62.4058C119.492 62.4667 119.464 62.5275 119.428 62.5776C119.392 62.6277 119.342 62.6706 119.285 62.7028C119.231 62.735 119.167 62.7565 119.106 62.7636H119.041V62.76Z" fill="#101828"/>
<path d="M137.561 65.6976L137.436 69.5009C133.987 70.0376 130.502 70.3346 127.013 70.3882C127.013 70.3882 133.063 70.2344 137.561 65.6976Z" fill="#101828"/>
<path d="M127.013 70.8784C126.948 70.8784 126.884 70.8677 126.823 70.8426C126.762 70.8176 126.709 70.7818 126.662 70.7389C126.616 70.6924 126.58 70.6387 126.555 70.5815C126.53 70.5242 126.515 70.4598 126.515 70.3954C126.515 70.331 126.526 70.2666 126.551 70.2058C126.576 70.1449 126.608 70.0913 126.655 70.0448C126.701 69.9983 126.755 69.9625 126.812 69.9374C126.87 69.9124 126.934 69.8981 126.998 69.8981C127.056 69.8981 132.913 69.6941 137.21 65.3505C137.278 65.2789 137.367 65.2324 137.464 65.2145C137.56 65.1967 137.661 65.2074 137.75 65.2467C137.84 65.2861 137.918 65.3505 137.968 65.4328C138.022 65.5151 138.047 65.6117 138.044 65.7119L137.918 69.5188C137.915 69.6297 137.872 69.7371 137.797 69.8229C137.721 69.9088 137.621 69.9625 137.51 69.9839C134.036 70.5206 130.526 70.8212 127.013 70.8784ZM137.035 66.8604C135.686 68.0161 134.161 68.9463 132.516 69.6083C134.662 69.4186 136.262 69.1896 136.963 69.0859L137.035 66.8604Z" fill="#101828"/>
<path d="M117.32 46.4696H117.288C117.224 46.4661 117.163 46.4482 117.106 46.4196C117.048 46.3909 116.995 46.3516 116.952 46.3051C116.909 46.2585 116.877 46.2013 116.855 46.1405C116.834 46.0797 116.827 46.0152 116.83 45.9508C116.873 45.3247 117.048 44.7129 117.342 44.1619C117.639 43.6073 118.047 43.1243 118.544 42.7414C118.594 42.7021 118.655 42.6734 118.716 42.6591C118.777 42.6412 118.841 42.6377 118.905 42.6484C118.97 42.6556 119.031 42.677 119.084 42.7092C119.142 42.7414 119.188 42.7844 119.227 42.8345C119.267 42.8845 119.295 42.9454 119.31 43.0062C119.328 43.067 119.331 43.1314 119.32 43.1958C119.313 43.2602 119.292 43.3211 119.26 43.3747C119.227 43.4284 119.185 43.4785 119.134 43.5178C118.748 43.8148 118.43 44.1905 118.201 44.6234C117.972 45.0528 117.836 45.5286 117.803 46.0152C117.796 46.1405 117.739 46.255 117.65 46.3408C117.56 46.4267 117.438 46.4732 117.317 46.4732L117.32 46.4696Z" fill="#101828"/>
<path d="M132.913 41.6216C132.838 41.6216 132.766 41.6037 132.698 41.5715C132.631 41.5393 132.573 41.4928 132.527 41.432C132.223 41.0491 131.843 40.7343 131.41 40.5124C130.978 40.287 130.502 40.1582 130.015 40.1332C129.951 40.1332 129.886 40.1153 129.829 40.0866C129.772 40.058 129.718 40.0222 129.675 39.9721C129.632 39.9256 129.6 39.8684 129.575 39.8076C129.553 39.7467 129.543 39.6823 129.546 39.6179C129.546 39.5535 129.564 39.4891 129.593 39.4319C129.621 39.3746 129.661 39.321 129.707 39.278C129.754 39.2351 129.811 39.2029 129.872 39.1814C129.933 39.16 129.997 39.1492 130.062 39.1528C130.688 39.1886 131.3 39.3532 131.858 39.643C132.416 39.9328 132.902 40.3371 133.292 40.8273C133.35 40.8988 133.385 40.9847 133.393 41.0777C133.403 41.1672 133.385 41.2602 133.346 41.3425C133.307 41.4248 133.242 41.4928 133.167 41.5429C133.089 41.593 132.999 41.618 132.91 41.618L132.913 41.6216Z" fill="#101828"/>
<path d="M245.862 98.2104C239.164 98.2104 232.92 95.5878 228.179 90.7504C228.097 90.6467 228.054 90.5179 228.061 90.3891C228.072 90.2602 228.129 90.135 228.226 90.0456C228.323 89.9561 228.451 89.9025 228.587 89.9025C228.723 89.9025 228.852 89.9454 228.952 90.0348C239.804 101.105 255.408 98.0924 264.571 89.652C264.674 89.5661 264.81 89.5196 264.95 89.5303C265.086 89.5375 265.218 89.5948 265.311 89.6949C265.408 89.7915 265.458 89.9203 265.458 90.0563C265.458 90.1923 265.404 90.3175 265.311 90.4177C260.263 95.069 253.59 97.9027 247.003 98.189C246.624 98.2104 246.244 98.2212 245.862 98.2212V98.2104Z" fill="#101828"/>
<path d="M228.58 90.1279C228.541 90.0277 228.469 89.9454 228.376 89.8846C228.287 89.8274 228.179 89.7952 228.068 89.7952C221.635 89.924 216.15 90.9007 211.295 92.7791C207.005 94.425 203.105 96.9045 199.835 100.067C193.613 106.028 189.838 113.753 185.842 121.932C185.53 122.573 185.212 123.217 184.897 123.864C185.326 123.803 185.752 123.743 186.181 123.682C186.393 123.249 186.607 122.816 186.815 122.387C194.575 106.508 201.903 91.5018 227.721 90.8578C227.721 90.8649 227.729 90.8757 227.732 90.8828C227.968 90.7576 228.247 90.6825 228.577 90.6825C228.659 90.6825 228.734 90.686 228.809 90.6968C228.727 90.4928 228.652 90.3032 228.584 90.1315L228.58 90.1279Z" fill="#101828"/>
<path d="M292.35 103.277C292.321 103.062 292.332 102.869 292.368 102.694C291.559 101.57 290.704 100.49 289.788 99.4735C286.894 96.2605 283.663 93.8776 279.917 92.1888C275.73 90.3068 271.004 89.33 265.483 89.2048H265.469C265.326 89.2048 265.19 89.2549 265.086 89.355C264.986 89.4516 264.925 89.584 264.925 89.7236C264.925 89.8595 264.979 89.9955 265.079 90.0921C265.179 90.1923 265.315 90.2495 265.455 90.2495C279.38 90.568 287.083 96.5181 292.54 104.801C292.475 104.293 292.414 103.785 292.35 103.277Z" fill="#101828"/>
<path d="M233.307 90.0277L228.079 90.3247C229.675 91.602 231.357 92.7791 233.106 93.8489L233.307 90.0277Z" fill="#101828"/>
<path d="M233.11 94.3785C233.013 94.3785 232.917 94.3534 232.831 94.3033C231.052 93.2192 229.349 92.0206 227.732 90.7182C227.65 90.6503 227.589 90.5608 227.56 90.4606C227.532 90.3605 227.532 90.2531 227.564 90.1565C227.596 90.0563 227.661 89.9705 227.743 89.9061C227.829 89.8417 227.929 89.8023 228.036 89.7951L233.264 89.4982C233.339 89.4946 233.414 89.5053 233.485 89.5304C233.557 89.5554 233.621 89.5983 233.675 89.6484C233.729 89.7021 233.772 89.7629 233.797 89.8309C233.825 89.8989 233.836 89.974 233.832 90.0456L233.632 93.8776C233.625 94.0135 233.564 94.1388 233.464 94.2318C233.364 94.3248 233.231 94.3749 233.095 94.3749L233.106 94.382L233.11 94.3785ZM229.507 90.7648C230.294 91.3623 231.428 92.1816 232.62 92.9401L232.741 90.5859L229.507 90.7683V90.7648Z" fill="#101828"/>
<path d="M266.374 89.2334L259.053 88.7432L259.039 94.0028C259.032 94.0851 262.581 93.7381 266.374 89.2334Z" fill="#101828"/>
<path d="M278.84 145.142C279.008 145.124 279.169 145.071 279.291 144.992C279.412 144.913 279.487 144.817 279.498 144.717C279.899 141.021 279.91 137.342 279.537 133.7C279.534 133.646 279.509 133.596 279.469 133.55C279.43 133.503 279.373 133.464 279.301 133.435C279.23 133.403 279.151 133.382 279.062 133.371C278.972 133.36 278.879 133.36 278.786 133.371C278.6 133.392 278.425 133.453 278.303 133.543C278.181 133.632 278.117 133.743 278.128 133.85C278.496 137.457 278.486 141.103 278.088 144.767C278.078 144.878 278.138 144.978 278.264 145.053C278.385 145.124 278.561 145.164 278.747 145.157C278.779 145.157 278.808 145.149 278.836 145.146L278.84 145.142Z" fill="#101828"/>
<path d="M259.576 92.7863C259.433 92.7863 259.297 92.7326 259.196 92.636C259.096 92.5394 259.039 92.407 259.039 92.2675C259.025 87.083 259.11 83.8164 259.193 80.657C259.275 77.4977 259.357 74.2418 259.347 69.0752C259.347 67.8051 259.347 66.0698 260.327 64.7674C260.953 63.9409 261.848 63.4507 262.713 62.9749C263.129 62.7566 263.526 62.5205 263.912 62.2593C265.318 61.2789 266.152 59.7404 266.095 58.2305C266.034 56.6455 264.885 55.1964 263.422 54.8637C263.186 54.8136 262.95 54.7778 262.71 54.7527C262.18 54.6883 261.637 54.6204 261.114 54.3413C259.801 53.6364 259.511 52.0729 259.4 50.6345C259.293 49.2785 259.257 47.3285 259.221 45.4465C259.186 43.5609 259.146 41.6432 259.043 40.3157C259.032 40.1762 259.078 40.0402 259.171 39.9365C259.264 39.8327 259.397 39.7647 259.54 39.754C259.683 39.7433 259.822 39.7898 259.93 39.8792C260.037 39.9687 260.105 40.0975 260.116 40.237C260.22 41.5967 260.259 43.543 260.295 45.4286C260.331 47.3142 260.37 49.232 260.474 50.5594C260.567 51.7759 260.781 52.9638 261.637 53.4289C261.973 53.6078 262.402 53.6615 262.849 53.7187C263.125 53.7473 263.4 53.7903 263.669 53.8475C265.587 54.284 267.093 56.1517 267.172 58.1911C267.243 60.0409 266.234 61.9229 264.542 63.1037C264.123 63.3863 263.69 63.6439 263.243 63.8801C262.442 64.3166 261.687 64.7352 261.193 65.3828C260.477 66.3274 260.427 67.6119 260.427 69.0681C260.441 74.249 260.356 77.5156 260.273 80.6785C260.191 83.8378 260.105 87.0938 260.119 92.2603C260.119 92.3999 260.062 92.5322 259.962 92.6289C259.862 92.7255 259.726 92.7827 259.583 92.7827L259.576 92.7899V92.7863Z" fill="#101828"/>
<path d="M240.273 73.7588C238.469 73.7588 236.673 73.5298 234.934 73.0754C232.941 72.553 231.371 71.8124 230.118 70.8213C228.39 69.4474 227.041 67.3578 226.108 64.6064C224.115 58.7422 224.061 47.7436 224.229 45.468C224.233 45.4 224.254 45.332 224.283 45.2712C224.315 45.2104 224.358 45.1531 224.412 45.1102C224.465 45.0637 224.526 45.0315 224.594 45.01C224.662 44.9885 224.734 44.9778 224.802 44.985C224.873 44.9885 224.941 45.0064 225.002 45.0386C225.066 45.0708 225.124 45.1102 225.17 45.1639C225.217 45.2175 225.252 45.2748 225.274 45.3428C225.295 45.4107 225.306 45.4751 225.299 45.5467C225.145 47.7865 225.188 58.5668 227.127 64.2844C227.997 66.8426 229.231 68.7747 230.798 70.0163C231.929 70.9107 233.374 71.587 235.217 72.0736C238.945 73.0432 242.885 72.9216 246.541 71.7229C246.677 71.68 246.824 71.6872 246.953 71.748C247.081 71.8088 247.178 71.9161 247.225 72.0485C247.271 72.1809 247.26 72.324 247.2 72.4493C247.139 72.5745 247.024 72.6675 246.892 72.714C244.759 73.4117 242.527 73.7695 240.276 73.7659L240.273 73.7588Z" fill="#101828"/>
<path d="M233.092 93.1262C233.07 93.1262 233.049 93.1262 233.024 93.1262C232.884 93.1083 232.755 93.0367 232.67 92.9258C232.584 92.8149 232.544 92.6789 232.562 92.543C232.902 89.8559 232.906 81.598 231.857 71.6514C231.85 71.5834 231.857 71.5154 231.879 71.4474C231.9 71.383 231.933 71.3186 231.975 71.2685C232.022 71.2149 232.076 71.1719 232.137 71.1361C232.197 71.1039 232.265 71.0825 232.337 71.0753C232.408 71.0682 232.48 71.0753 232.548 71.0932C232.616 71.1147 232.68 71.1469 232.734 71.1898C232.788 71.2327 232.834 71.2864 232.87 71.3472C232.906 71.4081 232.924 71.4761 232.931 71.544C233.99 81.5659 233.979 89.9239 233.636 92.661C233.621 92.7898 233.557 92.9079 233.457 92.9938C233.357 93.0797 233.224 93.1262 233.092 93.1226V93.1262Z" fill="#101828"/>
<path d="M260.592 61.1644C260.52 61.1644 260.452 61.1537 260.384 61.1286C260.32 61.1036 260.259 61.0678 260.209 61.0177C260.105 60.9211 260.044 60.7923 260.041 60.6528C260.041 60.5132 260.091 60.3808 260.187 60.2807C260.284 60.1805 260.42 60.1232 260.563 60.1196C261.354 60.0839 262.549 59.1572 262.731 58.2233C262.764 58.091 262.846 57.9765 262.96 57.9049C263.075 57.8298 263.218 57.8047 263.354 57.8298C263.49 57.8548 263.612 57.9299 263.69 58.0409C263.769 58.1518 263.805 58.2877 263.783 58.4201C263.519 59.7619 261.98 61.1072 260.613 61.1644H260.588H260.592Z" fill="#101828"/>
<path d="M240.47 58.9926H240.448C239.128 58.9461 238.126 58.5275 237.55 57.7869C237.342 57.5042 237.21 57.1786 237.156 56.8387C237.106 56.4952 237.139 56.1482 237.253 55.819C237.335 55.5614 237.482 55.3252 237.682 55.1356C237.879 54.946 238.122 54.8064 238.391 54.7313C238.609 54.6812 238.831 54.6562 239.053 54.6562C239.224 54.6669 239.396 54.6419 239.554 54.5775C239.743 54.4451 239.718 53.9227 239.707 53.751L239.421 48.2588C239.414 48.1193 239.464 47.9833 239.561 47.8831C239.657 47.7794 239.79 47.7185 239.933 47.7114C240.076 47.7042 240.216 47.7543 240.319 47.8473C240.427 47.9404 240.487 48.0692 240.495 48.2087L240.781 53.7009C240.802 54.0801 240.845 54.971 240.169 55.4326C239.811 55.6795 239.403 55.6938 239.085 55.7009C238.942 55.7009 238.802 55.7152 238.666 55.7403C238.57 55.7725 238.48 55.8262 238.412 55.9013C238.341 55.9729 238.291 56.0623 238.266 56.1589C238.208 56.3235 238.19 56.5024 238.215 56.6741C238.241 56.8459 238.305 57.014 238.405 57.1572C238.877 57.769 239.793 57.9228 240.484 57.9479C240.627 57.9479 240.763 58.0087 240.86 58.1089C240.96 58.2091 241.013 58.3415 241.01 58.481C241.01 58.6205 240.949 58.7529 240.845 58.8459C240.742 58.9425 240.606 58.9962 240.462 58.9926H240.47Z" fill="#101828"/>
<path d="M248.817 55.3431C248.788 55.3431 248.76 55.3431 248.727 55.336L245.826 54.8673C245.686 54.8458 245.561 54.7671 245.479 54.6562C245.396 54.5417 245.361 54.4021 245.386 54.2662C245.411 54.1302 245.486 54.0086 245.604 53.9263C245.722 53.844 245.865 53.8118 246.005 53.8368L248.906 54.3055C249.049 54.3163 249.182 54.3842 249.271 54.488C249.364 54.5953 249.411 54.7313 249.396 54.8708C249.386 55.0104 249.318 55.1392 249.207 55.2286C249.099 55.3181 248.956 55.361 248.817 55.3503V55.3431Z" fill="#FFBC00"/>
<path d="M240.806 65.5725C239.833 65.5832 238.867 65.4616 237.929 65.2075C237.861 65.1897 237.797 65.1539 237.743 65.1109C237.69 65.068 237.643 65.0143 237.611 64.9535C237.579 64.8927 237.557 64.8283 237.55 64.7603C237.543 64.6923 237.55 64.6243 237.572 64.5564C237.593 64.492 237.625 64.4311 237.668 64.3775C237.715 64.3238 237.768 64.2809 237.829 64.2487C237.89 64.2165 237.958 64.195 238.029 64.1878C238.101 64.1807 238.173 64.1878 238.237 64.2057C241.353 65.1002 245.722 63.9839 247.035 62.8282C247.143 62.7423 247.278 62.6994 247.418 62.7066C247.558 62.7173 247.686 62.7781 247.779 62.8783C247.872 62.9785 247.922 63.1109 247.919 63.2468C247.915 63.3828 247.855 63.5116 247.758 63.6046C246.495 64.7138 243.59 65.5761 240.813 65.5761L240.806 65.5725Z" fill="#101828"/>
<path d="M226.466 65.5152C226.433 65.5152 226.405 65.5152 226.373 65.5081C224.509 65.1968 221.052 62.8425 221.499 58.803C221.725 56.7743 223.646 55.7367 224.956 55.7582C225.099 55.7582 225.235 55.819 225.331 55.9192C225.428 56.0194 225.482 56.1518 225.482 56.2913C225.482 56.4308 225.417 56.5632 225.317 56.6562C225.213 56.7528 225.077 56.8029 224.934 56.8029C224.169 56.785 222.73 57.4792 222.569 58.9139C222.19 62.3452 225.228 64.2558 226.555 64.4776C226.688 64.4991 226.806 64.5706 226.888 64.6708C226.97 64.7746 227.01 64.9034 226.999 65.0358C226.988 65.1646 226.927 65.2862 226.827 65.3757C226.727 65.4651 226.598 65.5152 226.462 65.5152H226.466Z" fill="#101828"/>
<path d="M246.928 51.0818H246.949C247.085 51.0746 247.192 50.9601 247.185 50.8277L247.064 48.3768C247.056 48.2445 246.942 48.1407 246.806 48.1479H246.785C246.649 48.155 246.541 48.2695 246.548 48.4019L246.67 50.8528C246.677 50.9852 246.792 51.0889 246.928 51.0818Z" fill="#101828"/>
<path d="M246.91 51.9834C246.609 51.9834 246.323 51.8725 246.105 51.6686C245.887 51.4682 245.758 51.1927 245.744 50.9029L245.622 48.452C245.615 48.3017 245.636 48.155 245.686 48.0119C245.736 47.8724 245.819 47.74 245.919 47.6291C246.023 47.5181 246.148 47.4287 246.284 47.3643C246.423 47.2999 246.574 47.2641 246.728 47.257H246.749C246.903 47.2498 247.057 47.2713 247.2 47.3214C247.347 47.3714 247.479 47.4502 247.59 47.5503C247.704 47.6505 247.797 47.7722 247.862 47.9081C247.926 48.0441 247.966 48.1908 247.973 48.3375L248.094 50.7884C248.101 50.9387 248.08 51.0853 248.026 51.2285C247.976 51.368 247.898 51.5004 247.794 51.6113C247.69 51.7222 247.568 51.8117 247.429 51.8761C247.289 51.9405 247.139 51.9763 246.985 51.9834H246.903H246.91Z" fill="#101828"/>
<path d="M232.104 56.1338C231.972 56.1338 231.847 56.0909 231.746 56.005C231.646 55.9227 231.582 55.8047 231.568 55.6794C231.55 55.5542 231.582 55.4254 231.657 55.3181C231.732 55.2107 231.84 55.1356 231.968 55.1034L234.809 54.3556C234.877 54.3377 234.949 54.3305 235.02 54.3377C235.092 54.3449 235.16 54.3663 235.221 54.4021C235.281 54.4379 235.339 54.4808 235.382 54.5381C235.425 54.5917 235.457 54.6561 235.475 54.7241C235.493 54.7921 235.5 54.8601 235.489 54.9316C235.478 54.9996 235.457 55.0676 235.417 55.1284C235.382 55.1893 235.332 55.2393 235.274 55.2823C235.217 55.3252 235.153 55.3538 235.081 55.3682L232.24 56.1159C232.194 56.1267 232.147 56.1338 232.101 56.1338H232.104Z" fill="#FFBC00"/>
<path d="M233.464 48.7955H233.442C233.306 48.8026 233.199 48.9171 233.206 49.0495L233.328 51.5004C233.335 51.6328 233.449 51.7365 233.585 51.7294H233.607C233.743 51.7222 233.85 51.6077 233.843 51.4753L233.721 49.0245C233.714 48.8921 233.6 48.7883 233.464 48.7955Z" fill="#101828"/>
<path d="M233.582 52.6167C233.282 52.6167 232.995 52.5022 232.777 52.3019C232.559 52.1015 232.43 51.826 232.416 51.5362L232.294 49.0853C232.287 48.935 232.308 48.7883 232.358 48.6452C232.409 48.5057 232.487 48.3733 232.591 48.2624C232.695 48.1515 232.82 48.062 232.956 47.9976C233.096 47.9332 233.246 47.8974 233.396 47.8903H233.421C233.575 47.8831 233.729 47.9046 233.872 47.9547C234.019 48.0048 234.151 48.0835 234.262 48.1837C234.376 48.2838 234.469 48.4055 234.534 48.5415C234.598 48.6774 234.638 48.8241 234.645 48.9708L234.766 51.4217C234.774 51.572 234.752 51.7223 234.702 51.8618C234.652 52.0013 234.573 52.1337 234.469 52.2446C234.366 52.3556 234.24 52.445 234.105 52.5094C233.965 52.5738 233.815 52.6096 233.661 52.6167H233.579H233.582Z" fill="#101828"/>
<path d="M252.939 62.0196C252.817 62.0196 252.699 61.9802 252.602 61.9051C252.506 61.83 252.441 61.7262 252.416 61.6081C252.37 61.4077 252.27 61.2217 252.13 61.0714C251.987 60.9176 251.808 60.8031 251.611 60.7387C251.479 60.6922 251.372 60.5991 251.311 60.4775C251.25 60.3558 251.239 60.2163 251.282 60.0875C251.325 59.9587 251.418 59.8513 251.54 59.7869C251.661 59.7225 251.804 59.7082 251.94 59.744C252.32 59.8657 252.66 60.0803 252.932 60.3666C253.203 60.6528 253.39 61.0034 253.475 61.3827C253.49 61.4507 253.493 61.5187 253.475 61.5866C253.457 61.6546 253.436 61.719 253.4 61.7763C253.361 61.8335 253.311 61.8836 253.254 61.923C253.196 61.9623 253.132 61.991 253.06 62.0053C253.021 62.0124 252.982 62.0196 252.942 62.0196H252.939Z" fill="#101828"/>
<path d="M232.523 72.1058L232.788 75.8376C232.788 75.8376 244.316 72.8393 245.246 72.6317C245.246 72.6317 238.853 75.0576 232.523 72.1094V72.1058Z" fill="#101828"/>
<path d="M232.788 76.3635C232.652 76.3635 232.519 76.3134 232.423 76.224C232.323 76.1345 232.262 76.0093 232.255 75.8769L231.99 72.1451C231.983 72.0521 232.001 71.9627 232.04 71.8804C232.083 71.7981 232.144 71.7265 232.222 71.6764C232.301 71.6263 232.391 71.5941 232.484 71.587C232.577 71.5798 232.673 71.5977 232.755 71.6371C236.469 73.3688 240.244 73.172 242.613 72.7605C243.908 72.4314 244.878 72.1845 245.124 72.1272C245.253 72.1022 245.389 72.1272 245.504 72.1952C245.618 72.2632 245.701 72.367 245.74 72.4922C245.779 72.6174 245.768 72.7498 245.711 72.8643C245.654 72.9824 245.554 73.0718 245.432 73.1219C244.53 73.4403 243.604 73.6765 242.659 73.8268C239.006 74.7642 232.999 76.3242 232.92 76.3456C232.877 76.3564 232.831 76.36 232.788 76.36V76.3635ZM233.12 72.9323L233.274 75.1721L237.697 74.0236C236.126 73.8804 234.58 73.5155 233.12 72.9359V72.9323Z" fill="#101828"/>
<path d="M264.928 36.8201C263.69 35.9829 262.767 36.4086 262.134 36.0079C261.168 35.3961 261.032 34.0007 261.282 32.8736C261.537 31.7502 262.07 30.6589 262.062 29.4996C262.052 27.2312 259.916 25.4709 257.744 25.0236C255.572 24.5764 253.322 25.0594 251.114 25.3206C247.193 25.7822 243.221 25.5174 239.403 24.5406C236.902 23.9002 234.466 22.9592 231.908 22.6443C229.349 22.333 226.551 22.7516 224.637 24.5156C222.727 26.2795 222.14 29.632 223.886 31.5677C219.975 31.2242 216.104 34.6626 216.007 38.6627C215.911 42.6665 219.735 46.3267 223.632 45.858C228.999 45.2175 232.051 38.4481 237.389 37.6144C239.643 37.2638 241.908 38.0617 244.015 38.9454C246.123 39.8292 248.248 40.8489 250.524 40.9634C252.803 41.0779 255.314 40.0331 256.18 37.8792C255.261 49.071 259.422 49.3465 259.708 49.0853C267.172 42.3874 266.624 37.965 264.925 36.8165L264.928 36.8201Z" fill="#101828"/>
<path d="M259.486 49.6506C259.161 49.6399 258.842 49.5612 258.553 49.4181C257.279 48.8205 255.3 46.7489 255.536 39.7397C254.188 41.0242 252.173 41.5573 250.502 41.4715C248.37 41.3641 246.395 40.5161 244.481 39.7004L243.812 39.4141C241.904 38.6091 239.679 37.7719 237.486 38.1189C235.01 38.5053 233.053 40.255 230.977 42.1083C228.831 44.0333 226.594 46.0226 223.707 46.3697C221.796 46.5951 219.782 45.9224 218.186 44.5056C216.444 42.9706 215.435 40.7738 215.485 38.6413C215.535 36.5518 216.548 34.4945 218.269 33.0025C219.539 31.8683 221.16 31.1741 222.877 31.0274C221.66 28.7876 222.508 25.7643 224.28 24.1256C226.734 21.8607 230.162 21.8858 231.986 22.1184C233.757 22.333 235.478 22.8483 237.146 23.342C237.933 23.5746 238.749 23.8179 239.554 24.0254C243.307 24.9879 247.214 25.2491 251.064 24.7911C251.483 24.741 251.916 24.6802 252.334 24.6229C254.145 24.3725 256.012 24.1149 257.873 24.5013C260.163 24.9807 262.603 26.8878 262.617 29.4925C262.617 30.3333 262.377 31.1097 262.141 31.8683C262.023 32.2511 261.909 32.616 261.826 32.9846C261.612 33.9435 261.723 35.117 262.438 35.575C262.592 35.668 262.818 35.6895 263.115 35.7145C263.655 35.7611 264.395 35.8219 265.247 36.3979C265.998 36.906 266.456 37.8005 266.535 38.9168C266.653 40.5949 265.977 44.1943 260.095 49.4646C259.923 49.6005 259.708 49.6685 259.49 49.6542L259.486 49.6506ZM256.188 37.3425C256.227 37.3425 256.266 37.3461 256.306 37.3568C256.431 37.3854 256.542 37.457 256.617 37.5572C256.692 37.6574 256.731 37.7826 256.721 37.9078C256.152 44.9027 257.597 47.3071 258.51 48.1336C258.932 48.5128 259.3 48.5951 259.454 48.6059C265.129 43.4966 265.54 40.1798 265.454 38.9848C265.397 38.2012 265.097 37.5679 264.624 37.2495C264.013 36.8344 263.501 36.7915 263.011 36.7486C262.617 36.7128 262.213 36.6806 261.841 36.4516C260.614 35.668 260.488 33.9757 260.76 32.7627C260.853 32.3513 260.978 31.9541 261.1 31.5677C261.322 30.8557 261.533 30.1831 261.529 29.5032C261.519 27.4495 259.512 25.9217 257.633 25.5281C255.969 25.1775 254.27 25.4136 252.474 25.6641C252.052 25.7214 251.611 25.7822 251.182 25.8358C247.196 26.3117 243.153 26.0398 239.271 25.0451C238.448 24.834 237.622 24.5871 236.817 24.351C235.196 23.868 233.518 23.3706 231.84 23.156C230.205 22.9556 227.142 22.9162 225.006 24.8841C223.349 26.4119 222.691 29.4424 224.29 31.2099C224.362 31.2886 224.405 31.3852 224.419 31.489C224.433 31.5928 224.415 31.6965 224.365 31.7895C224.315 31.8826 224.24 31.9613 224.147 32.0114C224.054 32.0615 223.947 32.0829 223.839 32.0758C222.154 31.9255 220.387 32.5516 218.97 33.7825C217.471 35.0848 216.587 36.8631 216.548 38.6663C216.501 40.5054 217.381 42.3981 218.895 43.7327C220.265 44.9421 221.961 45.5217 223.567 45.3321C226.115 45.0351 228.122 43.2354 230.244 41.3391C232.366 39.4428 234.52 37.525 237.314 37.0921C239.675 36.7235 242.037 37.5393 244.237 38.4624L244.917 38.7522C246.742 39.5322 248.624 40.3408 250.56 40.4374C252.459 40.534 254.875 39.7111 255.687 37.686C255.726 37.5858 255.794 37.4999 255.883 37.4391C255.973 37.3783 256.077 37.3461 256.188 37.3461V37.3425Z" fill="#101828"/>
<path d="M229.947 46.8706C229.847 46.8706 229.747 46.8419 229.657 46.7883C229.571 46.7346 229.503 46.6595 229.46 46.57C229.417 46.4806 229.399 46.3804 229.414 46.2802C229.428 46.18 229.467 46.0906 229.535 46.0118C232.434 42.6092 234.645 43.654 234.734 43.6898C234.863 43.7506 234.96 43.8579 235.006 43.9903C235.053 44.1227 235.042 44.2658 234.981 44.391C234.917 44.5163 234.806 44.6093 234.67 44.6558C234.534 44.6987 234.387 44.6916 234.258 44.6308C234.176 44.595 232.652 43.9939 230.358 46.6809C230.308 46.7382 230.244 46.7883 230.172 46.8205C230.101 46.8527 230.026 46.8706 229.943 46.8706H229.947Z" fill="#101828"/>
<path d="M250.008 46.8706C249.93 46.8706 249.851 46.8527 249.779 46.8205C249.708 46.7883 249.647 46.7418 249.593 46.6809C247.275 43.9617 245.719 44.6165 245.701 44.6236C245.572 44.6844 245.425 44.6988 245.289 44.6522C245.153 44.6093 245.042 44.5163 244.978 44.3911C244.913 44.2658 244.903 44.1227 244.946 43.9939C244.989 43.8615 245.085 43.7542 245.214 43.6898C245.307 43.6433 247.515 42.6128 250.416 46.0119C250.481 46.087 250.524 46.18 250.538 46.2802C250.552 46.3804 250.538 46.477 250.491 46.57C250.449 46.6595 250.381 46.7346 250.295 46.7883C250.209 46.8419 250.109 46.8706 250.005 46.8706H250.008Z" fill="#101828"/>
<path d="M320.991 206.2C320.598 206.2 320.276 205.878 320.276 205.484V183.441C320.165 178.045 316.726 171.988 310.336 165.93C298.761 154.964 278.067 144.409 253.561 136.974C234.505 131.192 204.297 124.551 168.596 125.753C134.537 126.902 98.6435 134.247 70.113 145.904C56.6313 151.414 45.4431 157.69 37.7577 164.062C29.7216 170.721 25.6106 177.243 25.5354 183.451V204.59C25.5354 204.983 25.2134 205.305 24.8198 205.305C24.4263 205.305 24.1042 204.983 24.1042 204.59V183.444C24.2581 170.488 40.8311 156.327 69.5727 144.584C98.2535 132.866 134.326 125.481 168.549 124.326C204.443 123.116 234.82 129.793 253.98 135.607C278.693 143.106 299.592 153.779 311.324 164.892C318.097 171.308 321.592 177.544 321.71 183.426V205.484C321.71 205.878 321.388 206.2 320.995 206.2H320.991Z" fill="#101828"/>
<path d="M213.997 193.849H135.736C133.657 193.849 131.972 192.428 131.972 190.679L122.974 163.755C122.974 162.005 124.659 160.585 126.738 160.585H221.732C223.811 160.585 225.496 162.005 225.496 163.755L217.761 190.679C217.761 192.428 216.075 193.849 213.997 193.849Z" fill="#667085"/>
<mask id="mask0_290_55442" style="mask-type:luminance" maskUnits="userSpaceOnUse" x="122" y="160" width="104" height="34">
<path d="M213.997 193.849H135.736C133.657 193.849 131.972 192.428 131.972 190.679L122.974 163.755C122.974 162.005 124.659 160.585 126.738 160.585H221.732C223.811 160.585 225.496 162.005 225.496 163.755L217.761 190.679C217.761 192.428 216.075 193.849 213.997 193.849Z" fill="white"/>
</mask>
<g mask="url(#mask0_290_55442)">
<path d="M228.823 165.905H119.646C119.159 165.905 118.766 165.511 118.766 165.025C118.766 164.538 119.159 164.145 119.646 164.145H228.823C229.31 164.145 229.704 164.538 229.704 165.025C229.704 165.511 229.31 165.905 228.823 165.905Z" fill="#98A2B3"/>
<path d="M228.823 172.188H119.646C119.159 172.188 118.766 171.794 118.766 171.308C118.766 170.821 119.159 170.428 119.646 170.428H228.823C229.31 170.428 229.704 170.821 229.704 171.308C229.704 171.794 229.31 172.188 228.823 172.188Z" fill="#98A2B3"/>
<path d="M228.823 178.471H119.646C119.159 178.471 118.766 178.077 118.766 177.591C118.766 177.104 119.159 176.71 119.646 176.71H228.823C229.31 176.71 229.704 177.104 229.704 177.591C229.704 178.077 229.31 178.471 228.823 178.471Z" fill="#98A2B3"/>
<path d="M228.823 184.75H119.646C119.159 184.75 118.766 184.356 118.766 183.87C118.766 183.383 119.159 182.99 119.646 182.99H228.823C229.31 182.99 229.704 183.383 229.704 183.87C229.704 184.356 229.31 184.75 228.823 184.75Z" fill="#98A2B3"/>
<path d="M228.823 191.033H119.646C119.159 191.033 118.766 190.639 118.766 190.153C118.766 189.666 119.159 189.273 119.646 189.273H228.823C229.31 189.273 229.704 189.666 229.704 190.153C229.704 190.639 229.31 191.033 228.823 191.033Z" fill="#98A2B3"/>
</g>
<path d="M177.423 8.14276H175.312V23.0413H177.423V8.14276Z" fill="#98A2B3"/>
<path d="M197.166 37.328H155.565C151.218 37.328 147.694 33.8037 147.694 29.4565C147.694 25.1093 151.218 21.5851 155.565 21.5851H197.166C201.513 21.5851 205.037 25.1093 205.037 29.4565C205.037 33.8037 201.513 37.328 197.166 37.328Z" fill="#98A2B3"/>
<path d="M66.7963 13.7959C101.914 6.21426 139.733 1.04414 174.521 0.711395C213.009 1.73111 249.286 5.89225 282.729 14.0893L287.498 18.7192C212.955 6.40748 138.051 6.84756 62.7961 18.7192L66.7963 13.7959Z" fill="#101828"/>
<path d="M140.631 38.2512C140.552 38.2584 140.473 38.2298 140.409 38.1725C140.344 38.1153 140.298 38.033 140.28 37.9435C140.259 37.8505 140.269 37.7539 140.305 37.6716C140.341 37.5893 140.398 37.5249 140.47 37.4891L146.409 34.7878C146.488 34.752 146.581 34.7556 146.66 34.7985C146.742 34.8414 146.803 34.9202 146.838 35.0168C146.871 35.1134 146.871 35.2243 146.838 35.3173C146.806 35.4139 146.742 35.4855 146.66 35.5248L140.72 38.2262C140.692 38.2405 140.659 38.2476 140.627 38.2512H140.631Z" fill="#101828"/>
<path d="M146.28 39.6502C146.187 39.6574 146.098 39.6359 146.019 39.5894C145.94 39.5429 145.879 39.4714 145.844 39.3855C145.808 39.2996 145.801 39.2066 145.822 39.1171C145.844 39.0277 145.894 38.949 145.965 38.8917L148.159 37.0813C148.201 37.0455 148.252 37.0169 148.305 37.0026C148.359 36.9847 148.416 36.9811 148.473 36.9847C148.531 36.9883 148.584 37.0061 148.634 37.0312C148.684 37.0562 148.727 37.092 148.763 37.1385C148.799 37.1815 148.828 37.2316 148.842 37.2852C148.86 37.3389 148.863 37.3961 148.86 37.4534C148.853 37.5106 148.838 37.5643 148.813 37.6144C148.788 37.6645 148.752 37.7074 148.71 37.7432L146.516 39.5536C146.448 39.6109 146.366 39.6431 146.28 39.6502Z" fill="#101828"/>
<path d="M265.934 89.949C265.916 89.813 265.841 89.6878 265.726 89.6055C265.612 89.5232 265.468 89.4839 265.329 89.5017C265.186 89.5196 265.061 89.5948 264.975 89.7021C257.887 98.7293 251.407 110.136 246.233 122.68C245.826 123.668 245.078 124.737 244.323 124.512C243.94 124.394 243.647 123.957 243.382 123.524C238.022 114.73 232.261 100.021 229.489 92.9509C229.081 91.9097 228.759 91.0903 228.515 90.4749C228.476 90.3748 228.404 90.2925 228.311 90.2316C228.222 90.1744 228.115 90.1422 228.004 90.1422C227.893 90.1422 227.786 90.1494 227.675 90.1529C227.735 90.4964 227.524 90.0778 227.406 90.4177C227.428 90.4177 227.632 91.2013 227.653 91.2013C227.875 91.763 228.154 92.4714 228.487 93.3266C231.267 100.422 237.056 115.184 242.459 124.054C242.734 124.508 243.196 125.263 244.004 125.51C245.232 125.882 246.441 124.973 247.224 123.074C252.362 110.615 258.785 99.2946 265.823 90.339C265.908 90.2281 265.948 90.0921 265.926 89.9526L265.934 89.949Z" fill="#101828"/>
</g>
<defs>
<clipPath id="clip0_290_55442">
<rect width="358.942" height="206.205" fill="white" transform="translate(0 -0.00506592)"/>
</clipPath>
</defs>
</svg>
