<svg width="356" height="255" viewBox="0 0 356 255" fill="none" xmlns="http://www.w3.org/2000/svg">
<g clip-path="url(#clip0_290_55261)">
<path d="M130.016 142.656L135.139 160.182C135.208 160.418 135.364 160.614 135.574 160.737C135.785 160.86 136.035 160.897 136.271 160.842L166.366 153.872C166.602 153.817 166.809 153.676 166.943 153.473C167.077 153.273 167.132 153.026 167.092 152.79L164.116 134.423C164.095 134.292 164.047 134.169 163.979 134.06C163.91 133.951 163.815 133.853 163.706 133.781C163.598 133.708 163.474 133.657 163.344 133.636C163.213 133.614 163.082 133.617 162.955 133.646L130.709 141.455C130.585 141.484 130.466 141.542 130.364 141.618C130.259 141.694 130.172 141.792 130.11 141.905C130.045 142.017 130.005 142.141 129.987 142.268C129.968 142.395 129.983 142.525 130.019 142.652L130.016 142.656Z" fill="#FFBC00"/>
<path d="M136.057 161.626C135.687 161.626 135.328 161.506 135.03 161.281C134.733 161.06 134.519 160.748 134.413 160.392L129.286 142.863C129.221 142.641 129.203 142.409 129.228 142.177C129.257 141.948 129.33 141.727 129.446 141.524C129.562 141.324 129.718 141.15 129.903 141.012C130.088 140.874 130.299 140.773 130.527 140.718L162.763 132.906C162.992 132.852 163.231 132.844 163.463 132.884C163.696 132.924 163.917 133.015 164.113 133.146C164.309 133.276 164.476 133.447 164.606 133.643C164.733 133.842 164.82 134.064 164.857 134.296L167.832 152.663C167.901 153.092 167.807 153.531 167.567 153.89C167.328 154.249 166.958 154.507 166.537 154.608L136.445 161.575C136.318 161.604 136.188 161.622 136.057 161.622V161.626ZM130.741 142.442L135.869 159.971C135.883 160.018 135.916 160.062 135.959 160.087C136.003 160.113 136.054 160.12 136.104 160.109L166.199 153.135C166.25 153.124 166.294 153.095 166.319 153.052C166.348 153.012 166.359 152.957 166.352 152.91L163.376 134.543C163.373 134.517 163.362 134.492 163.347 134.466C163.333 134.445 163.311 134.423 163.289 134.408C163.267 134.394 163.238 134.383 163.213 134.379C163.184 134.372 163.159 134.376 163.13 134.379L130.887 142.195C130.836 142.21 130.789 142.242 130.763 142.29C130.749 142.311 130.741 142.34 130.738 142.366C130.738 142.391 130.738 142.42 130.745 142.446L130.741 142.442Z" fill="#FFBC00"/>
<path d="M323.993 50.4118L234.96 25.1283C234.851 25.0957 234.731 25.0848 234.619 25.0957C234.506 25.1066 234.394 25.1428 234.292 25.1973C234.19 25.2517 234.103 25.3279 234.034 25.4186C233.962 25.5093 233.911 25.6109 233.878 25.7234L200.565 143.846C200.565 143.846 216.124 128.225 221.864 123.062C225.159 120.094 228.203 117.971 232.307 116.458C235.381 115.834 236.124 117.877 236.342 119.39C240.014 117.663 245.609 117.685 248.2 121.357C249.927 123.733 250.388 127.384 247.794 129.546C249.739 129.376 252.115 131.273 253.197 133.222C254.924 136.462 254.26 140.74 251.234 142.903C255.501 146.379 251.684 153.708 247.144 155.222C239.68 157.874 230.562 155.603 223.305 158.197L288.15 176.612C288.259 176.644 288.375 176.655 288.491 176.641C288.607 176.63 288.716 176.594 288.818 176.539C288.919 176.485 289.006 176.408 289.079 176.318C289.148 176.227 289.202 176.122 289.235 176.013L324.595 51.4931C324.628 51.3806 324.638 51.2645 324.624 51.152C324.609 51.0359 324.573 50.9271 324.519 50.8255C324.461 50.7239 324.384 50.6368 324.294 50.5642C324.203 50.4917 324.098 50.4409 323.985 50.4118H323.993Z" fill="#FFD966"/>
<path d="M288.393 177.392C288.244 177.392 288.092 177.37 287.947 177.33L223.105 158.912C222.949 158.868 222.815 158.777 222.717 158.65C222.619 158.527 222.561 158.371 222.557 158.211C222.55 158.052 222.597 157.896 222.688 157.762C222.779 157.631 222.909 157.529 223.058 157.475C226.785 156.143 230.997 156.056 235.068 155.962C239.096 155.875 243.258 155.788 246.897 154.496C249.383 153.665 251.723 150.82 252.239 148.012C252.482 146.695 252.42 144.84 250.765 143.491C250.675 143.418 250.602 143.324 250.555 143.218C250.504 143.113 250.482 142.997 250.486 142.881C250.486 142.765 250.519 142.652 250.573 142.547C250.628 142.446 250.704 142.355 250.802 142.289C253.396 140.439 254.154 136.611 252.529 133.577C251.589 131.887 249.485 130.159 247.859 130.301C247.699 130.315 247.54 130.279 247.402 130.192C247.264 130.109 247.159 129.985 247.097 129.836C247.035 129.688 247.024 129.521 247.061 129.368C247.101 129.212 247.188 129.071 247.311 128.969C249.532 127.119 249.114 123.897 247.59 121.807C245.312 118.566 240.243 118.388 236.665 120.079C236.556 120.13 236.44 120.159 236.32 120.156C236.201 120.152 236.084 120.123 235.976 120.065C235.87 120.01 235.78 119.927 235.711 119.829C235.642 119.731 235.598 119.619 235.584 119.499C235.442 118.494 235.112 117.801 234.6 117.445C234.089 117.086 233.41 117.013 232.503 117.195C228.889 118.534 225.946 120.402 222.358 123.632C216.701 128.722 201.243 144.231 201.087 144.387C200.968 144.507 200.815 144.583 200.648 144.601C200.481 144.623 200.315 144.59 200.169 144.507C200.024 144.423 199.912 144.292 199.85 144.136C199.788 143.98 199.777 143.81 199.825 143.647L233.149 25.5274C233.207 25.3206 233.305 25.1283 233.436 24.9614C233.566 24.7945 233.733 24.6529 233.918 24.5513C234.103 24.4461 234.31 24.3808 234.521 24.3554C234.735 24.33 234.949 24.3482 235.152 24.4062L324.185 49.6897C324.598 49.8095 324.95 50.0852 325.161 50.4626C325.371 50.84 325.422 51.2826 325.306 51.6999L289.953 176.209C289.859 176.55 289.652 176.848 289.369 177.062C289.086 177.276 288.741 177.392 288.39 177.392H288.393ZM226.106 158.197L288.364 175.875C288.364 175.875 288.393 175.882 288.408 175.882C288.422 175.882 288.437 175.882 288.451 175.875C288.477 175.861 288.498 175.835 288.506 175.806L323.866 51.2899C323.866 51.2899 323.873 51.2609 323.869 51.2464C323.869 51.2318 323.862 51.2173 323.855 51.2028C323.847 51.1883 323.837 51.1774 323.826 51.1702C323.815 51.1593 323.8 51.1557 323.786 51.1484L234.753 25.8649C234.724 25.854 234.695 25.854 234.666 25.8649C234.64 25.8794 234.622 25.9048 234.611 25.9338L202.096 141.263C206.523 136.843 216.929 126.498 221.371 122.5C225.134 119.118 228.229 117.162 232.06 115.751L232.169 115.718C233.53 115.442 234.644 115.605 235.497 116.204C236.146 116.669 236.625 117.383 236.904 118.338C240.972 116.814 246.288 117.314 248.831 120.932C250.475 123.193 251.052 126.549 249.343 128.995C251.168 129.561 252.946 131.197 253.882 132.863C255.704 136.277 255.025 140.526 252.402 142.954C253.654 144.336 254.129 146.194 253.748 148.291C253.131 151.655 250.41 154.939 247.413 155.94C243.559 157.312 239.27 157.402 235.123 157.489C231.941 157.547 228.918 157.613 226.11 158.197H226.106Z" fill="#FFD966"/>
<path d="M315.258 57.3495L301.002 53.3001C300.537 53.1695 300.059 53.438 299.924 53.8988L295.875 68.1553C295.744 68.6197 296.013 69.0987 296.474 69.2293L310.73 73.2787C311.194 73.4094 311.673 73.1409 311.804 72.68L315.853 58.4236C315.984 57.9591 315.716 57.4802 315.255 57.3495H315.258Z" fill="#FFF9E5"/>
<path d="M310.966 74.0806C310.813 74.0806 310.665 74.0589 310.516 74.0153L296.252 69.9695C296.045 69.9115 295.857 69.8135 295.686 69.6792C295.519 69.545 295.378 69.3817 295.276 69.1966C295.171 69.0116 295.106 68.8048 295.08 68.5907C295.058 68.3766 295.073 68.1625 295.131 67.9593L299.18 53.6956C299.297 53.282 299.576 52.93 299.953 52.7195C300.331 52.5091 300.773 52.4583 301.191 52.5744L315.454 56.6202C315.868 56.7399 316.22 57.0193 316.43 57.3931C316.641 57.7704 316.692 58.2131 316.576 58.6304L312.526 72.8941C312.468 73.1009 312.37 73.2932 312.239 73.4602C312.105 73.6271 311.942 73.7686 311.753 73.8702C311.51 74.0044 311.242 74.0734 310.966 74.077V74.0806ZM300.752 54.0331C300.726 54.0331 300.701 54.0403 300.683 54.0548C300.661 54.0694 300.65 54.0911 300.643 54.1129L296.593 68.3766C296.593 68.3766 296.586 68.4056 296.586 68.4201C296.586 68.4347 296.586 68.4492 296.593 68.4637C296.601 68.4746 296.611 68.4891 296.622 68.4963C296.633 68.5036 296.648 68.5109 296.662 68.5181L310.926 72.5675C310.955 72.5748 310.984 72.5712 311.013 72.5567C311.038 72.5421 311.06 72.5167 311.067 72.4877L315.117 58.224C315.124 58.195 315.12 58.1623 315.106 58.1369C315.091 58.1115 315.066 58.0898 315.041 58.0825L300.777 54.0331H300.755H300.752Z" fill="#182230"/>
<path d="M307.526 84.5816L293.27 80.5322C292.806 80.4016 292.327 80.6701 292.196 81.1309L288.147 95.3873C288.016 95.8518 288.284 96.3307 288.745 96.465L303.002 100.514C303.466 100.645 303.945 100.377 304.076 99.9157L308.125 85.6593C308.256 85.1948 307.987 84.7159 307.526 84.5816Z" fill="#FFF9E5"/>
<path d="M303.23 101.309C303.078 101.309 302.929 101.287 302.78 101.247L288.535 97.2052C288.121 97.0855 287.769 96.8097 287.559 96.4324C287.348 96.055 287.297 95.6123 287.413 95.195L291.463 80.935C291.583 80.5213 291.862 80.1694 292.236 79.9589C292.613 79.7484 293.056 79.6976 293.473 79.8138L307.733 83.8632C307.94 83.9212 308.132 84.0192 308.299 84.1498C308.466 84.2841 308.604 84.4474 308.709 84.6324C308.814 84.8175 308.88 85.0243 308.905 85.2348C308.931 85.4452 308.912 85.6629 308.854 85.8661L304.805 100.13C304.707 100.471 304.5 100.772 304.213 100.986C303.927 101.2 303.582 101.313 303.226 101.309H303.23ZM303.194 99.796C303.194 99.796 303.223 99.8033 303.237 99.8033C303.252 99.8033 303.266 99.8033 303.281 99.796C303.295 99.7887 303.306 99.7815 303.317 99.7706C303.324 99.7597 303.332 99.7452 303.335 99.7307L307.385 85.4706C307.385 85.4706 307.392 85.4416 307.388 85.4271C307.388 85.4126 307.381 85.398 307.374 85.3835C307.367 85.369 307.356 85.3581 307.345 85.3509C307.334 85.3436 307.319 85.3364 307.305 85.3291L293.041 81.2797C293.012 81.2724 292.98 81.2797 292.954 81.2906C292.943 81.2978 292.929 81.3087 292.922 81.3196C292.911 81.3305 292.903 81.345 292.9 81.3595L288.85 95.6196C288.85 95.6196 288.843 95.6486 288.843 95.6631C288.843 95.6776 288.843 95.6921 288.85 95.7067C288.858 95.7212 288.868 95.7321 288.879 95.7393C288.89 95.7502 288.905 95.7575 288.919 95.7611L303.194 99.796Z" fill="#182230"/>
<path d="M299.801 111.806L285.545 107.757C285.08 107.626 284.601 107.895 284.471 108.356L280.421 122.612C280.291 123.076 280.559 123.555 281.02 123.686L295.276 127.735C295.741 127.866 296.22 127.598 296.35 127.137L300.4 112.88C300.53 112.416 300.262 111.937 299.801 111.806Z" fill="#FFF9E5"/>
<path d="M291.436 138.54L277.18 134.491C276.715 134.36 276.237 134.629 276.106 135.09L272.056 149.346C271.926 149.811 272.194 150.29 272.655 150.42L286.912 154.47C287.376 154.6 287.855 154.332 287.986 153.871L292.035 139.614C292.166 139.15 291.897 138.671 291.436 138.54Z" fill="#FFF9E5"/>
<path d="M295.498 128.538C295.353 128.538 295.207 128.516 295.066 128.476L280.802 124.426C280.389 124.307 280.037 124.031 279.826 123.654C279.616 123.276 279.565 122.834 279.681 122.416L283.73 108.153C283.85 107.739 284.126 107.387 284.503 107.176C284.881 106.966 285.323 106.915 285.741 107.031L300.001 111.081C300.208 111.139 300.4 111.237 300.567 111.371C300.734 111.502 300.872 111.669 300.977 111.854C301.082 112.039 301.147 112.246 301.173 112.456C301.198 112.67 301.18 112.884 301.122 113.087L297.073 127.351C296.975 127.692 296.768 127.993 296.485 128.207C296.198 128.421 295.853 128.538 295.498 128.534V128.538ZM285.291 108.497C285.273 108.497 285.254 108.504 285.236 108.512C285.222 108.519 285.211 108.53 285.2 108.541C285.193 108.552 285.185 108.566 285.182 108.581L281.132 122.844C281.132 122.844 281.125 122.873 281.125 122.888C281.125 122.902 281.125 122.917 281.132 122.931C281.147 122.957 281.169 122.979 281.198 122.986L295.461 127.032C295.487 127.043 295.519 127.043 295.549 127.032C295.563 127.024 295.574 127.014 295.581 127.003C295.592 126.992 295.599 126.977 295.603 126.963L299.652 112.699C299.652 112.699 299.66 112.67 299.656 112.656C299.656 112.641 299.649 112.626 299.641 112.612C299.634 112.601 299.623 112.587 299.612 112.579C299.602 112.572 299.587 112.565 299.573 112.558L285.309 108.508L285.287 108.494L285.291 108.497Z" fill="#182230"/>
<path d="M287.133 155.272C286.988 155.272 286.843 155.25 286.701 155.21L272.438 151.161C272.024 151.041 271.672 150.765 271.462 150.388C271.251 150.01 271.2 149.568 271.317 149.15L275.366 134.887C275.486 134.473 275.761 134.121 276.139 133.911C276.516 133.7 276.959 133.649 277.376 133.765L291.636 137.815C291.843 137.873 292.035 137.971 292.202 138.105C292.369 138.236 292.507 138.403 292.612 138.588C292.718 138.773 292.783 138.98 292.808 139.19C292.834 139.404 292.815 139.618 292.757 139.821L288.708 154.085C288.61 154.426 288.403 154.727 288.12 154.941C287.834 155.156 287.489 155.272 287.133 155.268V155.272ZM276.926 135.231C276.908 135.231 276.89 135.239 276.872 135.246C276.857 135.253 276.846 135.264 276.835 135.275C276.828 135.286 276.821 135.3 276.817 135.315L272.768 149.579C272.768 149.579 272.761 149.608 272.761 149.622C272.761 149.637 272.761 149.651 272.768 149.666C272.782 149.691 272.804 149.713 272.833 149.72L287.097 153.766C287.122 153.777 287.155 153.777 287.184 153.766C287.199 153.759 287.209 153.748 287.217 153.737C287.228 153.726 287.235 153.711 287.238 153.697L291.288 139.433C291.288 139.433 291.295 139.404 291.292 139.39C291.292 139.375 291.284 139.361 291.277 139.346C291.27 139.335 291.259 139.321 291.248 139.313C291.237 139.306 291.223 139.299 291.208 139.292L276.944 135.242L276.923 135.228L276.926 135.231Z" fill="#182230"/>
<path d="M95.6461 22.1856C106.158 23.9381 118.223 22.8822 128.263 22.113C126.786 14.4314 120.378 5.50165 110.857 2.35209C101.336 -0.797462 88.937 1.13654 82.5472 8.85802C73.1021 20.2697 76.8504 34.889 79.6988 35.3716L95.6461 22.1856Z" fill="#182230"/>
<path d="M79.6989 36.13C79.6553 36.13 79.6118 36.1263 79.5719 36.1191C78.2765 35.9014 77.4093 34.2286 76.894 32.8679C75.2648 28.4847 74.2307 17.7225 81.9631 8.38631C85.109 4.59088 89.7426 1.96383 95.3777 0.795446C100.603 -0.285852 106.02 0.00442415 111.096 1.64089C121.372 5.04081 127.581 14.5693 129.007 21.9787C129.025 22.084 129.025 22.1928 129 22.2944C128.974 22.3996 128.931 22.494 128.865 22.5811C128.8 22.6682 128.72 22.7371 128.626 22.7879C128.531 22.8387 128.43 22.8677 128.325 22.8786L126.96 22.9838C117.087 23.7495 105.911 24.613 95.8676 22.9983L80.1851 35.963C80.0472 36.0719 79.8767 36.1336 79.7025 36.13H79.6989ZM101.706 1.70258C94.8371 1.70258 87.5691 3.97765 83.1206 9.3406C76.357 17.512 76.5348 27.5703 78.3055 32.3382C78.7881 33.6335 79.2744 34.2468 79.5755 34.5008L95.16 21.6159C95.2435 21.5469 95.3414 21.4961 95.443 21.4671C95.5483 21.4381 95.6571 21.4345 95.7623 21.449C105.704 23.1072 116.942 22.2436 126.833 21.4744L127.334 21.4345C125.705 14.5766 119.928 6.16202 110.61 3.07778C107.733 2.15251 104.725 1.68806 101.702 1.69894L101.706 1.70258Z" fill="#182230"/>
<path d="M67.5942 8.74911C64.2414 7.23602 60.0723 7.50089 59.2631 10.8899C58.9402 12.2434 59.459 13.8689 61.0774 14.0721C56.8284 12.94 52.3834 12.7731 48.0619 13.5787C45.6453 14.0359 43.0473 15.0228 42.2925 16.9786C41.3201 19.4931 43.929 22.0549 46.6975 23.441C51.3275 25.7632 56.8792 26.5361 62.2421 26.3946C67.6051 26.2531 74.4158 24.6094 79.5501 22.7842C79.0385 22.8822 80.9326 21.6013 80.9471 21.2457C80.9471 21.2385 75.4644 12.3051 67.5978 8.75273L67.5942 8.74911Z" fill="#182230"/>
<path d="M61.0299 27.1494C55.3948 27.1494 50.3475 26.1044 46.3562 24.1014C43.1739 22.5049 40.4634 19.5948 41.5847 16.6884C42.5063 14.3117 45.5397 13.2667 47.92 12.8168C51.4361 12.16 55.0428 12.131 58.5697 12.7406C58.3774 12.0802 58.3629 11.3799 58.5298 10.7086C58.6713 10.0591 58.958 9.44949 59.3716 8.93061C59.7853 8.4081 60.3078 7.9872 60.9065 7.70054C62.7425 6.80067 65.424 6.93493 67.9023 8.05614C75.8996 11.6629 81.3568 20.462 81.5854 20.8358C81.6653 20.9664 81.7015 21.1152 81.6943 21.2676C81.6725 21.7502 81.2806 22.1058 80.5332 22.748L80.2683 22.9766C80.2356 23.0927 80.1739 23.2016 80.0941 23.2887C80.0107 23.3757 79.9091 23.4447 79.7929 23.4846C75.1085 25.1501 68.0402 26.9861 62.2527 27.1385C61.8427 27.1458 61.4326 27.153 61.0299 27.153V27.1494ZM53.4499 13.8182C51.6865 13.8182 49.9302 13.9815 48.1994 14.3081C46.5594 14.6165 43.7037 15.4111 42.9961 17.2363C42.2196 19.2429 44.5455 21.5034 47.0347 22.7516C51.0914 24.7872 56.3418 25.7778 62.2164 25.6218C67.681 25.4767 74.3574 23.7749 78.933 22.182C79.1253 21.9679 79.3321 21.7719 79.5571 21.5941C79.6805 21.4889 79.8655 21.3293 80.0179 21.1914C78.8133 19.3771 73.8712 12.4067 67.2854 9.43498C65.2353 8.5097 62.9965 8.35367 61.5778 9.05761C61.1787 9.24629 60.8267 9.52568 60.5545 9.87402C60.2824 10.2224 60.0901 10.6288 59.9994 11.0605C59.9196 11.3472 59.9014 11.6484 59.9413 11.9423C59.9812 12.2362 60.0828 12.5192 60.2352 12.7732C60.3586 12.9546 60.5291 13.0998 60.7287 13.1941L61.2694 13.3356C61.4544 13.3864 61.6104 13.5062 61.712 13.6658C61.8136 13.8291 61.8499 14.0214 61.81 14.2101C61.7737 14.3988 61.6649 14.5657 61.5125 14.6746C61.3565 14.787 61.1678 14.8378 60.9755 14.8124C60.7287 14.7834 60.4856 14.7217 60.2498 14.6346C58.0218 14.0904 55.7395 13.8146 53.4463 13.8146L53.4499 13.8182Z" fill="#182230"/>
<path d="M123.669 120.638C123.571 120.638 123.47 120.616 123.379 120.58C120.175 119.249 115.966 117.772 111.506 116.201C95.7297 110.66 77.8411 104.379 77.725 96.4651C77.685 93.7292 79.6698 90.1224 85.3485 88.1884C85.5371 88.1231 85.7476 88.1376 85.9254 88.2247C86.1068 88.3154 86.2411 88.4714 86.3064 88.6601C86.3717 88.8488 86.3572 89.0593 86.2701 89.2371C86.183 89.4185 86.0234 89.5527 85.8347 89.6181C80.9144 91.2908 79.2054 94.3387 79.238 96.4397C79.3396 103.298 98.2225 109.93 112.011 114.775C116.488 116.349 120.719 117.833 123.963 119.18C124.123 119.249 124.257 119.368 124.337 119.524C124.417 119.68 124.446 119.854 124.409 120.029C124.373 120.199 124.282 120.355 124.148 120.464C124.014 120.577 123.843 120.635 123.669 120.638Z" fill="#182230"/>
<path d="M126.434 123.479H126.379C116.546 122.783 106.462 121.93 96.7126 121.103C86.9628 120.279 76.8937 119.423 67.0749 118.726C63.0835 118.443 58.5588 118.124 54.4477 116.396C50.3365 114.669 47.8837 112.144 47.1435 108.885C45.663 102.376 51.5848 95.2893 52.7858 93.9359C61.262 84.382 71.948 78.5473 84.5535 76.5952C84.6514 76.5807 84.753 76.5843 84.8474 76.6061C84.9454 76.6279 85.0361 76.6714 85.1159 76.7295C85.1957 76.7875 85.2647 76.8601 85.3155 76.9472C85.3663 77.0306 85.4025 77.1286 85.4171 77.2229C85.4316 77.3209 85.4279 77.4225 85.4025 77.5168C85.3808 77.6148 85.3372 77.7055 85.2792 77.7854C85.2211 77.8652 85.1449 77.9341 85.0615 77.9849C84.978 78.0357 84.8837 78.072 84.7857 78.0865C72.5431 79.9842 62.1583 85.6484 53.9252 94.941C53.243 95.7139 47.285 102.644 48.6275 108.555C49.2516 111.309 51.4106 113.479 55.0427 115.007C58.9325 116.636 63.3158 116.952 67.191 117.224C77.0207 117.92 87.1043 118.773 96.8505 119.6C106.6 120.428 116.677 121.28 126.499 121.977C126.597 121.977 126.699 122.002 126.786 122.046C126.876 122.086 126.956 122.148 127.025 122.22C127.094 122.293 127.145 122.376 127.181 122.471C127.218 122.565 127.232 122.663 127.228 122.761C127.228 122.859 127.203 122.96 127.16 123.047C127.12 123.138 127.062 123.218 126.989 123.287C126.916 123.352 126.829 123.407 126.739 123.443C126.644 123.479 126.546 123.494 126.448 123.49L126.441 123.476L126.434 123.479Z" fill="#182230"/>
<path d="M126.434 123.479C126.289 123.479 126.147 123.432 126.028 123.352C125.944 123.298 125.872 123.229 125.817 123.145C125.763 123.066 125.723 122.971 125.701 122.873C125.679 122.775 125.679 122.677 125.701 122.579C125.719 122.481 125.755 122.387 125.81 122.307C130.937 114.528 136.245 106.483 140.973 98.2901C142.802 95.1224 144.551 91.7406 144.108 88.3008C143.629 84.5815 134.235 78.7324 122.838 76.7657C122.74 76.7476 122.646 76.7149 122.562 76.6605C122.479 76.6061 122.406 76.5371 122.348 76.4573C122.232 76.294 122.189 76.0908 122.221 75.8912C122.258 75.6917 122.366 75.5175 122.53 75.4014C122.693 75.2853 122.896 75.2417 123.096 75.2744C134.46 77.2374 144.979 83.2317 145.607 88.1085C146.111 92.0164 144.243 95.6521 142.283 99.0484C137.53 107.282 132.211 115.344 127.069 123.142C127 123.247 126.906 123.334 126.793 123.392C126.684 123.454 126.557 123.483 126.43 123.483L126.434 123.479Z" fill="#182230"/>
<path d="M123.669 120.638C123.586 120.638 123.499 120.624 123.419 120.595C123.23 120.529 123.074 120.388 122.987 120.206C122.9 120.025 122.889 119.818 122.955 119.629C123.481 118.116 124.25 116.172 125.125 113.893C127.977 106.545 132.748 94.2661 131.453 91.0694C130.288 88.1848 127.367 87.557 123.985 86.8277L123.506 86.7225C123.408 86.7007 123.318 86.6608 123.234 86.6063C123.154 86.5483 123.082 86.4757 123.031 86.3923C122.976 86.3088 122.94 86.2145 122.922 86.1165C122.904 86.0185 122.908 85.9169 122.929 85.8226C122.951 85.7282 122.991 85.6339 123.045 85.5504C123.1 85.467 123.172 85.398 123.259 85.3436C123.347 85.2892 123.437 85.2529 123.535 85.2348C123.633 85.2166 123.735 85.2202 123.829 85.2384L124.304 85.3436C127.791 86.0947 131.391 86.8676 132.857 90.4961C134.261 93.9541 130.825 103.392 126.532 114.437C125.654 116.694 124.9 118.646 124.37 120.127C124.319 120.272 124.225 120.399 124.098 120.489C123.971 120.58 123.822 120.627 123.666 120.631L123.669 120.638Z" fill="#182230"/>
<path d="M199.959 139.717C199.792 139.717 199.628 139.663 199.498 139.561C191.072 133.24 184.349 122.202 181.856 117.754L181.039 116.291C177.182 109.375 173.195 102.245 167.396 96.8751C161.387 91.3089 154.014 88.7218 144.863 88.9576C144.664 88.9613 144.468 88.8887 144.323 88.7508C144.177 88.6129 144.094 88.4206 144.087 88.221C144.079 88.0215 144.156 87.8255 144.293 87.6804C144.431 87.5353 144.624 87.4518 144.823 87.4445C154.392 87.1978 162.113 89.9192 168.423 95.7684C174.399 101.302 178.449 108.548 182.36 115.555L183.177 117.013C185.626 121.382 192.204 132.202 200.405 138.349C200.532 138.443 200.626 138.578 200.673 138.73C200.721 138.882 200.721 139.046 200.67 139.194C200.619 139.347 200.525 139.477 200.394 139.568C200.267 139.663 200.111 139.71 199.951 139.71H199.959V139.717Z" fill="#182230"/>
<path d="M125.676 241.439C123.55 241.439 121.957 239.109 120.745 237.331L120.436 236.881C117.842 233.151 113.332 231.337 108.963 229.584C94.7754 223.888 76.5493 215.738 61.2914 203.151C53.9255 197.066 47.6772 190.255 42.7424 182.9C37.3758 174.903 33.7001 166.51 31.8278 157.918C29.9083 149.115 30.3147 139.162 32.9563 129.887C35.6958 120.326 40.558 111.981 47.0313 105.798C47.1039 105.725 47.1873 105.667 47.2817 105.627C47.376 105.587 47.4776 105.569 47.5792 105.569C47.6808 105.569 47.7824 105.591 47.8731 105.631C47.9638 105.671 48.0509 105.729 48.1199 105.801C48.1888 105.874 48.2432 105.961 48.2795 106.059C48.3158 106.153 48.3303 106.255 48.3267 106.356C48.3231 106.458 48.2977 106.559 48.2541 106.65C48.2106 106.741 48.1489 106.824 48.0727 106.893C35.4854 118.918 29.4112 139.779 33.301 157.609C36.8134 173.72 47.0966 189.486 62.2602 201.997C77.3403 214.45 95.443 222.541 109.529 228.191C113.89 229.944 118.84 231.928 121.681 236.032L121.993 236.486C123.506 238.706 124.79 240.361 126.264 239.806C126.913 239.563 127.374 238.902 127.867 238.198C128.009 237.999 128.147 237.803 128.299 237.611C131.224 233.739 136.409 232.821 140.988 232.012L141.489 231.925C174.552 226.05 203.776 203.568 217.989 173.161C205.347 168.974 194.128 159.891 186.961 148.07C182.854 151.528 178.932 155.309 175.125 158.966C170.956 162.979 166.645 167.127 162.092 170.868C153.695 177.769 142.908 181.779 130.03 182.78C112.047 184.181 95.2761 174.935 86.2592 158.658C86.1685 158.484 86.1504 158.28 86.2084 158.092C86.2665 157.903 86.3935 157.747 86.564 157.653C86.7346 157.558 86.9378 157.533 87.1264 157.584C87.3151 157.635 87.4784 157.758 87.58 157.925C96.303 173.68 112.519 182.628 129.907 181.267C142.469 180.291 152.97 176.398 161.123 169.696C165.629 165.991 169.918 161.862 174.066 157.87C178.101 153.981 182.277 149.975 186.664 146.332C186.747 146.263 186.845 146.208 186.951 146.183C187.056 146.154 187.168 146.15 187.277 146.168C187.386 146.187 187.488 146.23 187.578 146.292C187.669 146.353 187.745 146.437 187.8 146.531C194.904 158.672 206.36 167.947 219.23 171.974C219.331 172.007 219.426 172.058 219.506 172.13C219.585 172.203 219.651 172.29 219.694 172.388C219.738 172.486 219.76 172.591 219.76 172.7C219.76 172.809 219.738 172.914 219.691 173.012C212.72 188.274 201.755 201.968 188.007 212.628C174.262 223.289 158.249 230.473 141.728 233.409L141.228 233.5C136.717 234.298 132.051 235.122 129.482 238.518C129.352 238.692 129.221 238.877 129.09 239.062C128.517 239.882 127.864 240.811 126.779 241.225C126.42 241.363 126.042 241.435 125.658 241.439H125.676Z" fill="#182230"/>
<path d="M203.014 176.84C201.74 176.815 200.485 176.528 199.327 175.998C192.535 173.081 185.691 166.637 178.405 156.303C178.34 156.223 178.293 156.129 178.264 156.031C178.235 155.929 178.228 155.824 178.242 155.722C178.257 155.617 178.293 155.519 178.347 155.432C178.402 155.345 178.474 155.265 178.561 155.207C178.645 155.145 178.743 155.105 178.844 155.084C178.946 155.062 179.051 155.062 179.153 155.084C179.254 155.105 179.352 155.149 179.436 155.207C179.519 155.269 179.592 155.345 179.643 155.436C186.751 165.527 193.395 171.797 199.933 174.605C202.005 175.494 203.809 175.552 205.289 174.779C208.181 173.266 209.066 169.046 209.074 169.006C209.114 168.807 209.23 168.636 209.397 168.524C209.563 168.411 209.77 168.371 209.966 168.411C210.162 168.451 210.336 168.567 210.449 168.734C210.558 168.901 210.601 169.104 210.561 169.304C210.521 169.507 209.531 174.275 206 176.118C205.082 176.601 204.055 176.848 203.018 176.837L203.014 176.84Z" fill="#182230"/>
<path d="M170.173 177.642C170.024 177.642 169.879 177.599 169.755 177.519C169.632 177.439 169.534 177.323 169.476 177.185C169.418 177.047 169.4 176.898 169.425 176.753C169.45 176.608 169.519 176.474 169.621 176.365C173.841 171.884 181.203 165.443 184.777 163.11C184.861 163.056 184.951 163.019 185.049 163.001C185.147 162.983 185.249 162.983 185.343 163.001C185.441 163.023 185.532 163.059 185.615 163.117C185.695 163.172 185.768 163.244 185.822 163.328C185.877 163.411 185.913 163.502 185.931 163.6C185.949 163.698 185.949 163.799 185.931 163.894C185.909 163.992 185.869 164.082 185.815 164.166C185.761 164.246 185.688 164.318 185.605 164.373C182.462 166.426 175.274 172.562 170.724 177.395C170.651 177.472 170.568 177.53 170.474 177.573C170.379 177.613 170.278 177.635 170.173 177.635V177.642Z" fill="#182230"/>
<path d="M184.904 177.287C184.752 177.287 184.606 177.243 184.479 177.16C184.356 177.076 184.258 176.956 184.2 176.819C184.142 176.681 184.128 176.525 184.16 176.379C184.189 176.231 184.265 176.096 184.371 175.991L190.423 169.972C190.492 169.903 190.579 169.848 190.67 169.808C190.764 169.772 190.862 169.75 190.96 169.754C191.062 169.754 191.16 169.776 191.25 169.812C191.341 169.852 191.424 169.906 191.493 169.979C191.562 170.048 191.617 170.135 191.657 170.226C191.693 170.32 191.711 170.418 191.711 170.516C191.711 170.617 191.689 170.715 191.653 170.806C191.613 170.897 191.559 170.98 191.486 171.049L185.437 177.069C185.296 177.207 185.104 177.287 184.904 177.283V177.287Z" fill="#182230"/>
<path d="M125.262 233.819C124.365 233.819 123.476 233.619 122.667 233.227C122.577 233.184 122.497 233.126 122.428 233.05C122.359 232.977 122.308 232.89 122.275 232.792C122.243 232.698 122.228 232.596 122.235 232.498C122.243 232.4 122.268 232.299 122.312 232.211C122.355 232.121 122.417 232.041 122.493 231.976C122.569 231.91 122.656 231.859 122.751 231.827C122.845 231.794 122.947 231.783 123.048 231.791C123.146 231.798 123.244 231.827 123.335 231.87C124.913 232.64 126.898 232.378 128.389 231.203C128.466 231.141 128.556 231.094 128.651 231.068C128.745 231.043 128.847 231.032 128.945 231.047C129.043 231.058 129.141 231.09 129.228 231.137C129.315 231.188 129.391 231.25 129.453 231.33C129.514 231.41 129.561 231.5 129.587 231.595C129.612 231.689 129.623 231.791 129.609 231.889C129.598 231.987 129.565 232.084 129.514 232.172C129.463 232.259 129.398 232.335 129.322 232.397C128.168 233.315 126.738 233.815 125.262 233.823V233.819Z" fill="#182230"/>
<path d="M200.456 233.83C198.678 233.83 196.998 232.103 195.688 230.738L195.329 230.368C192.303 227.288 187.894 226.359 183.627 225.459C182.397 225.201 180.212 224.661 178.286 224.182C176.987 223.859 175.753 223.554 174.944 223.369C174.846 223.347 174.752 223.307 174.668 223.253C174.585 223.198 174.512 223.122 174.461 223.039C174.407 222.955 174.371 222.857 174.352 222.759C174.334 222.661 174.338 222.56 174.36 222.462C174.381 222.364 174.425 222.269 174.483 222.19C174.541 222.11 174.617 222.037 174.701 221.986C174.788 221.936 174.882 221.899 174.98 221.885C175.078 221.87 175.18 221.874 175.281 221.899C176.101 222.088 177.339 222.393 178.645 222.719C180.561 223.195 182.727 223.732 183.935 223.982C188.217 224.882 193.068 225.901 196.407 229.312L196.773 229.69C198.537 231.511 199.981 232.846 201.156 232.092C201.679 231.758 201.976 231.054 202.288 230.306C202.375 230.089 202.466 229.875 202.561 229.672C204.505 225.459 209.045 223.67 213.04 222.092L213.471 221.921C235.551 213.187 254.314 195.124 264.957 172.388C265 172.297 265.058 172.218 265.131 172.152C265.203 172.087 265.29 172.032 265.385 172C265.479 171.967 265.577 171.949 265.679 171.956C265.777 171.96 265.875 171.985 265.965 172.029C266.056 172.072 266.136 172.13 266.201 172.207C266.266 172.279 266.321 172.366 266.354 172.461C266.386 172.555 266.401 172.653 266.397 172.755C266.393 172.853 266.368 172.951 266.324 173.041C255.519 196.133 236.462 214.464 214.027 223.34L213.595 223.514C209.672 225.06 205.619 226.66 203.936 230.317C203.849 230.51 203.765 230.706 203.682 230.905C203.312 231.791 202.891 232.796 201.969 233.383C201.519 233.681 200.989 233.837 200.452 233.837L200.456 233.83Z" fill="#182230"/>
<path d="M50.2646 253.558C50.0759 253.558 49.8909 253.485 49.753 253.358C49.6151 253.228 49.528 253.054 49.5135 252.865L44.0997 185.226C44.0852 185.026 44.1469 184.827 44.2775 184.674C44.4082 184.522 44.5932 184.427 44.7964 184.413C44.996 184.395 45.1955 184.46 45.3479 184.591C45.5003 184.721 45.5947 184.906 45.6128 185.11L51.0266 252.749C51.0338 252.847 51.0266 252.948 50.9939 253.043C50.9649 253.137 50.9141 253.228 50.8488 253.3C50.7835 253.377 50.7073 253.438 50.6166 253.485C50.5295 253.533 50.4315 253.558 50.3335 253.565H50.2682L50.2646 253.558Z" fill="#182230"/>
<path d="M176.221 254.995C176.029 254.995 175.844 254.919 175.702 254.788C175.565 254.654 175.477 254.472 175.467 254.28L173.66 221.507C173.656 221.409 173.667 221.308 173.703 221.213C173.736 221.119 173.787 221.032 173.856 220.959C173.921 220.887 174.001 220.825 174.091 220.782C174.182 220.738 174.28 220.713 174.378 220.709C174.476 220.702 174.578 220.716 174.668 220.749C174.763 220.782 174.85 220.832 174.922 220.901C174.995 220.967 175.057 221.046 175.1 221.137C175.144 221.228 175.165 221.322 175.173 221.424L176.98 254.193C176.991 254.393 176.922 254.589 176.787 254.741C176.653 254.89 176.468 254.98 176.265 254.991H176.218L176.221 254.995Z" fill="#182230"/>
<path d="M172.795 160.918C172.614 160.918 172.436 160.853 172.302 160.733C172.164 160.614 172.073 160.45 172.048 160.269C172.033 160.175 170.753 150.889 172.048 141.016C172.073 140.816 172.179 140.635 172.335 140.512C172.494 140.388 172.694 140.334 172.893 140.359C173.093 140.385 173.274 140.49 173.398 140.646C173.521 140.805 173.576 141.005 173.55 141.205C172.287 150.867 173.536 159.96 173.55 160.051C173.565 160.149 173.561 160.251 173.536 160.349C173.514 160.447 173.467 160.537 173.409 160.621C173.347 160.701 173.274 160.77 173.187 160.82C173.1 160.871 173.002 160.904 172.904 160.918C172.868 160.918 172.835 160.918 172.799 160.915L172.795 160.918Z" fill="#182230"/>
<path d="M143.626 146.212C143.441 146.212 143.263 146.143 143.121 146.02C142.983 145.896 142.896 145.726 142.875 145.541C142.853 145.356 142.904 145.171 143.009 145.018C143.118 144.866 143.277 144.761 143.459 144.717L153.379 142.417C153.477 142.395 153.579 142.391 153.673 142.406C153.771 142.424 153.865 142.456 153.949 142.511C154.032 142.562 154.105 142.631 154.163 142.714C154.221 142.794 154.261 142.885 154.286 142.983C154.308 143.081 154.312 143.182 154.294 143.276C154.275 143.374 154.243 143.469 154.188 143.552C154.138 143.636 154.069 143.708 153.989 143.766C153.909 143.824 153.818 143.864 153.72 143.886L143.8 146.187C143.742 146.201 143.684 146.205 143.626 146.205V146.212Z" fill="#182230"/>
<path d="M141.427 151.756C141.242 151.756 141.064 151.687 140.923 151.564C140.781 151.441 140.698 151.27 140.676 151.085C140.654 150.9 140.701 150.715 140.81 150.563C140.919 150.41 141.075 150.305 141.256 150.261L157.792 146.43C157.987 146.383 158.194 146.419 158.361 146.524C158.532 146.629 158.652 146.8 158.699 146.996C158.746 147.192 158.71 147.399 158.604 147.565C158.499 147.736 158.329 147.856 158.133 147.903L141.597 151.735C141.539 151.749 141.481 151.756 141.423 151.756H141.427Z" fill="#182230"/>
<path d="M303.908 68.2169C303.829 68.2169 303.749 68.2024 303.673 68.177C303.527 68.1299 303.4 68.0392 303.306 67.9194C303.212 67.7997 303.157 67.6545 303.15 67.5021L302.889 62.8975C302.878 62.698 302.947 62.4984 303.081 62.3496C303.215 62.2009 303.404 62.1102 303.604 62.0993C303.803 62.0884 304.003 62.1573 304.152 62.2916C304.3 62.4258 304.391 62.6145 304.406 62.8141L304.558 65.4847L309.576 59.3634C309.703 59.211 309.888 59.1203 310.084 59.1021C310.284 59.084 310.476 59.1457 310.632 59.2727C310.784 59.3997 310.882 59.5775 310.904 59.777C310.926 59.973 310.868 60.1725 310.745 60.3286L304.496 67.9521C304.427 68.0392 304.337 68.1081 304.235 68.1589C304.133 68.2097 304.021 68.2315 303.912 68.2315L303.908 68.2169Z" fill="#182230"/>
<path d="M296.314 94.9737C296.234 94.9737 296.155 94.9628 296.082 94.9374C295.937 94.8902 295.81 94.7995 295.715 94.6798C295.621 94.56 295.57 94.4113 295.559 94.2625L295.298 89.6543C295.291 89.5563 295.305 89.4547 295.338 89.3604C295.371 89.266 295.422 89.1789 295.487 89.1064C295.552 89.0302 295.636 88.9721 295.723 88.9286C295.813 88.885 295.908 88.8596 296.009 88.856C296.107 88.8488 296.209 88.8633 296.303 88.8959C296.398 88.9286 296.485 88.9794 296.557 89.0447C296.63 89.11 296.692 89.1935 296.735 89.2805C296.779 89.3713 296.804 89.4656 296.808 89.5672L296.96 92.2305L301.978 86.1092C302.04 86.0294 302.116 85.9641 302.207 85.9169C302.294 85.8661 302.392 85.8371 302.494 85.8262C302.592 85.8153 302.693 85.8262 302.791 85.8516C302.885 85.8806 302.976 85.9278 303.056 85.9931C303.132 86.0584 303.197 86.1346 303.245 86.2253C303.292 86.3124 303.321 86.4104 303.328 86.512C303.335 86.6136 303.328 86.7116 303.295 86.8095C303.266 86.9039 303.216 86.9946 303.15 87.0708L296.902 94.6943C296.829 94.7814 296.742 94.854 296.641 94.9011C296.539 94.9519 296.427 94.9737 296.314 94.9737Z" fill="#182230"/>
<path d="M288.509 122.442C288.429 122.442 288.35 122.431 288.273 122.405C288.128 122.358 288.001 122.267 287.911 122.148C287.816 122.028 287.762 121.883 287.755 121.73L287.493 117.122C287.482 116.923 287.551 116.727 287.686 116.574C287.82 116.425 288.009 116.335 288.208 116.324C288.408 116.313 288.607 116.382 288.756 116.516C288.905 116.65 288.996 116.839 289.006 117.039L289.159 119.706L294.177 113.584C294.304 113.432 294.489 113.341 294.685 113.323C294.885 113.305 295.077 113.367 295.233 113.494C295.385 113.617 295.483 113.798 295.505 113.998C295.527 114.198 295.469 114.394 295.345 114.55L289.097 122.173C289.028 122.26 288.937 122.329 288.836 122.376C288.734 122.423 288.622 122.449 288.513 122.449L288.509 122.442Z" fill="#182230"/>
<path d="M110.737 70.4594C107.112 70.4812 103.552 69.5269 100.425 67.6909C100.334 67.6437 100.251 67.5784 100.185 67.4986C100.12 67.4187 100.073 67.328 100.044 67.2264C100.015 67.1285 100.007 67.0232 100.022 66.9216C100.036 66.82 100.069 66.7221 100.124 66.6314C100.178 66.5443 100.247 66.4644 100.33 66.4064C100.414 66.3447 100.508 66.3048 100.61 66.283C100.711 66.2612 100.817 66.2612 100.915 66.2794C101.016 66.2975 101.11 66.3374 101.198 66.3955C107.127 69.9224 114.017 69.2366 118.484 67.4187C120.973 66.4064 122.878 65.1945 124.3 63.7068C126.274 61.653 127.66 58.6668 128.426 54.8459C130.135 46.2935 128.313 30.7889 127.693 27.5958C127.66 27.3998 127.704 27.2002 127.816 27.0406C127.929 26.8773 128.099 26.7685 128.295 26.7285C128.488 26.6923 128.687 26.7285 128.854 26.8374C129.017 26.9463 129.134 27.1132 129.177 27.3055C129.808 30.5457 131.663 46.3697 129.91 55.1398C129.086 59.2582 127.566 62.4876 125.393 64.759C123.818 66.4028 121.746 67.7308 119.053 68.823C116.412 69.8934 113.589 70.4486 110.737 70.4486V70.4594Z" fill="#182230"/>
<path d="M124.664 92.7965C124.493 92.7965 124.33 92.7421 124.199 92.6369C124.068 92.5317 123.97 92.3865 123.931 92.2232C122.617 86.951 121.841 78.228 121.612 66.2902C121.608 66.0906 121.685 65.8947 121.822 65.7496C121.96 65.6044 122.153 65.521 122.352 65.5173C122.552 65.5137 122.748 65.5899 122.893 65.7278C123.038 65.8657 123.121 66.058 123.125 66.2576C123.404 80.9857 124.515 88.3008 125.396 91.8568C125.444 92.0527 125.415 92.2559 125.309 92.4301C125.208 92.6006 125.037 92.724 124.845 92.7748C124.783 92.7857 124.722 92.7929 124.66 92.7929L124.664 92.7965Z" fill="#182230"/>
<path d="M114.895 48.7827C114.71 48.7827 114.532 48.7174 114.391 48.594C114.253 48.4706 114.162 48.3037 114.141 48.1187C114.119 47.9336 114.162 47.7485 114.268 47.5961C114.373 47.4437 114.529 47.3349 114.71 47.2914C115.654 47.0591 116.873 46.5656 117.341 45.5642C117.435 45.3283 117.475 45.0779 117.457 44.824C117.439 44.57 117.363 44.3268 117.232 44.1091C117.167 43.9785 117.069 43.8697 116.953 43.7862C116.833 43.7027 116.695 43.6519 116.554 43.6338C116.354 43.6338 116.158 43.6592 115.962 43.6991C115.512 43.7789 114.953 43.8769 114.384 43.6338C113.317 43.173 113.114 41.9066 113.03 41.3551L111.782 33.4885C111.757 33.2925 111.807 33.0966 111.927 32.9369C112.043 32.7809 112.221 32.6757 112.413 32.643C112.609 32.6104 112.805 32.6575 112.969 32.77C113.132 32.8825 113.241 33.053 113.277 33.249L114.525 41.1156C114.565 41.3624 114.681 42.1135 114.986 42.2441C115.225 42.2876 115.469 42.2767 115.701 42.2078C116.009 42.1425 116.325 42.1135 116.637 42.1207C117.029 42.1497 117.406 42.2767 117.736 42.4872C118.067 42.6976 118.339 42.9879 118.531 43.329C118.785 43.7608 118.937 44.2434 118.966 44.7441C118.999 45.2449 118.908 45.742 118.709 46.2028C118.139 47.4256 116.88 48.3037 115.073 48.7536C115.011 48.7718 114.95 48.779 114.888 48.7827H114.895Z" fill="#182230"/>
<path d="M102.297 46.0322C102.123 46.0322 101.952 45.9669 101.818 45.8544C101.684 45.7419 101.593 45.5859 101.56 45.4117C101.528 45.2375 101.557 45.0597 101.64 44.9073C101.724 44.7549 101.862 44.6352 102.025 44.5699L105.886 43.0568C106.071 42.9915 106.274 42.9987 106.455 43.0822C106.633 43.1656 106.775 43.3108 106.847 43.4958C106.92 43.6809 106.916 43.8841 106.84 44.0655C106.764 44.2469 106.619 44.3921 106.437 44.4683L102.576 45.9814C102.489 46.0177 102.395 46.0358 102.301 46.0358L102.297 46.0322Z" fill="#FFD966"/>
<path d="M129.486 56.5114C129.304 56.5114 129.127 56.4461 128.989 56.33C128.851 56.2103 128.76 56.047 128.731 55.8656C128.706 55.6841 128.746 55.5027 128.844 55.3467C128.942 55.1943 129.094 55.0818 129.268 55.031C131.093 54.4867 135.005 51.2138 133.873 46.3516C133.397 44.3124 131.26 43.5649 130.201 43.7209C130.103 43.7354 130.001 43.7282 129.907 43.7064C129.812 43.681 129.722 43.6375 129.642 43.5794C129.562 43.5213 129.497 43.4451 129.442 43.3617C129.391 43.2746 129.359 43.1803 129.344 43.0823C129.33 42.9843 129.337 42.8827 129.359 42.7884C129.384 42.6904 129.428 42.6033 129.486 42.5235C129.544 42.4437 129.62 42.3784 129.707 42.3276C129.791 42.2768 129.889 42.2441 129.987 42.2296C131.804 41.9683 134.682 43.1367 135.353 46.0141C136.688 51.7436 132.262 55.7204 129.711 56.486C129.638 56.5078 129.566 56.5187 129.489 56.5187L129.486 56.5114Z" fill="#182230"/>
<path d="M103.125 35.2374H103.096C102.907 35.2737 102.777 35.4515 102.806 35.6401L103.368 39.1489C103.397 39.3376 103.578 39.4682 103.767 39.4356H103.796C103.985 39.3993 104.115 39.2215 104.083 39.0328L103.52 35.524C103.491 35.3353 103.31 35.2047 103.121 35.2337L103.125 35.2374Z" fill="#182230"/>
<path d="M103.709 40.7418C103.317 40.7418 102.94 40.604 102.642 40.35C102.344 40.096 102.149 39.744 102.087 39.3594L101.524 35.8506C101.492 35.6365 101.499 35.4188 101.55 35.2084C101.601 34.9979 101.691 34.802 101.818 34.6242C101.945 34.45 102.105 34.3012 102.286 34.1887C102.471 34.0763 102.675 34.0001 102.889 33.9674H102.925C103.353 33.9021 103.792 34.0073 104.144 34.2613C104.496 34.5153 104.732 34.8999 104.801 35.3317L105.363 38.8405C105.432 39.2723 105.327 39.7113 105.073 40.0633C104.819 40.4153 104.435 40.6548 104.003 40.7237H103.977C103.89 40.7382 103.803 40.7418 103.712 40.7418H103.709Z" fill="#182230"/>
<path d="M125.578 42.3021H125.538L121.398 42.0844C121.198 42.0735 121.01 41.9828 120.875 41.834C120.741 41.6853 120.672 41.4893 120.683 41.2861C120.694 41.0866 120.785 40.8979 120.933 40.7636C121.082 40.6294 121.278 40.5604 121.481 40.5713L125.621 40.789C125.821 40.7963 126.013 40.8797 126.151 41.0249C126.289 41.17 126.365 41.366 126.358 41.5655C126.351 41.7651 126.267 41.9574 126.122 42.0953C125.977 42.2332 125.781 42.3094 125.582 42.3021H125.578Z" fill="#FFD966"/>
<path d="M122.33 36.4784H122.359C122.548 36.4421 122.678 36.2643 122.646 36.0756L122.083 32.5669C122.054 32.3782 121.873 32.2476 121.684 32.2802H121.655C121.466 32.3165 121.336 32.4943 121.369 32.683L121.931 36.1918C121.96 36.3804 122.141 36.5111 122.33 36.4784Z" fill="#182230"/>
<path d="M122.276 37.7774C121.884 37.7774 121.507 37.6358 121.209 37.3855C120.912 37.1315 120.716 36.7831 120.65 36.3949L120.088 32.8861C120.055 32.672 120.063 32.4543 120.113 32.2439C120.164 32.0334 120.255 31.8375 120.382 31.6597C120.509 31.4855 120.668 31.3367 120.854 31.2242C121.039 31.1118 121.242 31.0356 121.456 31.0029H121.481C121.913 30.934 122.352 31.0392 122.704 31.2932C123.06 31.5472 123.296 31.9354 123.364 32.3636L123.927 35.8724C123.996 36.3042 123.891 36.7432 123.637 37.0952C123.383 37.4472 122.998 37.6866 122.566 37.7556H122.541C122.454 37.7701 122.367 37.7737 122.276 37.7737V37.7774Z" fill="#182230"/>
<path d="M122.265 67.0159L122.548 72.4297C122.548 72.4297 112.261 71.0654 103.836 68.4855C103.836 68.4855 113.484 73.1518 122.265 67.0196V67.0159Z" fill="#182230"/>
<path d="M122.548 73.1881C122.515 73.1881 122.483 73.1881 122.45 73.1881C122.37 73.1881 116.318 72.3681 109.725 70.8405C107.577 70.6119 105.479 70.0531 103.502 69.175C103.328 69.0915 103.193 68.9464 103.124 68.7722C103.056 68.5944 103.056 68.3948 103.124 68.217C103.193 68.0392 103.328 67.8941 103.502 67.8107C103.676 67.7272 103.872 67.7127 104.053 67.7707C105.871 68.3295 107.783 68.8303 109.67 69.2729C113.07 69.6866 117.58 69.3782 121.837 66.4064C121.946 66.3302 122.076 66.283 122.21 66.2722C122.345 66.2613 122.483 66.2867 122.602 66.3484C122.726 66.4064 122.827 66.4971 122.904 66.6096C122.976 66.7221 123.02 66.8527 123.027 66.987L123.31 72.3898C123.317 72.4987 123.295 72.6112 123.255 72.7128C123.216 72.8144 123.15 72.9087 123.07 72.9849C122.929 73.1155 122.744 73.1881 122.548 73.1845V73.1881ZM115.915 70.5756C118.495 71.0582 120.61 71.3847 121.75 71.5517L121.583 68.3658C119.834 69.4181 117.918 70.1656 115.915 70.5756Z" fill="#182230"/>
<path d="M191.577 154.177C191.428 154.177 191.287 154.137 191.163 154.053C191.04 153.973 190.942 153.857 190.884 153.723C190.826 153.589 190.808 153.436 190.833 153.291C190.858 153.146 190.927 153.012 191.025 152.903C197.586 145.838 203.086 140.443 207.938 135.686C210.409 133.262 212.749 130.969 214.868 128.795C220.104 123.439 229.629 114.666 234.633 116.113C235.565 116.386 236.766 117.144 237.213 119.234C237.245 119.426 237.205 119.622 237.093 119.785C236.984 119.949 236.814 120.061 236.625 120.101C236.433 120.141 236.233 120.108 236.07 120.007C235.903 119.905 235.783 119.742 235.736 119.553C235.496 118.447 234.999 117.797 234.223 117.572C231.864 116.89 225.83 119.76 215.964 129.858C213.831 132.043 211.49 134.339 209.008 136.774C204.168 141.528 198.685 146.901 192.154 153.944C192.081 154.021 191.99 154.082 191.893 154.126C191.795 154.166 191.689 154.187 191.58 154.184L191.577 154.177Z" fill="#182230"/>
<path d="M243.878 131.056C243.693 131.056 243.519 130.987 243.381 130.867C243.243 130.744 243.156 130.58 243.135 130.395C243.113 130.214 243.156 130.029 243.258 129.876C243.36 129.724 243.516 129.615 243.69 129.568L247.021 128.704C247.213 128.661 247.413 128.694 247.583 128.795C247.754 128.897 247.873 129.06 247.924 129.252C247.975 129.445 247.946 129.644 247.852 129.818C247.754 129.989 247.594 130.116 247.405 130.17L244.074 131.034C244.013 131.052 243.947 131.059 243.882 131.056H243.878Z" fill="#182230"/>
<path d="M247.775 144.543C247.59 144.543 247.409 144.474 247.271 144.347C247.133 144.224 247.042 144.049 247.024 143.864C247.006 143.679 247.053 143.491 247.162 143.342C247.271 143.189 247.434 143.084 247.616 143.044L250.827 142.344C250.925 142.322 251.027 142.322 251.121 142.337C251.219 142.355 251.313 142.391 251.397 142.446C251.48 142.5 251.553 142.569 251.611 142.649C251.669 142.729 251.705 142.823 251.727 142.921C251.749 143.019 251.749 143.12 251.734 143.215C251.716 143.313 251.68 143.407 251.625 143.491C251.571 143.574 251.502 143.647 251.422 143.705C251.342 143.763 251.248 143.803 251.15 143.824L247.939 144.528C247.884 144.539 247.83 144.543 247.775 144.543Z" fill="#182230"/>
<path d="M310.16 108.533C309.961 108.533 309.765 108.461 309.62 108.323C309.475 108.185 309.391 107.993 309.388 107.793C309.384 107.594 309.46 107.398 309.598 107.253C309.736 107.107 309.928 107.024 310.128 107.02C315.371 106.817 320.084 106.258 320.219 101.694C320.262 100.144 319.856 98.9287 319.003 98.0833C318.1 97.1834 316.666 96.7226 314.965 96.7879C314.685 96.7988 314.384 96.8242 314.068 96.8677C313.869 96.8931 313.669 96.8423 313.51 96.719C313.35 96.5956 313.245 96.4178 313.219 96.2182C313.194 96.0187 313.248 95.8191 313.368 95.6594C313.491 95.4998 313.669 95.3946 313.869 95.3692C314.213 95.322 314.562 95.2893 314.91 95.2785C317.029 95.1986 318.865 95.8191 320.074 97.0056C321.213 98.1413 321.79 99.7742 321.732 101.734C321.547 108.087 314.435 108.363 310.189 108.53L310.164 108.537L310.16 108.533Z" fill="#182230"/>
<path d="M316.09 96.6137C315.963 96.6065 315.839 96.5702 315.727 96.5049C315.618 96.4395 315.523 96.3525 315.455 96.2436C315.404 96.1565 315.367 96.0585 315.353 95.9569C315.338 95.8553 315.346 95.7501 315.375 95.6522C315.404 95.5542 315.451 95.4598 315.513 95.38C315.578 95.3002 315.658 95.2349 315.748 95.1841C318.644 93.4206 321.206 91.5556 320.767 88.1593C320.513 86.1999 319.192 84.7013 317.233 84.128C317.138 84.0989 317.047 84.0518 316.971 83.9901C316.895 83.9284 316.83 83.8522 316.783 83.7615C316.735 83.6744 316.706 83.5764 316.695 83.4785C316.685 83.3805 316.696 83.2789 316.725 83.1846C316.754 83.0902 316.801 82.9995 316.862 82.9233C316.928 82.8435 317.004 82.7818 317.091 82.7346C317.178 82.6875 317.276 82.6584 317.374 82.6475C317.472 82.6367 317.574 82.6475 317.668 82.6729C320.222 83.4095 321.946 85.3907 322.28 87.9633C322.875 92.557 319.01 94.97 316.634 96.4214L316.55 96.4722C316.412 96.5593 316.253 96.6028 316.09 96.6065V96.6137Z" fill="#182230"/>
<path d="M317.399 84.1027C317.225 84.1027 317.055 84.041 316.917 83.9321C316.782 83.8196 316.688 83.6636 316.655 83.4931C316.623 83.3189 316.652 83.1411 316.735 82.9851C316.819 82.8291 316.957 82.7093 317.12 82.644C317.642 82.4553 318.114 82.1396 318.491 81.7296C318.869 81.316 319.137 80.8225 319.279 80.2818C319.388 79.85 319.391 79.3965 319.29 78.9647C319.188 78.5329 318.981 78.1301 318.687 77.7963C318.553 77.6439 318.488 77.448 318.502 77.2484C318.513 77.0488 318.608 76.8602 318.76 76.7295C318.909 76.5953 319.108 76.53 319.308 76.5445C319.507 76.5554 319.696 76.6497 319.827 76.7985C320.28 77.3137 320.603 77.9342 320.763 78.6018C320.926 79.2695 320.923 79.9662 320.752 80.6338C320.386 82.1723 319.268 83.4169 317.69 84.0519C317.599 84.0882 317.501 84.1063 317.403 84.1063L317.399 84.1027Z" fill="#182230"/>
<path d="M112.431 56.5223C110.78 56.5223 109.137 56.2865 107.555 55.8111C107.457 55.7857 107.362 55.7422 107.279 55.6805C107.195 55.6188 107.13 55.5426 107.079 55.4519C107.028 55.3612 106.996 55.2632 106.985 55.1616C106.974 55.06 106.985 54.9584 107.01 54.8605C107.039 54.7625 107.09 54.6718 107.155 54.5919C107.221 54.5121 107.301 54.4504 107.391 54.4033C107.482 54.3561 107.584 54.3307 107.685 54.3234C107.787 54.3162 107.888 54.3307 107.986 54.3633C112.863 55.8293 118.549 54.6827 122.479 51.4424C122.555 51.3771 122.646 51.3263 122.74 51.2936C122.834 51.261 122.94 51.2501 123.037 51.2573C123.139 51.2646 123.237 51.2936 123.324 51.3408C123.411 51.388 123.495 51.4533 123.556 51.5295C123.622 51.6057 123.669 51.6964 123.698 51.7944C123.727 51.8923 123.734 51.9939 123.723 52.0919C123.712 52.1935 123.68 52.2878 123.633 52.3785C123.582 52.4656 123.516 52.5455 123.437 52.6071C120.327 55.1435 116.441 56.5259 112.428 56.5187L112.431 56.5223Z" fill="#182230"/>
<path d="M95.2689 53.79H95.2073C95.0077 53.7755 94.8226 53.6811 94.692 53.5287C94.5614 53.3764 94.4961 53.1804 94.5142 52.9808C94.5432 52.7051 94.6303 52.4366 94.7682 52.1971C94.9061 51.9576 95.0948 51.7471 95.3161 51.5839C95.5411 51.4206 95.7951 51.3045 96.0672 51.2464C96.3394 51.1884 96.6187 51.1847 96.8909 51.2392C96.9889 51.2609 97.0832 51.3008 97.1667 51.3553C97.2501 51.4133 97.3191 51.4859 97.3735 51.5694C97.4279 51.6528 97.4642 51.7471 97.4823 51.8487C97.5005 51.9467 97.4969 52.0483 97.4751 52.1463C97.4533 52.2443 97.4098 52.3386 97.3517 52.4184C97.2937 52.5019 97.2175 52.5708 97.134 52.6216C97.0469 52.6724 96.9526 52.7087 96.8546 52.7232C96.7566 52.7377 96.655 52.7341 96.5571 52.7087C96.499 52.7014 96.4373 52.7051 96.3793 52.7196C96.3212 52.7341 96.2668 52.7631 96.2232 52.803C96.1724 52.8357 96.1289 52.8792 96.0999 52.93C96.0672 52.9808 96.0454 53.0389 96.0346 53.097C96.02 53.2856 95.933 53.4634 95.7914 53.5941C95.6499 53.7211 95.4649 53.7936 95.2762 53.79H95.2689Z" fill="#182230"/>
<path d="M127.588 48.2674C127.418 48.2674 127.254 48.2093 127.12 48.1041C126.986 47.9989 126.892 47.8501 126.855 47.6868C126.812 47.5743 126.728 47.4836 126.619 47.4292C126.514 47.3748 126.391 47.3602 126.275 47.3893C126.09 47.4655 125.879 47.4618 125.694 47.3856C125.509 47.3094 125.364 47.1607 125.288 46.972C125.212 46.7869 125.215 46.5765 125.291 46.3914C125.371 46.2064 125.52 46.0612 125.705 45.985C125.963 45.8871 126.242 45.8472 126.518 45.8653C126.794 45.8834 127.062 45.956 127.309 46.083C127.556 46.21 127.773 46.3842 127.947 46.6019C128.122 46.816 128.249 47.0663 128.321 47.3312C128.347 47.4292 128.35 47.5272 128.336 47.6251C128.321 47.7231 128.285 47.8174 128.234 47.9009C128.183 47.9844 128.114 48.0606 128.035 48.1186C127.955 48.1767 127.864 48.2202 127.766 48.242C127.708 48.2565 127.646 48.2601 127.588 48.2601V48.2674Z" fill="#182230"/>
<path d="M96.1902 32.5885C96.0451 32.5885 95.8999 32.545 95.7766 32.4652C95.6532 32.3853 95.5589 32.2692 95.4972 32.135C95.4391 32.0007 95.421 31.8519 95.4427 31.7068C95.4681 31.5616 95.5335 31.4274 95.6314 31.3185C97.7178 29.0652 100.519 27.6066 103.56 27.1857C103.759 27.1566 103.959 27.2074 104.122 27.3272C104.282 27.4469 104.391 27.6247 104.416 27.8243C104.445 28.0238 104.394 28.2234 104.275 28.3867C104.155 28.5464 103.977 28.6552 103.777 28.6806C101.089 29.0689 98.6104 30.3606 96.7526 32.3418C96.6801 32.4216 96.593 32.4833 96.495 32.5232C96.397 32.5667 96.2918 32.5849 96.1866 32.5849L96.1902 32.5885Z" fill="#182230"/>
<path d="M126.079 27.1132C125.981 27.1132 125.883 27.095 125.792 27.0587C123.27 26.0427 120.48 25.9194 117.878 26.7068C117.784 26.7358 117.682 26.7467 117.584 26.7394C117.486 26.7285 117.388 26.7031 117.301 26.656C117.214 26.6088 117.134 26.5471 117.073 26.4709C117.011 26.3947 116.96 26.3076 116.931 26.2097C116.902 26.1153 116.891 26.0137 116.902 25.9157C116.913 25.8178 116.942 25.7198 116.986 25.6327C117.033 25.5456 117.094 25.4658 117.174 25.4041C117.25 25.3424 117.341 25.2916 117.435 25.2626C120.371 24.3591 123.528 24.5006 126.369 25.6618C126.532 25.7271 126.666 25.8504 126.75 26.0028C126.833 26.1589 126.859 26.3367 126.826 26.5072C126.793 26.6777 126.699 26.8338 126.565 26.9462C126.427 27.0587 126.26 27.1168 126.082 27.1168L126.079 27.1132Z" fill="#182230"/>
<path d="M146.101 131.386L144.555 131.745L146.405 139.735L147.951 139.376L146.101 131.386Z" fill="#FFBC00"/>
<path d="M146.394 140.501C146.224 140.501 146.057 140.443 145.926 140.334C145.792 140.229 145.698 140.08 145.661 139.913L143.811 131.919C143.789 131.821 143.785 131.72 143.8 131.622C143.814 131.524 143.851 131.429 143.905 131.346C143.956 131.262 144.029 131.19 144.108 131.132C144.188 131.074 144.283 131.034 144.377 131.008L145.923 130.649C146.021 130.627 146.119 130.624 146.217 130.642C146.315 130.66 146.409 130.693 146.492 130.747C146.576 130.798 146.648 130.867 146.706 130.947C146.764 131.027 146.804 131.117 146.83 131.215L148.68 139.213C148.702 139.311 148.706 139.408 148.691 139.506C148.677 139.604 148.64 139.699 148.586 139.782C148.535 139.866 148.463 139.938 148.383 139.996C148.303 140.054 148.209 140.094 148.114 140.116L146.569 140.475C146.51 140.49 146.452 140.493 146.394 140.497V140.501Z" fill="#FFD966"/>
<path d="M172.415 144.913L176.221 156.869L172.8 160.16C172.8 160.16 172.005 155.407 172.419 144.913H172.415Z" fill="#182230"/>
<path d="M172.795 160.918C172.716 160.918 172.632 160.904 172.556 160.878C172.425 160.835 172.309 160.759 172.219 160.654C172.128 160.548 172.07 160.421 172.048 160.287C172.015 160.091 171.246 155.334 171.66 144.884C171.667 144.706 171.736 144.539 171.856 144.405C171.975 144.274 172.139 144.187 172.313 144.166C172.487 144.144 172.668 144.18 172.817 144.274C172.966 144.369 173.078 144.514 173.133 144.681L176.939 156.637C176.983 156.771 176.986 156.916 176.95 157.05C176.914 157.188 176.841 157.312 176.74 157.41L173.314 160.701C173.176 160.839 172.988 160.915 172.792 160.915L172.795 160.918ZM173.057 149.431C173.002 152.478 173.108 155.526 173.365 158.564L175.357 156.651L173.057 149.431Z" fill="#182230"/>
<path d="M285.117 55.666C285.022 55.666 284.924 55.6478 284.834 55.6115C271.002 50.0526 247.565 44.2289 240.707 42.5779C240.609 42.5561 240.511 42.5162 240.428 42.4618C240.344 42.4074 240.272 42.3312 240.217 42.2441C240.163 42.157 240.127 42.0627 240.108 41.9611C240.09 41.8595 240.098 41.7579 240.119 41.6599C240.141 41.5619 240.185 41.4676 240.246 41.3877C240.308 41.3043 240.384 41.239 240.471 41.1846C240.558 41.1338 240.656 41.1011 240.758 41.0866C240.86 41.0721 240.961 41.0829 241.059 41.1083C247.942 42.7666 271.484 48.6121 285.396 54.2073C285.559 54.2726 285.697 54.3924 285.781 54.5484C285.864 54.7044 285.893 54.8822 285.86 55.0564C285.828 55.2305 285.733 55.3866 285.599 55.4954C285.461 55.6079 285.291 55.6696 285.117 55.666Z" fill="#182230"/>
<path d="M273.806 60.5935C273.726 60.5935 273.643 60.5826 273.563 60.5536C261.821 56.6022 249.361 52.8902 238.461 50.1107C238.363 50.089 238.268 50.0454 238.189 49.9874C238.105 49.9293 238.036 49.8531 237.985 49.766C237.931 49.679 237.898 49.5846 237.884 49.483C237.869 49.3814 237.873 49.2798 237.898 49.1818C237.924 49.0839 237.967 48.9932 238.029 48.9097C238.091 48.8299 238.167 48.7609 238.254 48.7101C238.341 48.6593 238.439 48.6267 238.54 48.6158C238.638 48.6049 238.74 48.6122 238.838 48.6376C249.767 51.4279 262.271 55.1471 274.049 59.1131C274.22 59.1712 274.361 59.2873 274.452 59.4397C274.543 59.5921 274.579 59.7735 274.55 59.9513C274.521 60.1291 274.43 60.2887 274.296 60.4049C274.158 60.521 273.987 60.5863 273.81 60.5863L273.806 60.5935Z" fill="#182230"/>
<path d="M276.745 82.5097C276.647 82.5097 276.546 82.4879 276.455 82.4517C261.774 76.363 248.795 72.5313 233.073 69.6321C232.971 69.6176 232.877 69.5813 232.79 69.5305C232.702 69.4761 232.63 69.4071 232.568 69.3237C232.507 69.2402 232.467 69.1459 232.445 69.0479C232.423 68.9499 232.423 68.8483 232.438 68.7467C232.456 68.6488 232.496 68.5508 232.55 68.4673C232.605 68.3839 232.677 68.3113 232.764 68.2533C232.848 68.1988 232.942 68.1589 233.044 68.1408C233.142 68.1226 233.247 68.1226 233.345 68.1444C249.18 71.0617 262.246 74.9225 277.032 81.051C277.195 81.1164 277.33 81.2397 277.413 81.3921C277.497 81.5481 277.522 81.7259 277.489 81.8965C277.457 82.0707 277.362 82.2231 277.228 82.3355C277.09 82.4444 276.92 82.5061 276.745 82.5061V82.5097Z" fill="#182230"/>
<path d="M259.205 83.9866C259.111 83.9866 259.016 83.9684 258.926 83.9321C253.9 81.9473 242.594 78.7724 231.538 76.7985C231.44 76.784 231.342 76.7477 231.255 76.6969C231.168 76.6461 231.095 76.5735 231.033 76.4937C230.975 76.4138 230.932 76.3195 230.91 76.2215C230.888 76.1236 230.885 76.022 230.903 75.9204C230.921 75.8188 230.957 75.7244 231.012 75.641C231.066 75.5575 231.139 75.4813 231.222 75.4269C231.305 75.3688 231.4 75.3325 231.498 75.3108C231.596 75.289 231.697 75.2926 231.799 75.3108C243.073 77.3173 254.256 80.4596 259.477 82.5206C259.641 82.586 259.778 82.7057 259.862 82.8581C259.949 83.0141 259.978 83.1919 259.942 83.3661C259.909 83.5402 259.818 83.6963 259.681 83.8088C259.543 83.9212 259.372 83.9829 259.198 83.9829L259.205 83.9866Z" fill="#182230"/>
<path d="M194.708 150.04C194.708 150.04 191.058 147.34 187.161 146.923C187.161 146.923 188.619 149.285 191.37 153.157L194.708 150.04Z" fill="#182230"/>
<path d="M191.374 153.912H191.29C191.182 153.901 191.08 153.865 190.986 153.81C190.891 153.756 190.811 153.683 190.75 153.596C188.017 149.746 186.526 147.344 186.512 147.33C186.435 147.21 186.399 147.072 186.399 146.927C186.399 146.785 186.439 146.647 186.515 146.528C186.591 146.408 186.7 146.314 186.827 146.252C186.954 146.19 187.096 146.165 187.237 146.183C191.29 146.629 194.995 149.329 195.155 149.445C195.242 149.51 195.318 149.597 195.369 149.692C195.42 149.79 195.452 149.899 195.46 150.007C195.467 150.116 195.449 150.229 195.409 150.33C195.369 150.432 195.304 150.526 195.224 150.603L191.885 153.719C191.748 153.843 191.566 153.915 191.377 153.912H191.374ZM188.754 147.986C189.375 148.933 190.296 150.301 191.49 152.003L193.497 150.131C192.023 149.198 190.427 148.476 188.754 147.99V147.986Z" fill="#182230"/>
<path d="M214.484 166.296C214.484 166.296 217.84 169.235 219.023 172.704C219.023 172.704 214.528 171.006 211.966 169.917L214.488 166.296H214.484Z" fill="#182230"/>
<path d="M219.016 173.458C218.925 173.458 218.834 173.44 218.751 173.408C218.707 173.39 214.211 171.691 211.664 170.61C211.559 170.567 211.465 170.501 211.392 170.414C211.316 170.331 211.261 170.229 211.232 170.12C211.203 170.011 211.196 169.899 211.214 169.786C211.232 169.674 211.276 169.569 211.341 169.478L213.867 165.86C213.928 165.773 214.005 165.701 214.095 165.646C214.186 165.592 214.288 165.556 214.393 165.545C214.498 165.534 214.607 165.545 214.708 165.574C214.81 165.603 214.904 165.657 214.984 165.73C215.126 165.853 218.511 168.843 219.738 172.464C219.778 172.577 219.788 172.7 219.77 172.82C219.752 172.94 219.705 173.052 219.636 173.15C219.567 173.248 219.473 173.328 219.364 173.382C219.259 173.437 219.139 173.466 219.019 173.466L219.016 173.458ZM213.112 169.569C214.552 170.16 216.312 170.85 217.586 171.336C216.769 169.913 215.761 168.604 214.596 167.446L213.112 169.569Z" fill="#182230"/>
<path d="M229.713 123.334C229.64 123.334 229.568 123.327 229.499 123.305L191.864 112.615C191.672 112.561 191.508 112.43 191.41 112.256C191.312 112.082 191.287 111.875 191.345 111.683L192.412 107.927C192.466 107.735 192.597 107.572 192.771 107.474C192.945 107.376 193.152 107.35 193.344 107.405L235.232 119.205C235.381 119.248 235.515 119.336 235.613 119.455C235.711 119.575 235.769 119.724 235.783 119.88C235.798 120.036 235.758 120.192 235.678 120.322C235.598 120.457 235.479 120.562 235.337 120.624L235.138 120.711C233.497 121.444 231.465 122.354 230.127 123.207C230.003 123.287 229.862 123.327 229.717 123.327L229.713 123.334Z" fill="#FFBC00"/>
<path d="M267.311 133.94C267.068 133.94 266.821 133.904 266.585 133.839L248.348 128.723C248.236 128.69 248.134 128.635 248.047 128.556C247.96 128.479 247.891 128.385 247.848 128.276C247.804 128.171 247.786 128.055 247.793 127.939C247.801 127.823 247.833 127.71 247.891 127.612C248.573 126.437 248.541 125.428 248.414 124.227C248.403 124.103 248.421 123.98 248.465 123.868C248.512 123.755 248.584 123.653 248.679 123.574C248.773 123.494 248.885 123.439 249.005 123.414C249.125 123.389 249.248 123.392 249.368 123.425L268.059 128.628C268.73 128.82 269.296 129.27 269.637 129.88C269.978 130.49 270.062 131.208 269.873 131.883L269.833 132.028C269.677 132.58 269.343 133.062 268.889 133.407C268.432 133.752 267.877 133.94 267.307 133.944L267.311 133.94Z" fill="#FFBC00"/>
<path d="M274.285 133.966C274.212 133.966 274.14 133.958 274.067 133.937L270.319 132.859C270.221 132.834 270.127 132.79 270.047 132.728C269.967 132.667 269.898 132.59 269.847 132.503C269.796 132.416 269.764 132.318 269.753 132.217C269.742 132.115 269.749 132.014 269.775 131.916C269.804 131.818 269.851 131.727 269.913 131.647C269.978 131.567 270.054 131.502 270.145 131.455C270.236 131.408 270.334 131.379 270.431 131.368C270.533 131.357 270.635 131.368 270.733 131.4L274.488 132.467C274.666 132.518 274.818 132.63 274.92 132.783C275.022 132.939 275.061 133.124 275.036 133.305C275.011 133.487 274.916 133.654 274.778 133.773C274.637 133.893 274.459 133.958 274.274 133.955L274.285 133.962V133.966Z" fill="#182230"/>
<path d="M187.149 105.494C185.793 105.102 184.344 106 183.922 107.491C183.504 108.982 184.275 110.518 185.631 110.905L191.724 112.659L193.242 107.248L187.149 105.494Z" fill="#FFF9E5"/>
<path d="M264.622 110.239C264.528 110.239 264.437 110.221 264.35 110.188C251.868 105.337 239.02 101.501 225.924 98.7183C225.728 98.6748 225.554 98.5587 225.445 98.3882C225.336 98.2176 225.297 98.0144 225.34 97.8185C225.38 97.6225 225.5 97.452 225.667 97.3395C225.837 97.2307 226.04 97.1907 226.236 97.2343C239.411 100.032 252.34 103.893 264.898 108.766C265.061 108.831 265.196 108.951 265.283 109.107C265.366 109.259 265.395 109.437 265.363 109.611C265.33 109.785 265.239 109.941 265.105 110.054C264.971 110.166 264.8 110.228 264.626 110.232V110.239H264.622Z" fill="#182230"/>
<path d="M197.157 225.11C196.53 225.11 195.902 225.031 195.292 224.875C195.194 224.853 195.096 224.813 195.013 224.755C194.929 224.697 194.86 224.621 194.802 224.534C194.748 224.446 194.712 224.348 194.697 224.247C194.683 224.145 194.686 224.044 194.712 223.942C194.737 223.844 194.784 223.75 194.846 223.67C194.908 223.59 194.984 223.521 195.075 223.47C195.165 223.42 195.263 223.391 195.365 223.38C195.466 223.369 195.568 223.38 195.666 223.409C196.885 223.695 198.162 223.623 199.345 223.198C200.525 222.777 201.559 222.019 202.321 221.025C202.44 220.872 202.618 220.771 202.811 220.742C203.003 220.716 203.199 220.764 203.358 220.88C203.515 220.996 203.623 221.166 203.66 221.359C203.696 221.551 203.652 221.747 203.544 221.91C202.8 222.901 201.838 223.71 200.728 224.261C199.617 224.817 198.398 225.103 197.157 225.103V225.11Z" fill="#182230"/>
<path d="M177.636 94.6254C177.466 94.6254 177.299 94.5673 177.164 94.4585C177.03 94.3496 176.936 94.2009 176.9 94.034C176.863 93.8634 176.881 93.6892 176.958 93.5368C177.034 93.3808 177.161 93.2574 177.317 93.1849C182.125 90.9606 187.459 90.1369 192.713 90.8082C192.811 90.8191 192.909 90.8481 192.999 90.8989C193.086 90.9497 193.166 91.015 193.228 91.0949C193.29 91.1747 193.337 91.2654 193.366 91.3634C193.391 91.4613 193.398 91.5629 193.388 91.6609C193.377 91.7589 193.34 91.8568 193.293 91.9439C193.242 92.031 193.174 92.1072 193.094 92.1689C193.014 92.2306 192.923 92.2741 192.822 92.2959C192.724 92.3213 192.622 92.3249 192.524 92.3104C187.553 91.6791 182.509 92.4628 177.963 94.5637C177.861 94.6073 177.752 94.629 177.643 94.629L177.636 94.6254Z" fill="#182230"/>
<path d="M177.952 88.7035C177.781 88.6999 177.618 88.6382 177.487 88.5257C177.357 88.4169 177.266 88.2681 177.233 88.1012C177.197 87.9343 177.222 87.7601 177.299 87.6077C177.375 87.4553 177.502 87.3356 177.654 87.263C181.243 85.7209 185.183 85.1803 189.055 85.6991C189.153 85.7136 189.247 85.7463 189.334 85.7935C189.418 85.8443 189.494 85.9096 189.556 85.9894C189.617 86.0692 189.661 86.16 189.686 86.2543C189.712 86.3486 189.719 86.4502 189.705 86.5482C189.69 86.6462 189.657 86.7405 189.61 86.8276C189.559 86.9147 189.494 86.9909 189.414 87.0489C189.334 87.1106 189.244 87.1542 189.149 87.1796C189.055 87.205 188.953 87.2122 188.855 87.1977C185.252 86.7187 181.591 87.2195 178.253 88.6491C178.159 88.6854 178.057 88.7035 177.955 88.6999L177.952 88.7035Z" fill="#182230"/>
<path d="M86.3171 93.8706L78.5738 97.2887C78.5738 97.2887 78.0513 91.3271 86.0704 89.1245L86.3171 93.8706Z" fill="#182230"/>
<path d="M78.5738 98.0434C78.4359 98.0434 78.3053 98.0071 78.1855 97.9382C78.0839 97.8765 77.9968 97.793 77.9315 97.6914C77.8662 97.5898 77.8299 97.4737 77.819 97.354C77.819 97.2887 77.351 90.7356 85.8671 88.3916C85.976 88.3625 86.0921 88.3553 86.2045 88.377C86.317 88.3988 86.4223 88.4424 86.5166 88.5077C86.6073 88.573 86.6835 88.6601 86.7379 88.758C86.7924 88.856 86.8214 88.9685 86.8287 89.081L87.079 93.8343C87.0863 93.9867 87.0464 94.1391 86.9665 94.2698C86.8867 94.4004 86.767 94.502 86.6255 94.5637L78.8786 97.9817C78.7806 98.0216 78.6754 98.0434 78.5702 98.0434H78.5738ZM85.3627 90.1296C80.8525 91.6681 79.695 94.5092 79.4083 96.0913L85.5333 93.388L85.3627 90.1296Z" fill="#182230"/>
<path d="M124.119 89.4511L131.634 89.7631C131.634 89.7631 129.486 87.1832 123.673 85.9858L124.119 89.4511Z" fill="#182230"/>
<path d="M131.63 90.5179H131.598L124.079 90.2058C123.905 90.1986 123.735 90.1296 123.604 90.0099C123.473 89.8902 123.386 89.7305 123.361 89.5563L122.915 86.0984C122.9 85.9786 122.915 85.8553 122.955 85.7428C122.995 85.6303 123.063 85.5287 123.151 85.4452C123.238 85.3618 123.346 85.3037 123.463 85.2711C123.579 85.2384 123.702 85.2348 123.818 85.2602C129.827 86.5011 132.113 89.1826 132.207 89.2951C132.298 89.4039 132.356 89.5418 132.374 89.6833C132.392 89.8248 132.367 89.97 132.309 90.1006C132.247 90.2312 132.153 90.3401 132.03 90.4163C131.91 90.4925 131.768 90.536 131.627 90.536V90.5179H131.63ZM124.787 88.7218L129.326 88.9105C127.842 88.0251 126.235 87.3683 124.551 86.9656L124.787 88.7218Z" fill="#182230"/>
<path d="M212.397 169.917C212.249 169.917 212.103 169.874 211.98 169.79C211.897 169.736 211.824 169.667 211.77 169.583C211.715 169.503 211.675 169.409 211.654 169.311C211.632 169.213 211.632 169.112 211.654 169.017C211.672 168.919 211.712 168.825 211.766 168.745C214.037 165.327 218.319 159.376 221.49 157.91C225.845 155.904 230.253 155.849 234.517 155.799C238.04 155.755 241.683 155.711 245.308 154.561C247.307 153.926 249.978 152.656 251.36 150.196C252.442 148.251 252.442 145.214 250.522 143.679C250.432 143.607 250.359 143.512 250.308 143.407C250.257 143.302 250.236 143.186 250.239 143.066C250.239 142.95 250.275 142.834 250.33 142.729C250.384 142.627 250.464 142.536 250.559 142.467C251.698 141.665 252.565 140.53 253.033 139.216C253.501 137.903 253.556 136.477 253.182 135.134C252.808 133.788 252.032 132.594 250.954 131.709C249.876 130.823 248.552 130.294 247.159 130.192C247.003 130.181 246.85 130.12 246.73 130.018C246.607 129.916 246.52 129.782 246.48 129.63C246.44 129.477 246.447 129.314 246.505 129.169C246.56 129.02 246.661 128.897 246.796 128.81C247.674 128.225 248.262 127.242 248.45 126.041C248.559 125.323 248.523 124.586 248.341 123.882C248.16 123.178 247.837 122.514 247.394 121.937C245.533 119.629 242.3 119.107 239.891 119.39C237.115 119.713 234.535 120.932 231.694 122.373C230.518 123 229.379 123.697 228.287 124.459C226.697 125.511 225.057 126.604 223.12 127.467C222.938 127.543 222.735 127.543 222.55 127.467C222.369 127.395 222.22 127.253 222.14 127.075C222.06 126.894 222.053 126.691 222.118 126.509C222.187 126.324 222.321 126.172 222.499 126.088C224.321 125.275 225.91 124.22 227.445 123.2C228.588 122.405 229.778 121.68 231.008 121.023C233.983 119.51 236.69 118.24 239.713 117.888C243.298 117.471 246.691 118.661 248.574 120.99C249.154 121.734 249.572 122.583 249.811 123.497C250.047 124.408 250.094 125.359 249.949 126.288C249.811 127.264 249.423 128.193 248.824 128.98C251.556 129.76 253.886 132.006 254.644 134.75C255.464 137.714 254.43 141.11 252.141 143.16C254.027 145.305 253.958 148.665 252.678 150.954C251.063 153.843 248.029 155.305 245.762 156.02C241.93 157.235 238.171 157.283 234.535 157.315C230.239 157.366 226.182 157.417 222.125 159.293C220.054 160.247 216.741 163.999 213.025 169.591C212.956 169.696 212.862 169.779 212.753 169.837C212.644 169.895 212.521 169.928 212.397 169.928V169.917Z" fill="#182230"/>
<path d="M87.1842 96.8641C87.3656 96.8496 87.5325 96.7625 87.6523 96.621C87.7684 96.4795 87.8264 96.3017 87.8119 96.1203C87.235 89.3095 86.7488 85.0242 86.2807 80.8805C85.8126 76.7367 85.33 72.4696 84.7531 65.6806C84.6079 64.0151 84.4084 61.7292 83.0041 60.1326C82.1079 59.1166 80.9068 58.5723 79.7493 58.0462C79.1942 57.8067 78.6572 57.5382 78.131 57.2407C76.2224 56.1122 74.9778 54.1782 74.8762 52.1898C74.771 50.0998 76.0737 48.0678 77.9097 47.4654C78.2036 47.3747 78.5048 47.2985 78.8059 47.2405C79.4736 47.0953 80.163 46.9466 80.798 46.522C82.3945 45.448 82.5868 43.3616 82.5651 41.4603C82.5433 39.6678 82.3655 37.1024 82.1986 34.6205C82.0281 32.1386 81.8575 29.6131 81.8357 27.8569C81.8357 27.6755 81.7595 27.4977 81.6289 27.3707C81.4983 27.2437 81.3205 27.1712 81.1391 27.1748C80.9576 27.1784 80.7799 27.251 80.6529 27.3816C80.5259 27.5122 80.4533 27.69 80.4569 27.8715C80.4787 29.6676 80.6565 32.2329 80.8234 34.7112C80.9939 37.1931 81.1645 39.7186 81.1862 41.4748C81.208 43.0822 81.0701 44.6679 80.0287 45.3718C79.6187 45.6476 79.0744 45.7637 78.512 45.8871C78.1637 45.956 77.819 46.0431 77.4779 46.1483C75.0758 46.9357 73.3668 49.5591 73.501 52.2515C73.6244 54.6898 75.1266 57.0484 77.4271 58.4091C77.9931 58.732 78.5773 59.0223 79.176 59.2835C80.2537 59.7698 81.2661 60.2306 81.97 61.0252C82.9969 62.1864 83.2073 63.8664 83.3742 65.7822C83.9512 72.5929 84.4374 76.8746 84.9055 81.0184C85.3735 85.1621 85.8561 89.4293 86.4331 96.2182C86.4476 96.3996 86.5347 96.5666 86.6762 96.6863C86.8141 96.8024 86.9955 96.8605 87.1769 96.846L87.1842 96.8532V96.8641Z" fill="#182230"/>
<path d="M82.2496 55.4265C82.3403 55.4193 82.4274 55.3975 82.5108 55.3576C82.5906 55.3177 82.6632 55.2632 82.7249 55.1943C82.8446 55.0564 82.9063 54.8786 82.8954 54.6936C82.8845 54.5121 82.8011 54.3416 82.6632 54.2182C82.5253 54.0985 82.3475 54.0368 82.1661 54.0477C81.1501 54.0876 79.5173 53.0027 79.1762 51.798C79.1218 51.6275 79.002 51.4896 78.846 51.4061C78.69 51.3227 78.5049 51.3045 78.3344 51.3517C78.1638 51.3989 78.0187 51.5113 77.928 51.6674C77.8373 51.8198 77.8119 52.0012 77.8518 52.1754C78.3453 53.9098 80.4679 55.5027 82.2205 55.4265H82.2532H82.2496Z" fill="#182230"/>
</g>
<defs>
<clipPath id="clip0_290_55261">
<rect width="356" height="254.84" fill="white" transform="translate(0 0.154541)"/>
</clipPath>
</defs>
</svg>
