<svg width="63" height="20" viewBox="0 0 63 20" fill="none" xmlns="http://www.w3.org/2000/svg">
<path fill-rule="evenodd" clip-rule="evenodd" d="M16.375 5.47058V14.4872C16.375 14.6896 16.4819 14.7976 16.6843 14.7976H17.7736C17.9749 14.7976 18.0823 14.6896 18.0823 14.4872V11.0098H19.212C20.1933 11.0098 21.1218 11.0098 21.9416 10.4569C22.721 9.93161 23.1111 9.04247 23.1111 8.04438C23.1111 6.95278 22.6278 6.06366 21.7938 5.61859C21.0404 5.21464 20.4498 5.16016 19.2257 5.16016H16.6843C16.483 5.16016 16.375 5.26809 16.375 5.47058ZM21.418 8.05877C21.418 9.12365 20.5839 9.52763 19.5219 9.52763H18.0835V6.65675H19.4424C20.7727 6.65675 21.418 7.10182 21.418 8.05877ZM26.5934 10.5791C25.0879 10.7949 23.5153 11.3478 23.5147 12.8292C23.5147 14.1638 24.5637 14.9312 26.0294 14.9312C27.1722 14.9312 27.9789 14.4327 28.369 13.853C28.369 14.1099 28.382 14.3381 28.4087 14.5139C28.423 14.702 28.5441 14.7965 28.7317 14.7965H29.6192C29.8074 14.7965 29.9148 14.742 29.9148 14.5941C29.9148 14.5514 29.9041 14.4921 29.8928 14.4303C29.8863 14.3952 29.8798 14.359 29.875 14.3247C29.8204 13.853 29.7937 13.3811 29.7937 12.5989V10.6172C29.7937 8.20471 28.5975 7.49036 26.8759 7.49036C25.2749 7.49036 24.2532 8.28595 23.9445 9.36421C23.9166 9.45876 23.8769 9.60678 23.8769 9.70134C23.8769 9.84936 23.9564 9.93054 24.1719 9.93054H25.1277C25.3164 9.93054 25.4108 9.83699 25.4637 9.64788C25.6115 9.12264 26.0425 8.77212 26.8356 8.77212C27.7646 8.77212 28.1808 9.21719 28.2075 10.39C28.1849 10.3938 28.0959 10.4027 27.9659 10.4158C27.6299 10.4496 27.0208 10.5109 26.5934 10.5791ZM28.2342 11.5371C28.2211 11.6718 28.2211 11.8198 28.2211 11.8332C28.2211 13.0327 27.6702 13.7604 26.4871 13.7604C25.7474 13.7604 25.263 13.4367 25.263 12.7901C25.263 12.0357 26.0828 11.7797 27.8709 11.5772L28.2342 11.5371ZM31.9866 17.0086C31.9866 16.9684 32.0133 16.9006 32.0673 16.7793L32.9816 14.6095L30.4669 8.09886C30.4402 8.03106 30.4271 7.99092 30.4271 7.95083C30.4271 7.81619 30.5346 7.72164 30.7091 7.72164H31.8519C32.0264 7.72164 32.1611 7.80287 32.2152 7.9776L33.8429 12.7757L35.4832 7.9776C35.5366 7.80287 35.6577 7.72164 35.8334 7.72164H36.9364C37.1103 7.72164 37.2184 7.80281 37.2184 7.93751C37.2184 7.9776 37.2047 8.03207 37.1786 8.09886L33.6417 16.9818C33.574 17.1432 33.4672 17.2244 33.2914 17.2244H32.2698C32.0952 17.2244 31.9878 17.1432 31.9878 17.0086H31.9866ZM40.7262 5.47058V6.38744C40.7262 6.58994 40.8331 6.69787 41.0355 6.69787H42.0969C42.2982 6.69787 42.4062 6.58994 42.4062 6.38744V5.47058C42.4062 5.26809 42.2994 5.16016 42.0969 5.16016H41.0355C40.8343 5.16016 40.7262 5.26809 40.7262 5.47058ZM40.7529 8.03207V14.4882C40.7529 14.6907 40.8598 14.7986 41.0622 14.7986H42.0839C42.2851 14.7986 42.3926 14.6907 42.3926 14.4882V8.03207C42.3926 7.82957 42.2863 7.72164 42.0839 7.72164H41.0622C40.861 7.72164 40.7529 7.82957 40.7529 8.03207ZM43.8054 14.4882V8.03207C43.7924 7.82957 43.8998 7.72164 44.1011 7.72164H45.0551C45.2575 7.72164 45.3643 7.82957 45.3643 8.03207V8.15333C45.3643 8.22719 45.3608 8.30105 45.3578 8.37504L45.3572 8.37515C45.3543 8.44943 45.3507 8.52377 45.3507 8.59841C45.3507 8.60733 45.3554 8.61179 45.3643 8.61179C45.7941 7.96523 46.4804 7.49345 47.5691 7.49345C49.1833 7.49345 50.1242 8.58508 50.1242 10.4054V14.4892C50.1242 14.6917 50.0161 14.7996 49.8149 14.7996H48.7932C48.5908 14.7996 48.4845 14.6917 48.4845 14.4892V11.1465C48.4845 9.7579 48.1479 8.86876 47.0461 8.86876C45.9438 8.86876 45.4451 9.74452 45.4451 10.8505V14.4902C45.4451 14.6927 45.3376 14.8007 45.1364 14.8007H44.1147C43.9123 14.8007 43.8054 14.6927 43.8054 14.4902V14.4882ZM58.0998 12.8302V14.4882L58.1016 14.4892C58.1016 14.6917 58.2084 14.7996 58.4102 14.7996H59.3114C59.5126 14.7996 59.6201 14.6917 59.6201 14.4892V12.8313H60.5753C60.7765 12.8313 60.884 12.7233 60.884 12.5208V11.7252C60.884 11.5227 60.7777 11.4148 60.5753 11.4148H59.6201V5.47058C59.6201 5.26809 59.5132 5.16016 59.3114 5.16016H58.3562C58.1948 5.16016 58.0736 5.21464 57.9793 5.36265C57.9401 5.42114 57.8932 5.49017 57.8409 5.56733C57.5198 6.04201 56.9908 6.82462 56.621 7.35777L53.8641 11.3336C53.7828 11.4549 53.743 11.5762 53.743 11.7242V12.5198C53.743 12.7223 53.8499 12.8302 54.0517 12.8302H58.0998ZM58.0998 9.04247V11.4138H55.41C55.594 11.1405 55.7412 10.9276 55.8795 10.7274C56.0547 10.4737 56.2155 10.2407 56.4186 9.93155L57.0508 9.00138C57.4171 8.46264 57.8831 7.67959 58.0564 7.38886C58.0737 7.35953 58.0885 7.3352 58.0998 7.31665H58.1259C58.1128 7.7751 58.0998 8.51622 58.0998 9.04247Z" fill="#253B80" style="fill:#253B80;fill:color(display-p3 0.1451 0.2314 0.5020);fill-opacity:1;"/>
<path d="M10.9943 6.1644C11.021 5.99686 11.0343 5.83034 11.0384 5.6669C10.4721 5.36984 9.80721 5.19922 9.07869 5.19922H5.07299C4.84624 5.19922 4.65334 5.36471 4.61845 5.58879L3.86328 10.388C3.89817 10.1639 4.09107 9.9984 4.31782 9.9984H6.53101C8.75854 9.9984 10.6496 8.37022 10.9943 6.1644Z" fill="#222D65" style="fill:#222D65;fill:color(display-p3 0.1333 0.1765 0.3961);fill-opacity:1;"/>
<path d="M3.86482 10.3891L3.17019 14.7997L2.73515 17.5667C2.69924 17.7939 2.87469 17.9995 3.10452 17.9995H5.50753C5.73429 17.9995 5.92716 17.834 5.96207 17.6099L6.59513 13.5888C6.63004 13.3648 6.82291 13.1993 7.04968 13.1993H8.46463C10.6922 13.1993 12.5831 11.5711 12.9279 9.36527C13.1732 7.79877 12.3862 6.37412 11.041 5.66797C11.038 5.8314 11.0236 5.99792 10.9969 6.16547C10.6511 8.37129 8.76115 9.99946 6.53357 9.99946H4.32039C4.09363 9.99946 3.90073 10.165 3.86585 10.3891" fill="#179BD7" style="fill:#179BD7;fill:color(display-p3 0.0902 0.6078 0.8431);fill-opacity:1;"/>
<path d="M3.17004 14.7992H0.374056C0.144221 14.7992 -0.0312341 14.5936 0.00467711 14.3664L1.89056 2.38956C1.92544 2.16549 2.11834 2 2.34509 2H7.14907C9.42379 2 11.0788 3.659 11.0399 5.66748C10.4735 5.37042 9.80859 5.19979 9.08007 5.19979H5.07439C4.84763 5.19979 4.65473 5.36528 4.61984 5.58936L3.86468 10.3885L3.17004 14.7992Z" fill="#253B80" style="fill:#253B80;fill:color(display-p3 0.1451 0.2314 0.5020);fill-opacity:1;"/>
</svg>
